Merriweather35-RegularText.ufo
<glyph name="exclam" format="2">
  <advance width="637.8756906077348"/>
  <unicode hex="0021"/>
  <outline>
    <contour>
      <point x="428.88950276243094" y="1792.9281767955802" type="line"/>
      <point x="198.81767955801106" y="1792.9281767955802" type="line"/>
      <point x="269.4640883977901" y="431.0552486187845" type="line"/>
      <point x="364.2707182320442" y="431.0552486187845" type="line"/>
    </contour>
    <contour>
      <point x="244.146408839779" y="42.43922651933701" type="curve" smooth="yes"/>
      <point x="278.6767955801105" y="4.21270718232044"/>
      <point x="338.28453038674036" y="3.944751381215468"/>
      <point x="371.2292817679558" y="41.36187845303867" type="curve" smooth="yes"/>
      <point x="413.41436464088395" y="69.2292817679558"/>
      <point x="431.4281767955801" y="123.28729281767954"/>
      <point x="395.292817679558" y="167.5" type="curve" smooth="yes"/>
      <point x="361.8121546961326" y="200.3038674033149"/>
      <point x="311.0" y="204.4309392265193"/>
      <point x="266.49171270718233" y="168.71823204419888" type="curve" smooth="yes"/>
      <point x="228.0110497237569" y="136.4281767955801"/>
      <point x="215.27900552486187" y="84.2292817679558"/>
    </contour>
  </outline>
</glyph>
<glyph name="numbersign" format="2">
  <advance width="1459.6906077348067"/>
  <unicode hex="0023"/>
  <outline>
    <contour>
      <point x="147.7292817679558" y="411.77348066298345" type="line"/>
      <point x="372.96132596685084" y="411.77348066298345" type="line"/>
      <point x="328.1160220994475" y="0.0" type="line"/>
      <point x="488.98342541436466" y="0.0" type="line"/>
      <point x="531.8287292817679" y="411.77348066298345" type="line"/>
      <point x="878.0055248618785" y="411.77348066298345" type="line"/>
      <point x="837.1602209944751" y="0.0" type="line"/>
      <point x="994.3093922651933" y="0.0" type="line"/>
      <point x="1035.7182320441989" y="411.77348066298345" type="line"/>
      <point x="1296.8950276243095" y="411.77348066298345" type="line"/>
      <point x="1296.6132596685084" y="532.0883977900553" type="line"/>
      <point x="1049.6629834254143" y="532.0883977900553" type="line"/>
      <point x="1086.53591160221" y="945.0662983425415" type="line"/>
      <point x="1340.6132596685084" y="945.0662983425415" type="line"/>
      <point x="1340.6132596685084" y="1064.8176795580112" type="line"/>
      <point x="1099.889502762431" y="1064.8176795580112" type="line"/>
      <point x="1145.5801104972375" y="1486.0" type="line"/>
      <point x="987.8674033149172" y="1486.0" type="line"/>
      <point x="942.7403314917127" y="1064.8176795580112" type="line"/>
      <point x="598.5635359116022" y="1064.8176795580112" type="line"/>
      <point x="643.6906077348066" y="1486.0" type="line"/>
      <point x="484.8232044198895" y="1486.0" type="line"/>
      <point x="441.1325966850829" y="1064.8176795580112" type="line"/>
      <point x="190.26519337016575" y="1064.8176795580112" type="line"/>
      <point x="190.26519337016575" y="945.0662983425415" type="line"/>
      <point x="427.49723756906076" y="945.0662983425415" type="line"/>
      <point x="388.6243093922652" y="532.0883977900553" type="line"/>
      <point x="147.4475138121547" y="532.0883977900553" type="line"/>
    </contour>
    <contour>
      <point x="928.8232044198895" y="945.0662983425415" type="line"/>
      <point x="886.232044198895" y="532.0883977900553" type="line"/>
      <point x="545.7734806629834" y="532.0883977900553" type="line"/>
      <point x="584.646408839779" y="945.0662983425415" type="line"/>
    </contour>
  </outline>
</glyph>
<glyph name="percent" format="2">
  <advance width="1987.720994475138"/>
  <unicode hex="0025"/>
  <outline>
    <contour>
      <point x="611.9254143646409" y="0.0" type="line"/>
      <point x="739.8287292817679" y="0.0" type="line"/>
      <point x="1367.5773480662983" y="1502.0" type="line"/>
      <point x="1240.0331491712707" y="1501.6408839779006" type="line"/>
    </contour>
    <contour>
      <point x="453.2486187845304" y="641.2375690607735" type="curve" smooth="yes"/>
      <point x="657.4558011049724" y="641.2375690607735"/>
      <point x="841.1325966850828" y="789.914364640884"/>
      <point x="841.1325966850828" y="1060.986187845304" type="curve" smooth="yes"/>
      <point x="841.1325966850828" y="1290.7127071823204"/>
      <point x="737.9779005524862" y="1472.875690607735"/>
      <point x="487.2348066298342" y="1472.875690607735" type="curve" smooth="yes"/>
      <point x="278.74585635359114" y="1472.875690607735"/>
      <point x="99.77348066298343" y="1320.0580110497237"/>
      <point x="99.77348066298343" y="1048.986187845304" type="curve" smooth="yes"/>
      <point x="99.77348066298343" y="827.5690607734807"/>
      <point x="231.27348066298342" y="641.2375690607735"/>
    </contour>
    <contour>
      <point x="466.439226519337" y="715.7044198895028" type="curve" smooth="yes"/>
      <point x="339.8011049723757" y="715.7044198895028"/>
      <point x="276.6491712707182" y="866.4640883977901"/>
      <point x="276.6491712707182" y="1058.254143646409" type="curve" smooth="yes"/>
      <point x="276.6491712707182" y="1270.2127071823204"/>
      <point x="347.82872928176795" y="1398.4088397790056"/>
      <point x="475.2348066298342" y="1398.4088397790056" type="curve" smooth="yes"/>
      <point x="602.4502762430939" y="1398.4088397790056"/>
      <point x="665.756906077348" y="1263.9088397790056"/>
      <point x="665.756906077348" y="1052.986187845304" type="curve" smooth="yes"/>
      <point x="665.756906077348" y="842.4640883977901"/>
      <point x="593.7044198895028" y="715.7044198895028"/>
    </contour>
    <contour>
      <point x="1496.3453038674033" y="40.46961325966851" type="curve" smooth="yes"/>
      <point x="1699.975138121547" y="40.46961325966851"/>
      <point x="1884.511049723757" y="189.28729281767957"/>
      <point x="1884.511049723757" y="460.35911602209944" type="curve" smooth="yes"/>
      <point x="1884.511049723757" y="689.2265193370166"/>
      <point x="1780.3563535911603" y="872.2486187845304"/>
      <point x="1530.4723756906078" y="872.2486187845304" type="curve" smooth="yes"/>
      <point x="1321.842541436464" y="872.2486187845304"/>
      <point x="1142.8701657458564" y="719.4309392265193"/>
      <point x="1142.8701657458564" y="448.35911602209944" type="curve" smooth="yes"/>
      <point x="1142.8701657458564" y="228.49171270718233"/>
      <point x="1273.792817679558" y="40.46961325966851"/>
    </contour>
    <contour>
      <point x="1508.6767955801106" y="115.2182320441989" type="curve" smooth="yes"/>
      <point x="1382.8977900552486" y="115.2182320441989"/>
      <point x="1318.8867403314916" y="265.8370165745856"/>
      <point x="1318.8867403314916" y="458.48618784530385" type="curve" smooth="yes"/>
      <point x="1318.8867403314916" y="669.585635359116"/>
      <point x="1390.207182320442" y="797.7817679558011"/>
      <point x="1518.4723756906078" y="797.7817679558011" type="curve" smooth="yes"/>
      <point x="1645.4060773480662" y="797.7817679558011"/>
      <point x="1708.853591160221" y="662.4226519337017"/>
      <point x="1708.853591160221" y="452.35911602209944" type="curve" smooth="yes"/>
      <point x="1708.9944751381215" y="242.11878453038673"/>
      <point x="1635.9419889502763" y="115.2182320441989"/>
    </contour>
  </outline>
</glyph>
<glyph name="ampersand" format="2">
  <advance width="1478.2955801104972"/>
  <unicode hex="0026"/>
  <outline>
    <contour>
      <point x="1447.6767955801106" y="815.0718232044198" type="line"/>
      <point x="1032.842541436464" y="815.0718232044198" type="line"/>
      <point x="1032.842541436464" y="734.6049723756906" type="line"/>
      <point x="1165.8204419889503" y="708.0690607734807" type="line"/>
      <point x="1180.8839779005525" y="584.1906077348066"/>
      <point x="1156.4475138121547" y="408.3232044198895"/>
      <point x="1062.013812154696" y="290.8038674033149" type="curve"/>
      <point x="968.4226519337017" y="381.0359116022099"/>
      <point x="878.2375690607735" y="489.37016574585635"/>
      <point x="664.7707182320441" y="762.8977900552486" type="curve"/>
      <point x="891.4088397790056" y="895.732044198895"/>
      <point x="1022.0303867403314" y="1012.878453038674"/>
      <point x="1022.0303867403314" y="1209.5414364640883" type="curve" smooth="yes"/>
      <point x="1022.0303867403314" y="1372.5414364640883"/>
      <point x="899.6767955801105" y="1504.2817679558011"/>
      <point x="679.5165745856353" y="1504.2817679558011" type="curve" smooth="yes"/>
      <point x="425.43646408839777" y="1504.2817679558011"/>
      <point x="264.8756906077348" y="1338.232044198895"/>
      <point x="264.8756906077348" y="1145.5828729281768" type="curve" smooth="yes"/>
      <point x="264.8756906077348" y="1008.9337016574585"/>
      <point x="324.75690607734805" y="894.3701657458564"/>
      <point x="443.1850828729282" y="738.914364640884" type="curve"/>
      <point x="253.21270718232046" y="661.0"/>
      <point x="113.45856353591161" y="529.6408839779006"/>
      <point x="113.45856353591161" y="360.23204419889504" type="curve" smooth="yes"/>
      <point x="113.45856353591161" y="122.16298342541437"/>
      <point x="310.51381215469615" y="-17.69060773480663"/>
      <point x="605.4475138121547" y="-17.69060773480663" type="curve" smooth="yes"/>
      <point x="735.6988950276243" y="-17.69060773480663"/>
      <point x="878.2900552486187" y="12.803867403314916"/>
      <point x="989.328729281768" y="109.53314917127072" type="curve"/>
      <point x="1083.2016574585634" y="24.69060773480663"/>
      <point x="1169.013812154696" y="-12.704419889502763"/>
      <point x="1262.7762430939226" y="-12.704419889502763" type="curve" smooth="yes"/>
      <point x="1301.792817679558" y="-12.704419889502763"/>
      <point x="1368.5801104972375" y="-4.013812154696133"/>
      <point x="1393.7348066298343" y="9.662983425414364" type="curve"/>
      <point x="1393.7348066298343" y="75.48895027624309" type="line"/>
      <point x="1289.8066298342542" y="85.91160220994475"/>
      <point x="1210.2872928176796" y="138.8259668508287"/>
      <point x="1124.4447513812154" y="226.74585635359117" type="curve"/>
      <point x="1219.6767955801106" y="332.9337016574586"/>
      <point x="1311.4088397790056" y="511.26795580110496"/>
      <point x="1310.585635359116" y="708.0690607734807" type="curve"/>
      <point x="1447.6767955801106" y="734.6049723756906" type="line"/>
    </contour>
    <contour>
      <point x="453.8342541436464" y="1183.4447513812154" type="curve" smooth="yes"/>
      <point x="453.8342541436464" y="1327.1850828729282"/>
      <point x="522.2900552486187" y="1434.2099447513813"/>
      <point x="668.1795580110497" y="1434.2099447513813" type="curve" smooth="yes"/>
      <point x="802.9364640883978" y="1434.2099447513813"/>
      <point x="847.5193370165746" y="1309.5635359116022"/>
      <point x="850.3922651933701" y="1201.8314917127072" type="curve" smooth="yes"/>
      <point x="854.3425414364641" y="1035.024861878453"/>
      <point x="785.5497237569061" y="937.2209944751381"/>
      <point x="615.4944751381215" y="824.8011049723757" type="curve"/>
      <point x="537.5718232044198" y="920.0055248618784"/>
      <point x="453.8342541436464" y="1037.0607734806629"/>
    </contour>
    <contour>
      <point x="649.6519337016574" y="76.5248618784531" type="curve" smooth="yes"/>
      <point x="442.15193370165747" y="78.67955801104975"/>
      <point x="306.73204419889504" y="205.92541436464094"/>
      <point x="302.4226519337017" y="374.3480662983426" type="curve" smooth="yes"/>
      <point x="298.47237569060775" y="507.1906077348067"/>
      <point x="367.11049723756906" y="606.646408839779"/>
      <point x="494.5110497237569" y="674.6933701657458" type="curve"/>
      <point x="626.2375690607735" y="502.93093922651934"/>
      <point x="794.3397790055249" y="290.2099447513812"/>
      <point x="924.4530386740331" y="165.91436464088397" type="curve"/>
      <point x="846.7872928176796" y="99.91160220994476"/>
      <point x="741.4806629834254" y="75.44751381215471"/>
    </contour>
  </outline>
</glyph>
<glyph name="parenleft" format="2">
  <advance width="819.8093922651933"/>
  <unicode hex="0028"/>
  <outline>
    <contour>
      <point x="121.27900552486189" y="668.0" type="curve" smooth="yes"/>
      <point x="121.27900552486189" y="-8.342541436464085"/>
      <point x="536.1933701657458" y="-314.50828729281767"/>
      <point x="627.9696132596684" y="-369.0718232044199" type="curve"/>
      <point x="693.9917127071823" y="-321.56353591160223" type="line"/>
      <point x="591.9475138121547" y="-249.0828729281768"/>
      <point x="297.3204419889503" y="91.46408839779005"/>
      <point x="311.7430939226519" y="701.4640883977901" type="curve"/>
      <point x="322.7292817679558" y="1248.5082872928176"/>
      <point x="598.4060773480663" y="1554.5331491712707"/>
      <point x="688.8093922651933" y="1614.1685082872928" type="curve"/>
      <point x="628.5331491712707" y="1657.0718232044198" type="line"/>
      <point x="520.756906077348" y="1595.9723756906078"/>
      <point x="121.27900552486189" y="1251.8342541436464"/>
    </contour>
  </outline>
</glyph>
<glyph name="hyphen" format="2">
  <advance width="1101.8729281767955"/>
  <unicode hex="002D"/>
  <outline>
    <contour>
      <point x="934.8729281767955" y="663.488950276243" type="line"/>
      <point x="167.0" y="663.488950276243" type="line"/>
      <point x="167.0" y="540.2016574585635" type="line"/>
      <point x="934.8729281767955" y="540.2016574585635" type="line"/>
    </contour>
  </outline>
</glyph>
<glyph name="slash" format="2">
  <advance width="792.2513812154696"/>
  <unicode hex="002F"/>
  <outline>
    <contour>
      <point x="733.2237569060774" y="1562.0" type="line"/>
      <point x="603.8121546961326" y="1562.0" type="line"/>
      <point x="58.74585635359116" y="-354.0" type="line"/>
      <point x="188.72099447513813" y="-354.0" type="line"/>
    </contour>
  </outline>
</glyph>
<glyph name="zero" format="2">
  <advance width="1253.4585635359117"/>
  <unicode hex="0030"/>
  <outline>
    <contour>
      <point x="612.3121546961326" y="-18.845303867403313" type="curve" smooth="yes"/>
      <point x="948.1629834254144" y="-18.845303867403313"/>
      <point x="1165.5801104972375" y="274.1933701657459"/>
      <point x="1167.0165745856355" y="754.0580110497237" type="curve" smooth="yes"/>
      <point x="1168.4530386740332" y="1204.5690607734807"/>
      <point x="1016.8480662983425" y="1504.2817679558011"/>
      <point x="647.0331491712707" y="1504.2817679558011" type="curve" smooth="yes"/>
      <point x="324.7955801104972" y="1504.2817679558011"/>
      <point x="88.16022099447514" y="1232.1988950276243"/>
      <point x="86.44198895027624" y="747.1795580110497" type="curve" smooth="yes"/>
      <point x="84.72375690607736" y="307.40055248618785"/>
      <point x="244.3342541436464" y="-18.845303867403313"/>
    </contour>
    <contour>
      <point x="625.4198895027624" y="58.776243093922645" type="curve" smooth="yes"/>
      <point x="415.3508287292818" y="58.776243093922645"/>
      <point x="320.1491712707182" y="337.353591160221"/>
      <point x="320.1491712707182" y="758.4198895027624" type="curve" smooth="yes"/>
      <point x="320.1491712707182" y="1203.5580110497237"/>
      <point x="414.15469613259665" y="1426.2375690607735"/>
      <point x="630.1795580110497" y="1426.2375690607735" type="curve" smooth="yes"/>
      <point x="841.853591160221" y="1426.2375690607735"/>
      <point x="932.2320441988951" y="1183.9419889502763"/>
      <point x="932.2320441988951" y="737.7458563535912" type="curve" smooth="yes"/>
      <point x="932.2320441988951" y="296.80939226519337"/>
      <point x="848.939226519337" y="58.776243093922645"/>
    </contour>
  </outline>
</glyph>
<glyph name="one" format="2">
  <advance width="874.5966850828729"/>
  <unicode hex="0031"/>
  <outline>
    <contour>
      <point x="369.53591160221" y="92.24861878453038" type="line"/>
      <point x="120.75690607734808" y="67.48066298342542" type="line"/>
      <point x="120.75690607734808" y="0.0" type="line"/>
      <point x="821.7817679558011" y="0.0" type="line"/>
      <point x="821.7817679558011" y="67.48066298342542" type="line"/>
      <point x="585.5524861878453" y="92.5303867403315" type="line"/>
      <point x="585.5524861878453" y="1484.5635359116022" type="line"/>
      <point x="465.24309392265195" y="1504.5635359116022" type="line"/>
      <point x="461.2707182320442" y="1504.5635359116022" type="line"/>
      <point x="379.01657458563534" y="1415.0497237569061"/>
      <point x="217.11325966850828" y="1326.364640883978"/>
      <point x="69.58839779005525" y="1294.9558011049724" type="curve"/>
      <point x="85.77900552486187" y="1213.853591160221" type="line"/>
      <point x="186.97237569060775" y="1228.0635359116022"/>
      <point x="310.7348066298343" y="1262.2817679558011"/>
      <point x="367.88121546961327" y="1285.5414364640885" type="curve"/>
    </contour>
  </outline>
</glyph>
<glyph name="two" format="2">
  <advance width="1150.121546961326"/>
  <unicode hex="0032"/>
  <outline>
    <contour>
      <point x="47.110497237569064" y="76.37292817679557" type="curve"/>
      <point x="76.66298342541435" y="0.0" type="line"/>
      <point x="1011.2154696132596" y="0.0" type="line"/>
      <point x="1071.7872928176796" y="331.1767955801105" type="line"/>
      <point x="988.0248618784531" y="348.9171270718232" type="line"/>
      <point x="904.3701657458563" y="178.44751381215468" type="line"/>
      <point x="259.2486187845304" y="125.25414364640883" type="line"/>
      <point x="607.1988950276243" y="351.0552486187845"/>
      <point x="977.146408839779" y="749.8674033149172"/>
      <point x="977.146408839779" y="1098.3232044198894" type="curve" smooth="yes"/>
      <point x="977.146408839779" y="1346.1408839779006"/>
      <point x="800.3011049723757" y="1502.5635359116022"/>
      <point x="542.1436464088398" y="1502.5635359116022" type="curve" smooth="yes"/>
      <point x="320.5966850828729" y="1502.5635359116022"/>
      <point x="150.54696132596686" y="1377.292817679558"/>
      <point x="62.81491712707182" y="1237.8453038674033" type="curve"/>
      <point x="127.14640883977901" y="1178.124309392265" type="line"/>
      <point x="206.8646408839779" y="1278.3259668508288"/>
      <point x="327.6160220994475" y="1364.754143646409"/>
      <point x="473.7265193370166" y="1364.754143646409" type="curve" smooth="yes"/>
      <point x="641.0276243093923" y="1364.754143646409"/>
      <point x="750.9889502762431" y="1261.5"/>
      <point x="750.9889502762431" y="1053.1298342541436" type="curve" smooth="yes"/>
      <point x="750.9889502762431" y="711.6740331491712"/>
      <point x="395.560773480663" y="284.8508287292818"/>
    </contour>
  </outline>
</glyph>
<glyph name="three" format="2">
  <advance width="1102.4419889502763"/>
  <unicode hex="0033"/>
  <outline>
    <contour>
      <point x="308.7817679558011" y="-27.972375690607734" type="curve" smooth="yes"/>
      <point x="702.8950276243094" y="-30.127071823204417"/>
      <point x="1009.7817679558011" y="167.3729281767956"/>
      <point x="1008.2044198895028" y="470.81491712707185" type="curve" smooth="yes"/>
      <point x="1007.3453038674033" y="679.0994475138122"/>
      <point x="809.9972375690608" y="826.5193370165746"/>
      <point x="520.2486187845304" y="784.2016574585635" type="curve"/>
      <point x="724.7596685082873" y="851.5745856353591"/>
      <point x="931.7182320441989" y="979.1961325966851"/>
      <point x="931.7182320441989" y="1194.5911602209944" type="curve" smooth="yes"/>
      <point x="931.7182320441989" y="1410.3093922651933"/>
      <point x="741.682320441989" y="1502.4226519337017"/>
      <point x="522.7790055248619" y="1502.4226519337017" type="curve" smooth="yes"/>
      <point x="324.58839779005524" y="1502.4226519337017"/>
      <point x="154.16298342541435" y="1408.2403314917126"/>
      <point x="74.54696132596686" y="1333.3370165745857" type="curve"/>
      <point x="117.29558011049724" y="1264.488950276243" type="line"/>
      <point x="199.33701657458565" y="1328.3397790055249"/>
      <point x="311.0966850828729" y="1376.0580110497237"/>
      <point x="443.46132596685084" y="1376.7762430939226" type="curve" smooth="yes"/>
      <point x="588.3950276243094" y="1377.853591160221"/>
      <point x="701.1602209944751" y="1316.9806629834254"/>
      <point x="700.4419889502763" y="1162.488950276243" type="curve" smooth="yes"/>
      <point x="699.7237569060774" y="1013.0193370165746"/>
      <point x="588.889502762431" y="907.146408839779"/>
      <point x="417.9640883977901" y="839.0276243093923" type="curve" smooth="yes"/>
      <point x="372.1685082872928" y="820.4640883977901"/>
      <point x="317.4779005524862" y="803.6325966850828"/>
      <point x="269.99171270718233" y="792.3370165745856" type="curve"/>
      <point x="294.05524861878456" y="704.5883977900553" type="line"/>
      <point x="318.8729281767956" y="711.5110497237569"/>
      <point x="401.20165745856355" y="735.0386740331492"/>
      <point x="429.73756906077347" y="743.6795580110497" type="curve"/>
      <point x="669.2016574585635" y="749.9254143646409"/>
      <point x="765.4834254143647" y="621.0745856353591"/>
      <point x="765.8425414364641" y="457.1243093922652" type="curve" smooth="yes"/>
      <point x="766.560773480663" y="240.43093922651934"/>
      <point x="584.7486187845304" y="65.4475138121547"/>
      <point x="272.79834254143645" y="67.24309392265192" type="curve" smooth="yes"/>
      <point x="213.8729281767956" y="67.60220994475138"/>
      <point x="145.45027624309392" y="76.24309392265192"/>
      <point x="93.98342541436465" y="93.62430939226519" type="curve"/>
      <point x="92.01104972375691" y="4.994475138121544" type="line"/>
      <point x="143.11049723756906" y="-13.245856353591162"/>
      <point x="236.83977900552486" y="-27.613259668508288"/>
    </contour>
  </outline>
</glyph>
<glyph name="four" format="2">
  <advance width="1188.1878453038673"/>
  <unicode hex="0034"/>
  <outline>
    <contour>
      <point x="702.1988950276243" y="0.0" type="line"/>
      <point x="898.6353591160221" y="0.0" type="line"/>
      <point x="898.6353591160221" y="309.03867403314916" type="line"/>
      <point x="1145.9254143646408" y="309.03867403314916" type="line"/>
      <point x="1145.5662983425414" y="452.81767955801104" type="line"/>
      <point x="898.1353591160221" y="438.30386740331494" type="line"/>
      <point x="898.4944751381215" y="852.5911602209944" type="line"/>
      <point x="710.0883977900553" y="836.646408839779" type="line"/>
      <point x="702.4033149171271" y="425.8232044198895" type="line"/>
      <point x="185.53867403314916" y="391.4281767955801" type="line"/>
      <point x="342.3508287292817" y="617.4447513812155" type="line"/>
      <point x="775.4254143646409" y="1405.2624309392265" type="line"/>
      <point x="618.6795580110497" y="1490.2265193370165" type="line"/>
      <point x="547.2486187845304" y="1490.2265193370165" type="line"/>
      <point x="402.5055248618784" y="1166.0883977900553"/>
      <point x="238.33977900552486" y="749.5441988950276"/>
      <point x="39.372928176795575" y="403.8314917127072" type="curve"/>
      <point x="89.0939226519337" y="309.03867403314916" type="line"/>
      <point x="702.1988950276243" y="309.03867403314916" type="line"/>
    </contour>
  </outline>
</glyph>
<glyph name="five" format="2">
  <advance width="1129.4558011049724"/>
  <unicode hex="0035"/>
  <outline>
    <contour>
      <point x="132.03314917127074" y="71.70718232044199" type="curve"/>
      <point x="132.89226519337018" y="-10.668508287292818" type="line"/>
      <point x="183.46408839779005" y="-25.26795580110497"/>
      <point x="248.67955801104972" y="-28.535911602209943"/>
      <point x="295.8149171270718" y="-28.113259668508288" type="curve" smooth="yes"/>
      <point x="737.853591160221" y="-26.281767955801104"/>
      <point x="1016.5220994475138" y="239.5718232044199"/>
      <point x="1016.5220994475138" y="540.317679558011" type="curve" smooth="yes"/>
      <point x="1016.5220994475138" y="779.0165745856353"/>
      <point x="876.7182320441989" y="933.3950276243094"/>
      <point x="606.9502762430939" y="933.3950276243094" type="curve" smooth="yes"/>
      <point x="472.61049723756906" y="933.3950276243094"/>
      <point x="318.3618784530387" y="874.0193370165746"/>
      <point x="234.55248618784532" y="804.4558011049724" type="curve"/>
      <point x="349.7900552486188" y="1310.2154696132598" type="line"/>
      <point x="942.2099447513812" y="1310.2154696132598" type="line"/>
      <point x="976.9364640883978" y="1524.0" type="line"/>
      <point x="861.3591160220994" y="1524.0" type="line"/>
      <point x="840.232044198895" y="1485.6408839779006" type="line"/>
      <point x="222.72375690607737" y="1485.6408839779006" type="line"/>
      <point x="126.01933701657458" y="760.5110497237569" type="line"/>
      <point x="185.07734806629833" y="722.0662983425415" type="line"/>
      <point x="266.10497237569064" y="764.4889502762431"/>
      <point x="380.2099447513812" y="799.1491712707183"/>
      <point x="487.8425414364641" y="799.1491712707183" type="curve" smooth="yes"/>
      <point x="679.3397790055249" y="799.1491712707183"/>
      <point x="786.7182320441989" y="689.389502762431"/>
      <point x="786.7182320441989" y="498.20165745856355" type="curve" smooth="yes"/>
      <point x="786.7182320441989" y="243.25414364640883"/>
      <point x="555.8149171270718" y="64.98895027624309"/>
      <point x="264.3618784530387" y="63.72099447513812" type="curve" smooth="yes"/>
      <point x="218.75414364640883" y="63.15745856353591"/>
      <point x="170.47790055248618" y="66.22099447513811"/>
    </contour>
  </outline>
</glyph>
<glyph name="six" format="2">
  <advance width="1206.6657458563536"/>
  <unicode hex="0036"/>
  <outline>
    <contour>
      <point x="602.2983425414365" y="-28.395027624309392" type="curve" smooth="yes"/>
      <point x="926.6022099447514" y="-28.75414364640884"/>
      <point x="1119.486187845304" y="213.5718232044199"/>
      <point x="1119.486187845304" y="505.3370165745856" type="curve" smooth="yes"/>
      <point x="1119.486187845304" y="791.8729281767955"/>
      <point x="952.0911602209944" y="967.9834254143647"/>
      <point x="690.439226519337" y="967.9834254143647" type="curve" smooth="yes"/>
      <point x="547.9116022099447" y="967.9834254143647"/>
      <point x="421.060773480663" y="901.2099447513813"/>
      <point x="344.8149171270718" y="792.6132596685082" type="curve"/>
      <point x="402.8425414364641" y="1091.4198895027625"/>
      <point x="572.7900552486187" y="1373.3066298342542"/>
      <point x="929.146408839779" y="1486.5994475138123" type="curve"/>
      <point x="893.1381215469613" y="1557.207182320442" type="line"/>
      <point x="441.1022099447514" y="1479.2403314917126"/>
      <point x="97.74309392265194" y="1065.0165745856355"/>
      <point x="97.74309392265194" y="597.9419889502763" type="curve" smooth="yes"/>
      <point x="97.74309392265194" y="269.2486187845304"/>
      <point x="264.5773480662983" y="-28.035911602209943"/>
    </contour>
    <contour>
      <point x="634.0" y="860.9281767955802" type="curve" smooth="yes"/>
      <point x="806.0939226519337" y="860.5690607734807"/>
      <point x="893.2458563535912" y="701.7817679558011"/>
      <point x="893.2458563535912" y="459.621546961326" type="curve" smooth="yes"/>
      <point x="893.2458563535912" y="247.45303867403317"/>
      <point x="808.7983425414365" y="48.12154696132596"/>
      <point x="612.7486187845304" y="48.12154696132596" type="curve" smooth="yes"/>
      <point x="398.08839779005524" y="48.12154696132596"/>
      <point x="326.20165745856355" y="317.439226519337"/>
      <point x="326.20165745856355" y="547.5745856353591" type="curve" smooth="yes"/>
      <point x="326.20165745856355" y="625.8977900552486"/>
      <point x="328.4060773480663" y="675.3701657458564"/>
      <point x="330.9696132596685" y="700.5552486187845" type="curve"/>
      <point x="375.74309392265195" y="768.1436464088398"/>
      <point x="481.90055248618785" y="861.2872928176796"/>
    </contour>
  </outline>
</glyph>
<glyph name="seven" format="2">
  <advance width="1106.6546961325967"/>
  <unicode hex="0037"/>
  <outline>
    <contour>
      <point x="575.9116022099447" y="-1.4364640883977904" type="line"/>
      <point x="1062.5718232044198" y="1436.5055248618785" type="line"/>
      <point x="1022.7955801104972" y="1486.0" type="line"/>
      <point x="111.81767955801104" y="1486.0" type="line"/>
      <point x="66.0414364640884" y="1087.9419889502763" type="line"/>
      <point x="154.91160220994476" y="1070.9972375690609" type="line"/>
      <point x="235.6878453038674" y="1319.0331491712707" type="line"/>
      <point x="913.5635359116022" y="1325.3149171270718" type="line"/>
      <point x="732.0635359116022" y="893.9558011049724"/>
      <point x="533.1049723756906" y="443.46685082872926"/>
      <point x="323.6629834254144" y="0.0" type="curve"/>
    </contour>
  </outline>
</glyph>
<glyph name="eight" format="2">
  <advance width="1205.9585635359115"/>
  <unicode hex="0038"/>
  <outline>
    <contour>
      <point x="92.81491712707182" y="358.7817679558011" type="curve" smooth="yes"/>
      <point x="92.81491712707182" y="111.22375690607734"/>
      <point x="311.34806629834253" y="-19.12707182320442"/>
      <point x="592.6657458563536" y="-19.12707182320442" type="curve" smooth="yes"/>
      <point x="873.7486187845303" y="-19.12707182320442"/>
      <point x="1113.1436464088397" y="138.1767955801105"/>
      <point x="1113.1436464088397" y="393.4944751381215" type="curve" smooth="yes"/>
      <point x="1113.1436464088397" y="590.8066298342542"/>
      <point x="949.6160220994475" y="698.3839779005525"/>
      <point x="757.1988950276243" y="795.6602209944751" type="curve"/>
      <point x="946.317679558011" y="884.1436464088398"/>
      <point x="1053.8812154696132" y="1028.3093922651933"/>
      <point x="1053.8812154696132" y="1180.1546961325967" type="curve" smooth="yes"/>
      <point x="1053.8812154696132" y="1372.353591160221"/>
      <point x="886.2872928176796" y="1504.5635359116022"/>
      <point x="623.743093922652" y="1504.5635359116022" type="curve" smooth="yes"/>
      <point x="384.68232044198896" y="1504.5635359116022"/>
      <point x="161.04696132596686" y="1374.7596685082872"/>
      <point x="161.04696132596686" y="1126.110497237569" type="curve" smooth="yes"/>
      <point x="161.04696132596686" y="940.4088397790056"/>
      <point x="286.1988950276243" y="823.9834254143647"/>
      <point x="428.61602209944755" y="738.6795580110497" type="curve"/>
      <point x="209.6961325966851" y="667.0966850828729"/>
      <point x="92.81491712707182" y="507.31767955801104"/>
    </contour>
    <contour>
      <point x="347.1795580110497" y="1188.9668508287293" type="curve" smooth="yes"/>
      <point x="347.1795580110497" y="1342.2182320441989"/>
      <point x="463.05801104972375" y="1432.3922651933701"/>
      <point x="615.2016574585635" y="1432.3922651933701" type="curve" smooth="yes"/>
      <point x="784.6850828729282" y="1432.3922651933701"/>
      <point x="880.4779005524862" y="1311.3729281767955"/>
      <point x="880.4779005524862" y="1144.085635359116" type="curve" smooth="yes"/>
      <point x="880.4779005524862" y="1016.8204419889503"/>
      <point x="809.0441988950276" y="894.0690607734806"/>
      <point x="689.8591160220994" y="831.1049723756906" type="curve"/>
      <point x="497.05248618784526" y="931.8287292817679"/>
      <point x="347.1795580110497" y="1021.9889502762431"/>
    </contour>
    <contour>
      <point x="903.5662983425415" y="322.9337016574586" type="curve" smooth="yes"/>
      <point x="903.5662983425415" y="161.1685082872928"/>
      <point x="763.2596685082873" y="57.98066298342541"/>
      <point x="609.5165745856353" y="57.98066298342541" type="curve" smooth="yes"/>
      <point x="393.30939226519337" y="57.98066298342541"/>
      <point x="283.1132596685083" y="204.3674033149171"/>
      <point x="283.1132596685083" y="392.81767955801104" type="curve" smooth="yes"/>
      <point x="283.1132596685083" y="521.1408839779006"/>
      <point x="368.024861878453" y="646.939226519337"/>
      <point x="497.2790055248619" y="702.6712707182321" type="curve"/>
      <point x="709.6022099447514" y="591.256906077348"/>
      <point x="903.5662983425415" y="507.24309392265195"/>
    </contour>
  </outline>
</glyph>
<glyph name="nine" format="2">
  <advance width="1216.0828729281768"/>
  <unicode hex="0039"/>
  <outline>
    <contour>
      <point x="607.671270718232" y="1504.5635359116022" type="curve" smooth="yes"/>
      <point x="291.1685082872928" y="1504.5635359116022"/>
      <point x="87.17955801104974" y="1280.5994475138123"/>
      <point x="87.17955801104974" y="970.9502762430939" type="curve" smooth="yes"/>
      <point x="87.17955801104974" y="677.1740331491712"/>
      <point x="283.5552486187845" y="496.0552486187845"/>
      <point x="531.4337016574585" y="496.0552486187845" type="curve" smooth="yes"/>
      <point x="667.8204419889503" y="496.0552486187845"/>
      <point x="795.9806629834254" y="562.5193370165746"/>
      <point x="867.8591160220994" y="673.6795580110497" type="curve"/>
      <point x="814.5497237569061" y="368.06906077348066"/>
      <point x="634.1160220994475" y="107.56353591160222"/>
      <point x="293.9281767955801" y="-4.941988950276244" type="curve"/>
      <point x="329.3729281767956" y="-75.26795580110497" type="line"/>
      <point x="768.0469613259669" y="-2.07458563535911"/>
      <point x="1118.3397790055249" y="391.6022099447514"/>
      <point x="1118.3397790055249" y="894.6878453038674" type="curve" smooth="yes"/>
      <point x="1118.3397790055249" y="1225.5276243093922"/>
      <point x="953.9806629834254" y="1504.5635359116022"/>
    </contour>
    <contour>
      <point x="585.292817679558" y="603.9558011049724" type="curve" smooth="yes"/>
      <point x="417.085635359116" y="604.3149171270718"/>
      <point x="315.91988950276243" y="764.4834254143647"/>
      <point x="315.91988950276243" y="1013.6436464088398" type="curve" smooth="yes"/>
      <point x="315.91988950276243" y="1228.024861878453"/>
      <point x="404.81767955801104" y="1428.7513812154696"/>
      <point x="595.9530386740331" y="1428.7513812154696" type="curve" smooth="yes"/>
      <point x="833.5276243093923" y="1428.7513812154696"/>
      <point x="887.5994475138122" y="1147.6436464088397"/>
      <point x="887.1767955801105" y="899.3397790055249" type="curve" smooth="yes"/>
      <point x="887.1767955801105" y="846.0994475138122"/>
      <point x="884.6906077348067" y="794.3453038674033"/>
      <point x="881.9861878453039" y="766.0193370165746" type="curve"/>
      <point x="835.3950276243094" y="692.3314917127071"/>
      <point x="721.9834254143647" y="603.5966850828729"/>
    </contour>
  </outline>
</glyph>
<glyph name="greater" format="2">
  <advance width="1328.0"/>
  <unicode hex="003E"/>
  <outline>
    <contour>
      <point x="1169.0" y="590.232044198895" type="line"/>
      <point x="1169.0" y="681.267955801105" type="line"/>
      <point x="223.0" y="1155.0" type="line"/>
      <point x="223.0" y="1022.3839779005525" type="line"/>
      <point x="1020.7265193370166" y="636.5" type="line"/>
      <point x="223.0" y="253.4889502762431" type="line"/>
      <point x="223.0" y="120.0" type="line"/>
    </contour>
  </outline>
</glyph>
<glyph name="at" format="2">
  <advance width="2041.524861878453"/>
  <unicode hex="0040"/>
  <outline>
    <contour>
      <point x="144.97237569060775" y="353.82872928176795" type="curve" smooth="yes"/>
      <point x="144.97237569060775" y="-183.66298342541435"/>
      <point x="443.8646408839779" y="-506.1988950276243"/>
      <point x="895.1381215469613" y="-506.1988950276243" type="curve" smooth="yes"/>
      <point x="1087.5745856353592" y="-506.1988950276243"/>
      <point x="1270.7237569060774" y="-446.5303867403315"/>
      <point x="1371.9005524861877" y="-362.22651933701655" type="curve"/>
      <point x="1345.2734806629835" y="-298.75414364640886" type="line"/>
      <point x="1253.096685082873" y="-366.34530386740335"/>
      <point x="1078.6546961325967" y="-413.0414364640884"/>
      <point x="927.9723756906077" y="-413.0414364640884" type="curve" smooth="yes"/>
      <point x="557.1767955801105" y="-413.0414364640884"/>
      <point x="284.8922651933702" y="-119.48618784530387"/>
      <point x="284.8922651933702" y="384.3232044198895" type="curve" smooth="yes"/>
      <point x="284.8922651933702" y="990.4889502762431"/>
      <point x="669.1767955801105" y="1418.1685082872928"/>
      <point x="1141.9834254143645" y="1418.1685082872928" type="curve" smooth="yes"/>
      <point x="1479.5552486187846" y="1418.1685082872928"/>
      <point x="1797.0220994475137" y="1217.7182320441989"/>
      <point x="1797.0220994475137" y="741.646408839779" type="curve" smooth="yes"/>
      <point x="1797.0220994475137" y="339.6795580110497"/>
      <point x="1555.3370165745855" y="101.89226519337016"/>
      <point x="1422.1160220994475" y="101.89226519337016" type="curve" smooth="yes"/>
      <point x="1383.2292817679559" y="101.89226519337016"/>
      <point x="1358.7154696132598" y="155.20165745856355"/>
      <point x="1369.6160220994475" y="317.61049723756906" type="curve" smooth="yes"/>
      <point x="1381.0165745856352" y="518.232044198895"/>
      <point x="1442.4972375690609" y="828.0248618784531"/>
      <point x="1475.0607734806629" y="973.621546961326" type="curve"/>
      <point x="1404.0497237569061" y="998.1298342541436"/>
      <point x="1381.0552486187846" y="1007.243093922652"/>
      <point x="1357.828729281768" y="1012.1657458563536" type="curve" smooth="yes"/>
      <point x="1336.2154696132598" y="1016.243093922652"/>
      <point x="1322.9116022099447" y="997.6519337016574"/>
      <point x="1311.707182320442" y="965.0248618784531" type="curve"/>
      <point x="1242.0524861878453" y="999.1657458563536"/>
      <point x="1150.9198895027625" y="1017.243093922652"/>
      <point x="1082.6381215469614" y="1017.243093922652" type="curve" smooth="yes"/>
      <point x="765.9475138121547" y="1017.243093922652"/>
      <point x="571.4309392265193" y="649.7375690607735"/>
      <point x="571.4309392265193" y="367.34530386740335" type="curve" smooth="yes"/>
      <point x="571.4309392265193" y="127.18232044198895"/>
      <point x="708.1491712707183" y="-14.803867403314916"/>
      <point x="841.9254143646409" y="-14.803867403314916" type="curve" smooth="yes"/>
      <point x="1004.1381215469613" y="-14.803867403314916"/>
      <point x="1140.2707182320441" y="210.707182320442"/>
      <point x="1225.220994475138" y="448.11049723756906" type="curve"/>
      <point x="1204.0939226519338" y="303.1325966850829"/>
      <point x="1197.3397790055249" y="199.3314917127072"/>
      <point x="1200.3397790055249" y="148.5635359116022" type="curve" smooth="yes"/>
      <point x="1206.5580110497237" y="43.745856353591165"/>
      <point x="1277.4309392265193" y="-10.154696132596687"/>
      <point x="1351.2348066298343" y="-10.154696132596687" type="curve" smooth="yes"/>
      <point x="1540.3618784530386" y="-10.154696132596687"/>
      <point x="1917.9337016574586" y="259.67127071823205"/>
      <point x="1917.9337016574586" y="785.5580110497237" type="curve" smooth="yes"/>
      <point x="1917.9337016574586" y="1257.9779005524863"/>
      <point x="1621.792817679558" y="1516.256906077348"/>
      <point x="1203.5497237569061" y="1516.256906077348" type="curve" smooth="yes"/>
      <point x="635.8812154696133" y="1516.256906077348"/>
      <point x="144.97237569060775" y="1051.9613259668508"/>
    </contour>
    <contour>
      <point x="756.4198895027624" y="421.6022099447514" type="curve" smooth="yes"/>
      <point x="756.4198895027624" y="680.7486187845304"/>
      <point x="873.3618784530387" y="924.1988950276243"/>
      <point x="1046.7955801104972" y="924.1988950276243" type="curve" smooth="yes"/>
      <point x="1112.9696132596684" y="924.1988950276243"/>
      <point x="1222.9392265193371" y="884.0441988950276"/>
      <point x="1270.635359116022" y="841.1850828729282" type="curve"/>
      <point x="1260.5303867403316" y="772.1022099447514"/>
      <point x="1232.8812154696134" y="669.5055248618785"/>
      <point x="1206.9944751381215" y="592.8232044198895" type="curve" smooth="yes"/>
      <point x="1119.6519337016575" y="335.49723756906076"/>
      <point x="986.5635359116022" y="132.04972375690608"/>
      <point x="891.4309392265193" y="132.04972375690608" type="curve" smooth="yes"/>
      <point x="801.4254143646408" y="132.04972375690608"/>
      <point x="756.4198895027624" y="273.4088397790055"/>
    </contour>
  </outline>
</glyph>
<glyph name="A" format="2">
  <advance width="1340.2237569060774"/>
  <unicode hex="0041"/>
  <anchor x="649.0745856353591" y="0.0" name="bottom"/>
  <anchor x="1219.5" y="20.0" name="ogonek"/>
  <anchor x="676.8508287292818" y="1486.0" name="top"/>
  <outline>
    <contour>
      <point x="91.33977900552486" y="93.8121546961326" type="line"/>
      <point x="-36.914364640883974" y="67.76243093922652" type="line"/>
      <point x="-36.632596685082866" y="0.0" type="line"/>
      <point x="388.2099447513812" y="0.0" type="line"/>
      <point x="388.2099447513812" y="67.76243093922652" type="line"/>
      <point x="234.68232044198894" y="94.12154696132596" type="line"/>
      <point x="336.49723756906076" y="433.2513812154696" type="line"/>
      <point x="896.6988950276243" y="433.2513812154696" type="line"/>
      <point x="1001.2955801104972" y="93.82596685082873" type="line"/>
      <point x="851.3950276243094" y="67.76243093922652" type="line"/>
      <point x="851.3950276243094" y="0.0" type="line"/>
      <point x="1368.8259668508288" y="0.0" type="line"/>
      <point x="1368.8259668508288" y="67.76243093922652" type="line"/>
      <point x="1243.756906077348" y="93.40331491712706" type="line"/>
      <point x="783.5469613259668" y="1497.1823204419888" type="line"/>
      <point x="579.2458563535912" y="1497.1823204419888" type="line"/>
    </contour>
    <contour>
      <point x="867.4309392265194" y="524.8729281767955" type="line"/>
      <point x="364.6243093922652" y="524.8729281767955" type="line"/>
      <point x="580.5994475138122" y="1189.4779005524863" type="line"/>
      <point x="625.1049723756906" y="1338.3839779005525" type="line"/>
      <point x="665.378453038674" y="1191.7734806629835" type="line"/>
    </contour>
  </outline>
</glyph>
<glyph name="B" format="2">
  <advance width="1276.7375690607735"/>
  <unicode hex="0042"/>
  <anchor x="644.6325966850828" y="0.0" name="bottom"/>
  <anchor x="683.6160220994475" y="-166.0" name="mark0"/>
  <anchor x="644.6325966850828" y="1486.0" name="top"/>
  <outline>
    <contour>
      <point x="206.8646408839779" y="93.38950276243094" type="line"/>
      <point x="50.65469613259668" y="67.62154696132596" type="line"/>
      <point x="50.65469613259668" y="0.0" type="line"/>
      <point x="310.73204419889504" y="0.0" type="line" smooth="yes"/>
      <point x="450.78729281767954" y="0.0"/>
      <point x="503.7596685082873" y="-12.0"/>
      <point x="616.4116022099447" y="-12.0" type="curve" smooth="yes"/>
      <point x="1089.6823204419888" y="-12.0"/>
      <point x="1233.3232044198894" y="202.77348066298342"/>
      <point x="1233.3232044198894" y="442.4585635359116" type="curve" smooth="yes"/>
      <point x="1233.3232044198894" y="651.8895027624309"/>
      <point x="1072.864640883978" y="789.6906077348066"/>
      <point x="823.792817679558" y="783.9447513812155" type="curve"/>
      <point x="1015.5386740331492" y="818.5635359116022"/>
      <point x="1133.6187845303866" y="975.5469613259669"/>
      <point x="1133.6187845303866" y="1162.8729281767955" type="curve" smooth="yes"/>
      <point x="1133.6187845303866" y="1373.745856353591"/>
      <point x="980.1795580110497" y="1501.4364640883978"/>
      <point x="616.3674033149172" y="1501.4364640883978" type="curve" smooth="yes"/>
      <point x="515.8038674033149" y="1501.4364640883978"/>
      <point x="437.0414364640884" y="1486.0"/>
      <point x="315.3508287292818" y="1486.0" type="curve" smooth="yes"/>
      <point x="53.15469613259668" y="1486.0" type="line"/>
      <point x="53.15469613259668" y="1417.3922651933701" type="line"/>
      <point x="206.8646408839779" y="1389.4198895027625" type="line"/>
    </contour>
    <contour>
      <point x="423.37292817679554" y="815.1767955801105" type="curve"/>
      <point x="423.732044198895" y="1411.378453038674" type="line"/>
      <point x="460.2237569060773" y="1413.9419889502763"/>
      <point x="520.732044198895" y="1424.0331491712707"/>
      <point x="601.4447513812155" y="1424.0331491712707" type="curve" smooth="yes"/>
      <point x="823.621546961326" y="1424.0331491712707"/>
      <point x="913.6325966850828" y="1330.5193370165746"/>
      <point x="913.6325966850828" y="1138.96408839779" type="curve" smooth="yes"/>
      <point x="913.6325966850828" y="935.171270718232"/>
      <point x="824.5939226519337" y="812.6132596685082"/>
      <point x="639.3149171270718" y="812.6132596685082" type="curve" smooth="yes"/>
      <point x="588.7734806629834" y="812.6132596685082"/>
      <point x="479.060773480663" y="811.1767955801105"/>
    </contour>
    <contour>
      <point x="423.0138121546961" y="88.12154696132596" type="curve"/>
      <point x="423.37292817679554" y="721.6325966850828" type="line"/>
      <point x="477.98342541436466" y="725.4281767955802"/>
      <point x="597.5690607734806" y="725.0552486187845"/>
      <point x="666.5745856353591" y="725.0552486187845" type="curve" smooth="yes"/>
      <point x="893.1049723756906" y="725.0552486187845"/>
      <point x="994.6657458563536" y="626.7403314917127"/>
      <point x="994.6657458563536" y="417.59944751381215" type="curve" smooth="yes"/>
      <point x="994.6657458563536" y="211.38121546961327"/>
      <point x="906.7099447513813" y="68.10773480662984"/>
      <point x="619.0082872928176" y="68.10773480662984" type="curve" smooth="yes"/>
      <point x="553.3618784530387" y="68.10773480662984"/>
      <point x="469.9696132596685" y="72.74861878453038"/>
    </contour>
  </outline>
</glyph>
<glyph name="D" format="2">
  <advance width="1439.610497237569"/>
  <unicode hex="0044"/>
  <anchor x="725.2624309392265" y="0.0" name="bottom"/>
  <anchor x="725.2624309392265" y="744.0" name="center"/>
  <anchor x="756.1077348066299" y="-166.0" name="mark0"/>
  <anchor x="725.2624309392265" y="1486.0" name="top"/>
  <outline>
    <contour>
      <point x="203.49171270718233" y="94.0939226519337" type="line"/>
      <point x="50.65469613259668" y="67.62154696132596" type="line"/>
      <point x="50.65469613259668" y="0.0" type="line"/>
      <point x="306.2292817679558" y="0.0" type="line" smooth="yes"/>
      <point x="390.6933701657459" y="0.0"/>
      <point x="532.9060773480663" y="-14.936464088397791"/>
      <point x="639.5883977900553" y="-16.359116022099446" type="curve" smooth="yes"/>
      <point x="1081.7845303867402" y="-22.76795580110497"/>
      <point x="1376.5414364640883" y="304.9171270718232"/>
      <point x="1376.5414364640883" y="788.6132596685082" type="curve" smooth="yes"/>
      <point x="1376.5414364640883" y="1206.135359116022"/>
      <point x="1172.3453038674033" y="1499.3591160220994"/>
      <point x="656.4005524861878" y="1499.3591160220994" type="curve" smooth="yes"/>
      <point x="538.9917127071823" y="1499.3591160220994"/>
      <point x="412.8508287292818" y="1486.0"/>
      <point x="303.24309392265195" y="1486.0" type="curve" smooth="yes"/>
      <point x="56.668508287292816" y="1486.0" type="line"/>
      <point x="56.668508287292816" y="1417.5331491712707" type="line"/>
      <point x="203.49171270718233" y="1389.560773480663" type="line"/>
    </contour>
    <contour>
      <point x="419.4226519337017" y="89.12154696132596" type="curve"/>
      <point x="419.4226519337016" y="1404.2513812154696" type="line"/>
      <point x="451.3370165745856" y="1406.2513812154696"/>
      <point x="529.7348066298342" y="1418.8922651933701"/>
      <point x="610.1546961325967" y="1418.8922651933701" type="curve" smooth="yes"/>
      <point x="972.3425414364641" y="1418.8922651933701"/>
      <point x="1144.7983425414366" y="1185.8176795580112"/>
      <point x="1144.7983425414366" y="754.8232044198895" type="curve" smooth="yes"/>
      <point x="1144.7983425414366" y="316.9060773480663"/>
      <point x="948.0939226519338" y="68.51657458563535"/>
      <point x="634.5331491712707" y="65.8121546961326" type="curve" smooth="yes"/>
      <point x="564.3314917127071" y="64.95303867403315"/>
      <point x="480.8922651933701" y="71.96685082872928"/>
    </contour>
  </outline>
</glyph>
<glyph name="G" format="2">
  <advance width="1401.5690607734807"/>
  <unicode hex="0047"/>
  <anchor x="701.5883977900553" y="0.0" name="bottom"/>
  <anchor x="724.5165745856353" y="-166.0" name="mark0"/>
  <anchor x="761.5883977900553" y="1486.0" name="top"/>
  <outline>
    <contour>
      <point x="713.2348066298342" y="-21.281767955801104" type="curve" smooth="yes"/>
      <point x="1003.878453038674" y="-21.281767955801104"/>
      <point x="1135.8922651933701" y="76.56353591160222"/>
      <point x="1261.9088397790056" y="80.0" type="curve"/>
      <point x="1261.9088397790056" y="622.1187845303867" type="line"/>
      <point x="1375.4558011049724" y="642.0552486187845" type="line"/>
      <point x="1375.4558011049724" y="732.2955801104972" type="line"/>
      <point x="813.3729281767955" y="732.2955801104972" type="line"/>
      <point x="813.3729281767955" y="642.0552486187845" type="line"/>
      <point x="1051.8314917127072" y="621.414364640884" type="line"/>
      <point x="1051.8314917127072" y="154.91160220994473" type="line"/>
      <point x="980.2016574585635" y="98.90331491712706"/>
      <point x="864.9226519337017" y="58.18508287292818"/>
      <point x="741.7983425414365" y="58.18508287292818" type="curve" smooth="yes"/>
      <point x="400.4226519337017" y="58.18508287292818"/>
      <point x="289.88397790055245" y="401.878453038674"/>
      <point x="290.16574585635357" y="759.7955801104972" type="curve" smooth="yes"/>
      <point x="290.4475138121547" y="1189.7900552486187"/>
      <point x="460.37016574585635" y="1423.364640883978"/>
      <point x="772.732044198895" y="1423.364640883978" type="curve" smooth="yes"/>
      <point x="926.7182320441989" y="1423.364640883978"/>
      <point x="1014.0662983425415" y="1380.9696132596684"/>
      <point x="1042.0718232044198" y="1348.8839779005525" type="curve"/>
      <point x="1088.889502762431" y="1086.3038674033148" type="line"/>
      <point x="1224.7099447513813" y="1086.3038674033148" type="line"/>
      <point x="1246.6906077348067" y="1439.2817679558011" type="line"/>
      <point x="1160.3618784530386" y="1447.2817679558011"/>
      <point x="1009.2845303867402" y="1503.1270718232045"/>
      <point x="774.3674033149172" y="1503.1270718232045" type="curve" smooth="yes"/>
      <point x="334.3011049723757" y="1503.1270718232045"/>
      <point x="44.668508287292816" y="1206.6988950276243"/>
      <point x="44.668508287292816" y="724.0994475138122" type="curve" smooth="yes"/>
      <point x="44.668508287292816" y="305.9779005524862"/>
      <point x="265.76795580110496" y="-21.281767955801104"/>
    </contour>
  </outline>
</glyph>
<glyph name="I" format="2">
  <advance width="644.8729281767955"/>
  <unicode hex="0049"/>
  <anchor x="322.30939226519337" y="0.0" name="bottom"/>
  <anchor x="324.30939226519337" y="-166.0" name="mark0"/>
  <anchor x="587.6795580110497" y="20.0" name="ogonek"/>
  <anchor x="322.30939226519337" y="1486.0" name="top"/>
  <anchor x="13.65745856353591" y="1486.0" name="topleft"/>
  <outline>
    <contour>
      <point x="212.3646408839779" y="93.24861878453038" type="line"/>
      <point x="51.93646408839779" y="67.76243093922652" type="line"/>
      <point x="51.93646408839779" y="0.0" type="line"/>
      <point x="593.2182320441989" y="0.0" type="line"/>
      <point x="593.2182320441989" y="66.76243093922652" type="line"/>
      <point x="429.3453038674033" y="93.10773480662984" type="line"/>
      <point x="429.3453038674033" y="1389.560773480663" type="line"/>
      <point x="593.0773480662983" y="1417.5331491712707" type="line"/>
      <point x="593.0773480662983" y="1486.0" type="line"/>
      <point x="51.79558011049724" y="1486.0" type="line"/>
      <point x="51.79558011049724" y="1417.5331491712707" type="line"/>
      <point x="212.3646408839779" y="1389.560773480663" type="line"/>
    </contour>
  </outline>
</glyph>
<glyph name="J" format="2">
  <advance width="653.5248618784531"/>
  <unicode hex="004A"/>
  <anchor x="233.0552486187845" y="-166.0" name="mark0"/>
  <anchor x="325.3646408839779" y="1486.0" name="top"/>
  <outline>
    <contour>
      <point x="-54.450276243093924" y="-291.1629834254144" type="curve"/>
      <point x="-7.491712707182323" y="-357.5524861878453" type="line"/>
      <point x="194.939226519337" y="-324.00276243093924"/>
      <point x="372.51104972375686" y="-181.9585635359116"/>
      <point x="420.7237569060773" y="36.90055248618785" type="curve" smooth="yes"/>
      <point x="445.146408839779" y="152.1657458563536"/>
      <point x="442.90055248618785" y="321.3425414364641"/>
      <point x="442.90055248618785" y="523.4254143646409" type="curve" smooth="yes"/>
      <point x="442.90055248618785" y="1388.9834254143645" type="line"/>
      <point x="605.5055248618785" y="1417.5331491712707" type="line"/>
      <point x="605.5055248618785" y="1486.0" type="line"/>
      <point x="61.11878453038674" y="1486.0" type="line"/>
      <point x="61.11878453038674" y="1417.5331491712707" type="line"/>
      <point x="227.8425414364641" y="1388.7016574585634" type="line"/>
      <point x="227.8425414364641" y="462.04419889502765" type="line" smooth="yes"/>
      <point x="227.8425414364641" y="188.55801104972377"/>
      <point x="220.74309392265195" y="75.853591160221"/>
      <point x="189.43370165745858" y="-28.56629834254143" type="curve" smooth="yes"/>
      <point x="147.17955801104972" y="-169.41160220994476"/>
      <point x="57.350828729281766" y="-257.47237569060775"/>
    </contour>
  </outline>
</glyph>
<glyph name="L" format="2">
  <advance width="1172.767955801105"/>
  <unicode hex="004C"/>
  <anchor x="642.4254143646409" y="0.0" name="bottom"/>
  <anchor x="634.2541436464089" y="744.0" name="center"/>
  <anchor x="680.5359116022099" y="-166.0" name="mark0"/>
  <anchor x="374.6795580110497" y="1486.0" name="top"/>
  <anchor x="930.5414364640884" y="1110.2817679558011" name="topright"/>
  <outline>
    <contour>
      <point x="211.91988950276243" y="93.95303867403314" type="line"/>
      <point x="59.223756906077355" y="67.62154696132596" type="line"/>
      <point x="59.223756906077355" y="0.0" type="line"/>
      <point x="1082.5580110497237" y="0.0" type="line"/>
      <point x="1154.7265193370165" y="432.62430939226516" type="line"/>
      <point x="1046.4309392265193" y="451.3011049723757" type="line"/>
      <point x="918.0" y="117.47513812154696" type="line"/>
      <point x="428.8370165745856" y="90.26243093922652" type="line"/>
      <point x="429.19613259668506" y="1389.560773480663" type="line"/>
      <point x="607.9281767955802" y="1417.5331491712707" type="line"/>
      <point x="607.9281767955802" y="1486.0" type="line"/>
      <point x="61.44198895027625" y="1486.0" type="line"/>
      <point x="61.44198895027625" y="1417.5331491712707" type="line"/>
      <point x="211.91988950276243" y="1389.560773480663" type="line"/>
    </contour>
  </outline>
</glyph>
<glyph name="M" format="2">
  <advance width="1906.6132596685084"/>
  <unicode hex="004D"/>
  <anchor x="967.0828729281768" y="0.0" name="bottom"/>
  <anchor x="920.6519337016575" y="-166.0" name="mark0"/>
  <anchor x="954.8977900552486" y="1486.0" name="top"/>
  <outline>
    <contour>
      <point x="162.38397790055248" y="90.45303867403314" type="line"/>
      <point x="2.5110497237569085" y="67.48066298342542" type="line"/>
      <point x="2.5110497237569085" y="0.0" type="line"/>
      <point x="476.914364640884" y="0.0" type="line"/>
      <point x="476.914364640884" y="67.48066298342542" type="line"/>
      <point x="291.90055248618785" y="90.5939226519337" type="line"/>
      <point x="388.4281767955801" y="1020.2265193370166" type="line"/>
      <point x="429.03314917127074" y="1402.707182320442" type="line"/>
      <point x="536.3259668508288" y="1025.3812154696132" type="line"/>
      <point x="821.2513812154697" y="67.77348066298343" type="line"/>
      <point x="983.1961325966851" y="67.77348066298343" type="line"/>
      <point x="1286.6878453038673" y="1077.8839779005525" type="line"/>
      <point x="1373.657458563536" y="1402.5662983425414" type="line"/>
      <point x="1411.5939226519338" y="1019.9447513812155" type="line"/>
      <point x="1506.635359116022" y="90.73480662983425" type="line"/>
      <point x="1332.975138121547" y="67.76243093922652" type="line"/>
      <point x="1332.975138121547" y="0.0" type="line"/>
      <point x="1897.4806629834254" y="0.0" type="line"/>
      <point x="1897.4806629834254" y="67.48066298342542" type="line"/>
      <point x="1733.3204419889503" y="92.3121546961326" type="line"/>
      <point x="1571.9972375690609" y="1388.2651933701657" type="line"/>
      <point x="1760.9198895027623" y="1418.0331491712707" type="line"/>
      <point x="1760.9198895027623" y="1486.0" type="line"/>
      <point x="1282.6988950276243" y="1486.0" type="line"/>
      <point x="1022.5082872928176" y="568.3397790055249" type="line"/>
      <point x="954.0745856353591" y="275.9944751381215" type="line"/>
      <point x="882.0635359116022" y="567.7762430939226" type="line"/>
      <point x="624.682320441989" y="1486.0" type="line"/>
      <point x="134.21546961325967" y="1486.0" type="line"/>
      <point x="134.21546961325967" y="1418.0331491712707" type="line"/>
      <point x="329.7707182320442" y="1388.2651933701657" type="line"/>
    </contour>
  </outline>
</glyph>
<glyph name="N" format="2">
  <advance width="1461.853591160221"/>
  <unicode hex="004E"/>
  <anchor x="770.5331491712707" y="0.0" name="bottom"/>
  <anchor x="798.9585635359116" y="-166.0" name="mark0"/>
  <anchor x="794.7596685082873" y="1486.0" name="top"/>
  <outline>
    <contour>
      <point x="198.6961325966851" y="97.06629834254143" type="line"/>
      <point x="40.86464088397789" y="67.48066298342542" type="line"/>
      <point x="40.86464088397789" y="0.0" type="line"/>
      <point x="487.84806629834253" y="0.0" type="line"/>
      <point x="487.84806629834253" y="67.48066298342542" type="line"/>
      <point x="313.5359116022099" y="96.48895027624309" type="line"/>
      <point x="305.55801104972375" y="1280.8259668508288" type="line"/>
      <point x="437.02762430939225" y="1054.0883977900553" type="line"/>
      <point x="1119.0276243093922" y="0.0" type="line"/>
      <point x="1281.3204419889503" y="0.0" type="line"/>
      <point x="1288.1436464088397" y="1386.524861878453" type="line"/>
      <point x="1443.256906077348" y="1417.5331491712707" type="line"/>
      <point x="1443.256906077348" y="1486.0" type="line"/>
      <point x="1010.0773480662983" y="1486.0" type="line"/>
      <point x="1010.0773480662983" y="1417.5331491712707" type="line"/>
      <point x="1173.5220994475137" y="1386.524861878453" type="line"/>
      <point x="1180.486187845304" y="253.27624309392263" type="line"/>
      <point x="1057.135359116022" y="483.26795580110496" type="line"/>
      <point x="409.7651933701657" y="1486.0" type="line"/>
      <point x="48.110497237569064" y="1486.0" type="line"/>
      <point x="48.110497237569064" y="1414.9972375690609" type="line"/>
      <point x="102.95580110497238" y="1407.624309392265"/>
      <point x="175.5828729281768" y="1372.1629834254143"/>
      <point x="204.3646408839779" y="1351.6049723756905" type="curve"/>
    </contour>
  </outline>
</glyph>
<glyph name="P" format="2">
  <advance width="1224.2016574585634"/>
  <unicode hex="0050"/>
  <anchor x="425.35911602209944" y="0.0" name="bottom"/>
  <anchor x="500.3425414364641" y="-166.0" name="mark0"/>
  <anchor x="646.9944751381215" y="1486.0" name="top"/>
  <outline>
    <contour>
      <point x="202.99171270718233" y="93.60773480662984" type="line"/>
      <point x="50.65469613259668" y="67.62154696132596" type="line"/>
      <point x="50.65469613259668" y="0.0" type="line"/>
      <point x="653.146408839779" y="0.0" type="line"/>
      <point x="653.146408839779" y="67.76243093922652" type="line"/>
      <point x="419.8453038674033" y="94.18508287292818" type="line"/>
      <point x="419.98618784530385" y="582.3591160220994" type="line"/>
      <point x="444.8867403314917" y="577.8453038674033"/>
      <point x="551.4033149171271" y="572.267955801105"/>
      <point x="609.121546961326" y="572.6270718232045" type="curve" smooth="yes"/>
      <point x="964.4060773480663" y="576.2182320441989"/>
      <point x="1174.0055248618785" y="753.6132596685082"/>
      <point x="1174.0055248618785" y="1068.524861878453" type="curve" smooth="yes"/>
      <point x="1174.0055248618785" y="1335.3729281767955"/>
      <point x="1044.743093922652" y="1500.1546961325967"/>
      <point x="648.7265193370166" y="1499.8729281767955" type="curve" smooth="yes"/>
      <point x="505.85911602209944" y="1500.013812154696"/>
      <point x="430.99723756906076" y="1486.0"/>
      <point x="315.2182320441989" y="1486.0" type="curve" smooth="yes"/>
      <point x="56.309392265193374" y="1486.0" type="line"/>
      <point x="56.309392265193374" y="1417.5331491712707" type="line"/>
      <point x="202.99171270718233" y="1389.560773480663" type="line"/>
    </contour>
    <contour>
      <point x="419.70441988950273" y="668.2624309392265" type="curve"/>
      <point x="419.70441988950273" y="1406.4419889502763" type="line"/>
      <point x="463.2734806629834" y="1407.8508287292818"/>
      <point x="536.6767955801105" y="1420.9558011049724"/>
      <point x="612.2458563535912" y="1420.9558011049724" type="curve" smooth="yes"/>
      <point x="862.828729281768" y="1420.9558011049724"/>
      <point x="944.8204419889503" y="1298.0939226519338"/>
      <point x="944.8204419889503" y="1066.5524861878453" type="curve" smooth="yes"/>
      <point x="944.8204419889503" y="771.1077348066299"/>
      <point x="814.4917127071823" y="657.4668508287293"/>
      <point x="601.5635359116022" y="653.8756906077348" type="curve" smooth="yes"/>
      <point x="528.8895027624309" y="653.1574585635359"/>
      <point x="458.146408839779" y="659.389502762431"/>
    </contour>
  </outline>
</glyph>
<glyph name="Q" format="2">
  <advance width="1399.3701657458564"/>
  <unicode hex="0051"/>
  <anchor x="704.3342541436464" y="0.0" name="bottom"/>
  <anchor x="703.7624309392265" y="729.0" name="center"/>
  <anchor x="790.7983425414365" y="16.408839779005525" name="ogonek"/>
  <anchor x="702.9254143646409" y="1486.0" name="top"/>
  <anchor x="20.953038674033145" y="1486.0" name="topleft"/>
  <anchor x="1189.903314917127" y="1486.0" name="topright"/>
  <outline>
    <contour>
      <point x="1332.0165745856355" y="-370.1988950276243" type="curve" smooth="yes"/>
      <point x="1392.364640883978" y="-370.1988950276243"/>
      <point x="1466.3232044198894" y="-346.5359116022099"/>
      <point x="1512.1270718232045" y="-292.87016574585635" type="curve"/>
      <point x="1490.3867403314916" y="-219.6353591160221" type="line"/>
      <point x="1470.9696132596684" y="-222.3121546961326"/>
      <point x="1446.1132596685084" y="-223.04419889502762"/>
      <point x="1405.5303867403316" y="-214.16850828729284" type="curve"/>
      <point x="1207.03591160221" y="-209.2375690607735"/>
      <point x="1088.4281767955802" y="5.767955801104972"/>
      <point x="828.0386740331492" y="26.331491712707184" type="curve"/>
      <point x="735.853591160221" y="-0.01381215469613295" type="line"/>
      <point x="975.0138121546961" y="-49.58563535911602"/>
      <point x="1053.767955801105" y="-370.1988950276243"/>
    </contour>
    <component base="O"/>
  </outline>
</glyph>
<glyph name="S" format="2">
  <advance width="1125.403314917127"/>
  <unicode hex="0053"/>
  <anchor x="554.4281767955802" y="0.0" name="bottom"/>
  <anchor x="614.4281767955802" y="1486.0" name="top"/>
  <outline>
    <contour>
      <point x="544.8701657458563" y="-22.0" type="curve" smooth="yes"/>
      <point x="922.7900552486187" y="-22.0"/>
      <point x="1062.9116022099447" y="208.41160220994476"/>
      <point x="1062.9116022099447" y="400.8204419889503" type="curve" smooth="yes"/>
      <point x="1062.9116022099447" y="657.0303867403314"/>
      <point x="833.6657458563536" y="758.4337016574585"/>
      <point x="647.4502762430939" y="847.7707182320441" type="curve" smooth="yes"/>
      <point x="445.4806629834254" y="944.2209944751381"/>
      <point x="300.40055248618785" y="1014.1160220994475"/>
      <point x="300.40055248618785" y="1180.0580110497237" type="curve" smooth="yes"/>
      <point x="300.40055248618785" y="1331.2099447513813"/>
      <point x="403.1077348066298" y="1422.2237569060774"/>
      <point x="590.9779005524862" y="1422.5055248618785" type="curve" smooth="yes"/>
      <point x="706.9116022099447" y="1422.646408839779"/>
      <point x="785.6077348066299" y="1384.1823204419888"/>
      <point x="810.2265193370166" y="1359.7596685082874" type="curve"/>
      <point x="854.1491712707183" y="1111.0386740331492" type="line"/>
      <point x="970.4309392265193" y="1111.0386740331492" type="line"/>
      <point x="986.939226519337" y="1431.1270718232045" type="line"/>
      <point x="935.4033149171271" y="1436.1270718232045"/>
      <point x="805.5414364640884" y="1502.8453038674033"/>
      <point x="595.3701657458563" y="1502.8453038674033" type="curve" smooth="yes"/>
      <point x="285.207182320442" y="1502.8453038674033"/>
      <point x="108.63259668508287" y="1331.0745856353592"/>
      <point x="108.63259668508287" y="1120.6657458563536" type="curve" smooth="yes"/>
      <point x="108.63259668508287" y="853.7209944751381"/>
      <point x="340.53314917127074" y="744.4723756906077"/>
      <point x="502.87016574585635" y="672.7541436464088" type="curve" smooth="yes"/>
      <point x="705.3563535911602" y="583.8591160220994"/>
      <point x="859.5801104972376" y="503.18232044198896"/>
      <point x="859.5801104972376" y="335.0662983425414" type="curve" smooth="yes"/>
      <point x="859.5801104972376" y="178.02762430939225"/>
      <point x="759.2237569060774" y="59.9171270718232"/>
      <point x="545.8259668508288" y="60.1988950276243" type="curve" smooth="yes"/>
      <point x="413.5110497237569" y="60.33977900552486"/>
      <point x="325.0193370165746" y="104.4806629834254"/>
      <point x="270.3674033149171" y="150.38121546961327" type="curve"/>
      <point x="227.83149171270716" y="412.42541436464086" type="line"/>
      <point x="106.40883977900552" y="412.42541436464086" type="line"/>
      <point x="86.18232044198895" y="68.87292817679558" type="line"/>
      <point x="149.30939226519337" y="63.15469613259668"/>
      <point x="305.9475138121547" y="-22.0"/>
    </contour>
  </outline>
</glyph>
<glyph name="T" format="2">
  <advance width="1374.9226519337017"/>
  <unicode hex="0054"/>
  <anchor x="691.3066298342542" y="0.0" name="bottom"/>
  <anchor x="691.3066298342542" y="744.0" name="center"/>
  <anchor x="691.3066298342542" y="1486.0" name="top"/>
  <outline>
    <contour>
      <point x="577.2845303867404" y="95.15745856353591" type="line"/>
      <point x="327.1022099447514" y="67.76243093922652" type="line"/>
      <point x="327.1022099447514" y="0.0" type="line"/>
      <point x="1062.1850828729282" y="0.0" type="line"/>
      <point x="1062.1850828729282" y="67.76243093922652" type="line"/>
      <point x="797.6381215469613" y="95.15745856353591" type="line"/>
      <point x="797.6381215469613" y="1406.4696132596684" type="line"/>
      <point x="1117.4558011049724" y="1390.6740331491712" type="line"/>
      <point x="1217.3397790055249" y="956.8674033149172" type="line"/>
      <point x="1332.754143646409" y="956.8674033149172" type="line"/>
      <point x="1295.7265193370165" y="1486.0" type="line"/>
      <point x="80.63259668508287" y="1486.0" type="line"/>
      <point x="42.168508287292816" y="956.8674033149172" type="line"/>
      <point x="157.3011049723757" y="956.8674033149172" type="line"/>
      <point x="259.3259668508287" y="1390.6740331491712" type="line"/>
      <point x="577.2845303867404" y="1406.4696132596684" type="line"/>
    </contour>
  </outline>
</glyph>
<glyph name="U" format="2">
  <advance width="1408.2762430939226"/>
  <unicode hex="0055"/>
  <anchor x="729.171270718232" y="0.0" name="bottom"/>
  <anchor x="752.1546961325967" y="-166.0" name="mark0"/>
  <anchor x="1319.171270718232" y="20.0" name="ogonek"/>
  <anchor x="758.1933701657458" y="1486.0" name="top"/>
  <anchor x="1427.4530386740332" y="1486.0" name="topright"/>
  <outline>
    <contour>
      <point x="747.9033149171271" y="-17.43646408839779" type="curve" smooth="yes"/>
      <point x="1040.486187845304" y="-17.43646408839779"/>
      <point x="1242.8839779005525" y="165.4972375690608"/>
      <point x="1244.6795580110497" y="599.4337016574585" type="curve" smooth="yes"/>
      <point x="1248.2707182320441" y="1389.9198895027625" type="line"/>
      <point x="1383.939226519337" y="1417.5331491712707" type="line"/>
      <point x="1383.939226519337" y="1486.0" type="line"/>
      <point x="972.5635359116022" y="1486.0" type="line"/>
      <point x="972.5635359116022" y="1417.5331491712707" type="line"/>
      <point x="1131.486187845304" y="1388.342541436464" type="line"/>
      <point x="1133.2817679558011" y="591.011049723757" type="line" smooth="yes"/>
      <point x="1134.0" y="244.64917127071823"/>
      <point x="997.4309392265193" y="63.1988950276243"/>
      <point x="762.0469613259669" y="63.1988950276243" type="curve" smooth="yes"/>
      <point x="541.853591160221" y="63.1988950276243"/>
      <point x="399.6823204419889" y="178.58839779005524"/>
      <point x="399.6823204419889" y="568.9088397790056" type="curve" smooth="yes"/>
      <point x="399.6823204419889" y="1389.4972375690609" type="line"/>
      <point x="567.0331491712707" y="1417.5331491712707" type="line"/>
      <point x="567.0331491712707" y="1486.0" type="line"/>
      <point x="33.90055248618785" y="1486.0" type="line"/>
      <point x="33.90055248618785" y="1417.5331491712707" type="line"/>
      <point x="177.98342541436463" y="1389.9198895027625" type="line"/>
      <point x="177.98342541436463" y="594.243093922652" type="line" smooth="yes"/>
      <point x="177.98342541436463" y="160.90055248618785"/>
      <point x="364.7182320441989" y="-17.43646408839779"/>
    </contour>
  </outline>
</glyph>
<glyph name="V" format="2">
  <advance width="1309.9337016574586"/>
  <unicode hex="0056"/>
  <anchor x="695.8839779005525" y="-166.0" name="mark0"/>
  <outline>
    <contour>
      <point x="-33.31767955801105" y="1418.5331491712707" type="line"/>
      <point x="91.1878453038674" y="1389.1878453038673" type="line"/>
      <point x="585.6243093922652" y="-13.60497237569061" type="line"/>
      <point x="752.4585635359116" y="-13.60497237569061" type="line"/>
      <point x="1217.7955801104972" y="1389.1878453038673" type="line"/>
      <point x="1349.9502762430939" y="1418.5331491712707" type="line"/>
      <point x="1349.9502762430939" y="1486.0" type="line"/>
      <point x="937.0386740331492" y="1486.0" type="line"/>
      <point x="937.0386740331492" y="1418.5331491712707" type="line"/>
      <point x="1087.3342541436464" y="1389.1878453038673" type="line"/>
      <point x="767.4226519337017" y="335.9254143646409" type="line"/>
      <point x="721.4447513812155" y="149.40883977900552" type="line"/>
      <point x="671.171270718232" y="334.91160220994476" type="line"/>
      <point x="327.38121546961327" y="1389.328729281768" type="line"/>
      <point x="489.83149171270713" y="1418.5331491712707" type="line"/>
      <point x="489.83149171270713" y="1486.0" type="line"/>
      <point x="-33.31767955801105" y="1486.0" type="line"/>
    </contour>
  </outline>
</glyph>
<glyph name="W" format="2">
  <advance width="1921.0939226519338"/>
  <unicode hex="0057"/>
  <anchor x="992.0110497237569" y="0.0" name="bottom"/>
  <anchor x="918.9723756906077" y="-166.0" name="mark0"/>
  <anchor x="1020.2099447513812" y="1486.0" name="top"/>
  <outline>
    <contour>
      <point x="-37.9585635359116" y="1418.8922651933701" type="line"/>
      <point x="95.29281767955801" y="1388.6878453038673" type="line"/>
      <point x="507.13535911602213" y="-10.745856353591162" type="line"/>
      <point x="687.7734806629834" y="-10.745856353591162" type="line"/>
      <point x="975.8812154696133" y="983.0441988950276" type="line"/>
      <point x="1254.975138121547" y="-10.745856353591162" type="line"/>
      <point x="1438.8950276243095" y="-10.745856353591162" type="line"/>
      <point x="1834.1022099447514" y="1389.328729281768" type="line"/>
      <point x="1958.9116022099447" y="1418.1740331491712" type="line"/>
      <point x="1958.9116022099447" y="1486.0" type="line"/>
      <point x="1526.4834254143645" y="1486.0" type="line"/>
      <point x="1526.4834254143645" y="1418.1740331491712" type="line"/>
      <point x="1711.635359116022" y="1389.328729281768" type="line"/>
      <point x="1441.9088397790056" y="352.4530386740331" type="line"/>
      <point x="1397.7265193370165" y="118.82320441988948" type="line"/>
      <point x="1349.9171270718232" y="349.939226519337" type="line"/>
      <point x="1080.232044198895" y="1393.6381215469614" type="line"/>
      <point x="1254.4972375690606" y="1418.1740331491712" type="line"/>
      <point x="1254.4972375690606" y="1486.0" type="line"/>
      <point x="720.8950276243094" y="1486.0" type="line"/>
      <point x="720.8950276243094" y="1418.1740331491712" type="line"/>
      <point x="856.610497237569" y="1393.6381215469614" type="line"/>
      <point x="923.8729281767955" y="1161.7016574585637" type="line"/>
      <point x="693.2099447513812" y="352.4530386740331" type="line"/>
      <point x="644.6049723756906" y="129.83701657458562" type="line"/>
      <point x="602.5138121546961" y="350.29834254143645" type="line"/>
      <point x="318.2734806629834" y="1389.6878453038673" type="line"/>
      <point x="485.439226519337" y="1418.5331491712707" type="line"/>
      <point x="485.439226519337" y="1486.0" type="line"/>
      <point x="-37.9585635359116" y="1486.3591160220994" type="line"/>
    </contour>
  </outline>
</glyph>
<glyph name="X" format="2">
  <advance width="1382.0580110497237"/>
  <unicode hex="0058"/>
  <anchor x="680.8839779005525" y="-166.0" name="mark0"/>
  <outline>
    <contour>
      <point x="184.32596685082873" y="91.17127071823204" type="line"/>
      <point x="19.61878453038674" y="67.76243093922652" type="line"/>
      <point x="20.337016574585636" y="0.0" type="line"/>
      <point x="513.0055248618785" y="0.0" type="line"/>
      <point x="512.2872928176796" y="67.76243093922652" type="line"/>
      <point x="324.20165745856355" y="92.24861878453038" type="line"/>
      <point x="644.5414364640884" y="650.1491712707183" type="line"/>
      <point x="970.0994475138122" y="91.45303867403314" type="line"/>
      <point x="797.2209944751381" y="67.76243093922652" type="line"/>
      <point x="797.939226519337" y="0.0" type="line"/>
      <point x="1370.0165745856355" y="0.0" type="line"/>
      <point x="1369.2983425414363" y="67.76243093922652" type="line"/>
      <point x="1222.9337016574586" y="92.5303867403315" type="line"/>
      <point x="785.8563535911602" y="786.3066298342542" type="line"/>
      <point x="1186.4585635359117" y="1390.1381215469614" type="line"/>
      <point x="1343.988950276243" y="1417.5331491712707" type="line"/>
      <point x="1343.988950276243" y="1486.0" type="line"/>
      <point x="875.1657458563536" y="1486.0" type="line"/>
      <point x="875.1657458563536" y="1417.5331491712707" type="line"/>
      <point x="1051.5193370165746" y="1390.060773480663" type="line"/>
      <point x="736.4751381215469" y="856.110497237569" type="line"/>
      <point x="426.7127071823204" y="1389.8563535911603" type="line"/>
      <point x="601.6685082872928" y="1417.5331491712707" type="line"/>
      <point x="601.6685082872928" y="1486.0" type="line"/>
      <point x="33.05524861878453" y="1486.0" type="line"/>
      <point x="33.05524861878453" y="1417.5331491712707" type="line"/>
      <point x="176.18784530386742" y="1389.060773480663" type="line"/>
      <point x="592.6602209944751" y="724.3756906077348" type="line"/>
    </contour>
  </outline>
</glyph>
<glyph name="Z" format="2">
  <advance width="1276.0303867403316"/>
  <unicode hex="005A"/>
  <anchor x="640.6906077348066" y="0.0" name="bottom"/>
  <anchor x="654.9447513812155" y="-166.0" name="mark0"/>
  <anchor x="673.0276243093923" y="1486.0" name="top"/>
  <outline>
    <contour>
      <point x="827.8425414364641" y="1248.767955801105" type="line"/>
      <point x="53.99723756906078" y="60.290055248618785" type="line"/>
      <point x="91.6878453038674" y="0.0" type="line"/>
      <point x="1164.7237569060774" y="0.0" type="line"/>
      <point x="1216.1878453038673" y="422.84806629834253" type="line"/>
      <point x="1103.9696132596684" y="446.8066298342541" type="line"/>
      <point x="988.1160220994475" y="122.83977900552486" type="line"/>
      <point x="298.3867403314917" y="81.71270718232044" type="line"/>
      <point x="430.56906077348066" y="250.1961325966851" type="line"/>
      <point x="1195.914364640884" y="1429.0828729281768" type="line"/>
      <point x="1161.9917127071824" y="1488.8591160220994" type="line"/>
      <point x="186.3121546961326" y="1488.8591160220994" type="line"/>
      <point x="146.56629834254144" y="1114.8839779005525" type="line"/>
      <point x="255.8977900552486" y="1100.657458563536" type="line"/>
      <point x="358.99723756906076" y="1385.2375690607735" type="line"/>
      <point x="953.2790055248619" y="1408.4917127071824" type="line"/>
    </contour>
  </outline>
</glyph>
<glyph name="bracketleft" format="2">
  <advance width="805.2099447513812"/>
  <unicode hex="005B"/>
  <outline>
    <contour>
      <point x="180.80939226519337" y="1436.403314917127" type="curve"/>
      <point x="180.80939226519337" y="-102.40331491712708" type="line" smooth="yes"/>
      <point x="180.80939226519337" y="-246.46408839779005"/>
      <point x="235.17955801104972" y="-274.0"/>
      <point x="360.73204419889504" y="-274.0" type="curve" smooth="yes"/>
      <point x="453.8038674033149" y="-274.0"/>
      <point x="535.4668508287293" y="-257.1546961325967"/>
      <point x="615.7486187845303" y="-236.87292817679557" type="curve"/>
      <point x="615.7486187845303" y="-174.8011049723757" type="line"/>
      <point x="355.24585635359114" y="-174.8011049723757" type="line"/>
      <point x="355.24585635359114" y="1510.8011049723757" type="line"/>
      <point x="615.7486187845303" y="1510.8011049723757" type="line"/>
      <point x="615.7486187845303" y="1572.3093922651933" type="line"/>
      <point x="539.7762430939226" y="1589.1546961325967"/>
      <point x="458.39502762430936" y="1608.0"/>
      <point x="360.73204419889504" y="1608.0" type="curve" smooth="yes"/>
      <point x="235.17955801104972" y="1608.0"/>
      <point x="180.80939226519337" y="1580.46408839779"/>
    </contour>
  </outline>
</glyph>
<glyph name="backslash" format="2">
  <advance width="792.2513812154696"/>
  <unicode hex="005C"/>
  <outline>
    <contour>
      <point x="405.8232044198895" y="604.0" type="line"/>
      <point x="404.69613259668506" y="604.0" type="line"/>
      <point x="364.1022099447514" y="604.0" type="line"/>
      <point x="364.6657458563536" y="604.0" type="line"/>
    </contour>
  </outline>
</glyph>
<glyph name="bracketright" format="2">
  <advance width="805.2099447513812"/>
  <unicode hex="005D"/>
  <outline>
    <contour>
      <point x="626.3729281767955" y="1436.403314917127" type="line"/>
      <point x="626.3729281767955" y="1580.46408839779"/>
      <point x="572.0027624309392" y="1608.0"/>
      <point x="446.4502762430939" y="1608.0" type="curve" smooth="yes"/>
      <point x="348.78729281767954" y="1608.0"/>
      <point x="267.40607734806633" y="1589.1546961325967"/>
      <point x="191.43370165745858" y="1572.3093922651933" type="curve"/>
      <point x="191.43370165745858" y="1510.8011049723757" type="line"/>
      <point x="451.93646408839777" y="1510.8011049723757" type="line"/>
      <point x="451.93646408839777" y="-174.8011049723757" type="line"/>
      <point x="191.43370165745858" y="-174.8011049723757" type="line"/>
      <point x="191.43370165745858" y="-236.87292817679557" type="line"/>
      <point x="271.71546961325964" y="-257.1546961325967"/>
      <point x="353.378453038674" y="-274.0"/>
      <point x="446.4502762430939" y="-274.0" type="curve" smooth="yes"/>
      <point x="572.0027624309392" y="-274.0"/>
      <point x="626.3729281767955" y="-246.46408839779005"/>
      <point x="626.3729281767955" y="-102.40331491712708" type="curve" smooth="yes"/>
    </contour>
  </outline>
</glyph>
<glyph name="a" format="2">
  <advance width="991.0220994475138"/>
  <unicode hex="0061"/>
  <anchor x="470.9060773480663" y="0.0" name="bottom"/>
  <anchor x="783.9944751381215" y="20.0" name="ogonek"/>
  <anchor x="490.3922651933701" y="1110.1408839779006" name="top"/>
  <outline>
    <contour>
      <point x="32.82320441988951" y="274.33977900552486" type="curve" smooth="yes"/>
      <point x="32.82320441988951" y="76.88950276243094"/>
      <point x="175.9696132596685" y="-19.26795580110497"/>
      <point x="337.5911602209945" y="-19.26795580110497" type="curve" smooth="yes"/>
      <point x="496.3232044198895" y="-19.26795580110497"/>
      <point x="618.110497237569" y="95.15193370165746"/>
      <point x="660.328729281768" y="151.83701657458565" type="curve"/>
      <point x="660.328729281768" y="69.38121546961325" type="line" smooth="yes"/>
      <point x="660.328729281768" y="-2.986187845303868"/>
      <point x="693.4281767955802" y="-18.26795580110497"/>
      <point x="763.4171270718232" y="-18.26795580110497" type="curve" smooth="yes"/>
      <point x="833.9972375690608" y="-18.26795580110497"/>
      <point x="914.4944751381215" y="-0.14088397790055263"/>
      <point x="958.0580110497237" y="11.87292817679558" type="curve"/>
      <point x="958.0580110497237" y="73.12154696132596" type="line"/>
      <point x="850.6657458563536" y="75.93922651933701" type="line"/>
      <point x="850.6657458563536" y="712.5552486187845" type="line" smooth="yes"/>
      <point x="850.6657458563536" y="970.4585635359116"/>
      <point x="756.1270718232045" y="1085.0635359116022"/>
      <point x="506.67403314917124" y="1085.0635359116022" type="curve" smooth="yes"/>
      <point x="313.00828729281767" y="1085.0635359116022"/>
      <point x="135.64088397790056" y="987.3729281767955"/>
      <point x="84.0414364640884" y="947.3370165745856" type="curve"/>
      <point x="124.33149171270718" y="867.4254143646409" type="line"/>
      <point x="189.65469613259668" y="903.9944751381215"/>
      <point x="307.3370165745856" y="954.8950276243094"/>
      <point x="449.6325966850829" y="954.8950276243094" type="curve" smooth="yes"/>
      <point x="610.243093922652" y="954.8950276243094"/>
      <point x="651.2651933701658" y="864.0883977900553"/>
      <point x="651.2651933701658" y="712.7265193370166" type="curve" smooth="yes"/>
      <point x="651.2651933701658" y="630.2127071823204" type="line"/>
      <point x="362.8977900552486" y="627.6353591160221"/>
      <point x="32.82320441988951" y="532.5994475138122"/>
    </contour>
    <contour>
      <point x="422.5718232044199" y="101.31491712707182" type="curve" smooth="yes"/>
      <point x="323.25690607734805" y="101.31491712707182"/>
      <point x="246.5552486187845" y="169.72375690607734"/>
      <point x="246.5552486187845" y="299.3977900552486" type="curve" smooth="yes"/>
      <point x="246.5552486187845" y="452.43646408839777"/>
      <point x="400.9060773480663" y="550.5911602209944"/>
      <point x="651.2651933701658" y="551.5911602209944" type="curve"/>
      <point x="651.2651933701658" y="210.07734806629833" type="line"/>
      <point x="587.1491712707183" y="151.24861878453038"/>
      <point x="502.21546961325964" y="101.31491712707182"/>
    </contour>
  </outline>
</glyph>
<glyph name="b" format="2">
  <advance width="1117.8812154696132"/>
  <unicode hex="0062"/>
  <anchor x="503.0552486187845" y="-0.8453038674033146" name="bottom"/>
  <anchor x="528.8232044198895" y="-166.0" name="mark0"/>
  <anchor x="705.6519337016574" y="1110.2817679558011" name="top"/>
  <outline>
    <contour>
      <point x="-10.682320441988951" y="1533.085635359116" type="line"/>
      <point x="135.56906077348066" y="1509.3729281767955" type="line"/>
      <point x="135.56906077348066" y="54.0" type="line"/>
      <point x="165.72375690607734" y="39.30939226519337"/>
      <point x="316.44198895027625" y="-22.0"/>
      <point x="530.4502762430939" y="-22.0" type="curve" smooth="yes"/>
      <point x="841.1546961325967" y="-22.0"/>
      <point x="1062.1629834254143" y="229.59668508287294"/>
      <point x="1062.1629834254143" y="567.6961325966851" type="curve" smooth="yes"/>
      <point x="1062.1629834254143" y="919.4861878453039"/>
      <point x="890.1574585635359" y="1089.8453038674033"/>
      <point x="651.4309392265193" y="1089.8453038674033" type="curve" smooth="yes"/>
      <point x="495.41988950276243" y="1089.8453038674033"/>
      <point x="383.060773480663" y="998.3397790055249"/>
      <point x="335.5193370165746" y="939.5580110497237" type="curve"/>
      <point x="335.5193370165746" y="1611.1602209944751" type="line"/>
      <point x="300.08011049723757" y="1637.5773480662983" type="line"/>
      <point x="277.64364640883974" y="1637.5773480662983" type="line"/>
      <point x="-10.682320441988951" y="1591.0524861878453" type="line"/>
    </contour>
    <contour>
      <point x="575.5441988950276" y="974.9806629834254" type="curve" smooth="yes"/>
      <point x="721.9834254143647" y="974.9806629834254"/>
      <point x="841.4585635359116" y="848.8149171270718"/>
      <point x="839.2403314917127" y="540.1381215469613" type="curve" smooth="yes"/>
      <point x="837.0220994475138" y="227.95027624309392"/>
      <point x="724.2872928176796" y="58.36740331491713"/>
      <point x="528.1325966850828" y="58.36740331491713" type="curve" smooth="yes"/>
      <point x="435.7209944751381" y="58.36740331491713"/>
      <point x="357.6878453038674" y="92.57734806629834"/>
      <point x="335.5193370165746" y="132.01381215469613" type="curve"/>
      <point x="335.5193370165746" y="858.0276243093923" type="line"/>
      <point x="374.53867403314916" y="901.4060773480663"/>
      <point x="460.0552486187845" y="974.9806629834254"/>
    </contour>
  </outline>
</glyph>
<glyph name="c" format="2">
  <advance width="934.6657458563536"/>
  <unicode hex="0063"/>
  <anchor x="516.7016574585635" y="0.0" name="bottom"/>
  <anchor x="553.0939226519337" y="-166.0" name="mark0"/>
  <anchor x="560.3591160220994" y="1110.1408839779006" name="top"/>
  <outline>
    <contour>
      <point x="49.0414364640884" y="517.6408839779006" type="curve" smooth="yes"/>
      <point x="49.75966850828729" y="204.21823204419888"/>
      <point x="213.51933701657458" y="-22.0"/>
      <point x="525.0082872928177" y="-22.0" type="curve" smooth="yes"/>
      <point x="670.0966850828729" y="-22.0"/>
      <point x="814.8729281767955" y="48.22099447513812"/>
      <point x="879.7375690607735" y="115.05801104972376" type="curve"/>
      <point x="849.8563535911602" y="176.20165745856352" type="line"/>
      <point x="792.5745856353591" y="134.98342541436463"/>
      <point x="687.7099447513812" y="91.91436464088397"/>
      <point x="579.5994475138122" y="91.91436464088397" type="curve" smooth="yes"/>
      <point x="393.25138121546956" y="91.91436464088397"/>
      <point x="269.4226519337016" y="253.95303867403314"/>
      <point x="270.28176795580106" y="565.1491712707182" type="curve" smooth="yes"/>
      <point x="271.28176795580106" y="857.6298342541436"/>
      <point x="394.72651933701655" y="1008.7651933701658"/>
      <point x="552.6436464088398" y="1008.7651933701658" type="curve" smooth="yes"/>
      <point x="640.9060773480663" y="1008.7651933701658"/>
      <point x="694.8342541436464" y="969.5828729281768"/>
      <point x="702.1657458563536" y="936.1160220994475" type="curve" smooth="yes"/>
      <point x="744.8563535911602" y="740.2486187845304" type="line"/>
      <point x="861.5966850828729" y="740.2486187845304" type="line"/>
      <point x="870.646408839779" y="1028.3729281767955" type="line"/>
      <point x="820.4475138121547" y="1041.900552486188"/>
      <point x="715.5414364640884" y="1089.9226519337017"/>
      <point x="583.4861878453039" y="1089.9226519337017" type="curve" smooth="yes"/>
      <point x="250.8038674033149" y="1089.9226519337017"/>
      <point x="48.32320441988951" y="837.6160220994475"/>
    </contour>
  </outline>
</glyph>
<glyph name="e" format="2">
  <advance width="978.4005524861878"/>
  <unicode hex="0065"/>
  <anchor x="495.5939226519337" y="-8.881784197001252e-16" name="bottom"/>
  <anchor x="534.6602209944751" y="-166.0" name="mark0"/>
  <anchor x="645.0580110497237" y="20.0" name="ogonek"/>
  <anchor x="537.5939226519337" y="1110.2817679558011" name="top"/>
  <outline>
    <contour>
      <point x="528.1933701657458" y="-22.281767955801104" type="curve" smooth="yes"/>
      <point x="679.7458563535912" y="-22.281767955801104"/>
      <point x="832.121546961326" y="47.016574585635354"/>
      <point x="901.4723756906077" y="118.05801104972376" type="curve"/>
      <point x="870.8867403314918" y="183.93370165745856" type="line"/>
      <point x="811.0911602209944" y="135.5331491712707"/>
      <point x="692.0635359116022" y="90.75966850828729"/>
      <point x="584.889502762431" y="90.75966850828729" type="curve" smooth="yes"/>
      <point x="369.0911602209945" y="90.75966850828729"/>
      <point x="270.78176795580106" y="283.02486187845307"/>
      <point x="267.40055248618785" y="532.3701657458564" type="curve"/>
      <point x="918.6049723756906" y="532.3701657458564" type="line"/>
      <point x="927.3093922651933" y="571.1519337016574"/>
      <point x="931.5138121546961" y="622.7237569060774"/>
      <point x="931.1546961325967" y="705.5773480662983" type="curve"/>
      <point x="925.2182320441989" y="953.5138121546961"/>
      <point x="782.0414364640884" y="1089.9226519337017"/>
      <point x="540.9889502762431" y="1089.9226519337017" type="curve" smooth="yes"/>
      <point x="271.3922651933702" y="1089.9226519337017"/>
      <point x="48.47790055248619" y="873.767955801105"/>
      <point x="48.47790055248619" y="521.9364640883978" type="curve" smooth="yes"/>
      <point x="48.47790055248619" y="194.5"/>
      <point x="211.61049723756906" y="-22.281767955801104"/>
    </contour>
    <contour>
      <point x="267.91436464088395" y="607.2872928176796" type="line"/>
      <point x="276.63259668508283" y="866.2790055248619"/>
      <point x="366.84806629834253" y="1007.8646408839779"/>
      <point x="521.3756906077348" y="1007.8646408839779" type="curve" smooth="yes"/>
      <point x="666.011049723757" y="1007.8646408839779"/>
      <point x="721.7541436464088" y="891.6270718232045"/>
      <point x="722.4723756906077" y="710.3950276243094" type="curve" smooth="yes"/>
      <point x="722.4723756906077" y="688.8591160220994"/>
      <point x="721.1906077348067" y="645.5690607734807"/>
      <point x="717.817679558011" y="616.7099447513813" type="curve"/>
    </contour>
  </outline>
</glyph>
<glyph name="g" format="2">
  <advance width="1114.7762430939226"/>
  <unicode hex="0067"/>
  <anchor x="556.7154696132596" y="0.0" name="bottom"/>
  <anchor x="565.743093922652" y="1110.6408839779006" name="top"/>
  <outline>
    <contour>
      <point x="489.5193370165746" y="-505.69060773480663" type="curve"/>
      <point x="824.7513812154696" y="-505.69060773480663"/>
      <point x="1073.1795580110497" y="-346.6132596685083"/>
      <point x="1073.1795580110497" y="-101.8646408839779" type="curve" smooth="yes"/>
      <point x="1073.1795580110497" y="45.696132596685075"/>
      <point x="966.4364640883978" y="142.74585635359117"/>
      <point x="733.4972375690608" y="142.74585635359117" type="curve" smooth="yes"/>
      <point x="486.50828729281767" y="142.74585635359117" type="line" smooth="yes"/>
      <point x="344.646408839779" y="142.74585635359117"/>
      <point x="293.8922651933702" y="172.54143646408838"/>
      <point x="290.66022099447514" y="258.41988950276243" type="curve" smooth="yes"/>
      <point x="287.4281767955801" y="314.9171270718232"/>
      <point x="323.00276243093924" y="351.93646408839777"/>
      <point x="356.4171270718232" y="378.7458563535912" type="curve"/>
      <point x="400.9171270718232" y="369.6685082872928"/>
      <point x="456.939226519337" y="363.8729281767956"/>
      <point x="510.62983425414365" y="363.8729281767956" type="curve" smooth="yes"/>
      <point x="752.2624309392265" y="363.8729281767956"/>
      <point x="948.121546961326" y="510.02762430939225"/>
      <point x="947.9806629834254" y="739.7458563535912" type="curve" smooth="yes"/>
      <point x="947.9806629834254" y="819.889502762431"/>
      <point x="924.5524861878453" y="888.9033149171271"/>
      <point x="901.0110497237569" y="920.5082872928177" type="curve"/>
      <point x="1091.8397790055249" y="920.8674033149172" type="line"/>
      <point x="1092.1988950276243" y="1082.2403314917126" type="line"/>
      <point x="1039.2127071823204" y="1082.2403314917126" type="line" smooth="yes"/>
      <point x="956.6767955801105" y="1082.2403314917126"/>
      <point x="873.1436464088398" y="1029.8591160220994"/>
      <point x="850.1850828729282" y="988.2458563535912" type="curve"/>
      <point x="782.0220994475138" y="1050.754143646409"/>
      <point x="684.1325966850828" y="1087.9502762430939"/>
      <point x="539.6160220994475" y="1087.9502762430939" type="curve" smooth="yes"/>
      <point x="312.64640883977904" y="1087.9502762430939"/>
      <point x="101.13812154696133" y="953.0138121546961"/>
      <point x="101.13812154696133" y="720.9861878453039" type="curve" smooth="yes"/>
      <point x="101.13812154696133" y="575.1408839779006"/>
      <point x="154.646408839779" y="465.28729281767954"/>
      <point x="298.93646408839777" y="400.3232044198895" type="curve"/>
      <point x="212.03314917127074" y="360.78729281767954"/>
      <point x="138.5414364640884" y="282.146408839779"/>
      <point x="138.5414364640884" y="182.90055248618785" type="curve" smooth="yes"/>
      <point x="138.5414364640884" y="101.10497237569061"/>
      <point x="173.85082872928177" y="47.66022099447514"/>
      <point x="237.87292817679557" y="14.870165745856358" type="curve"/>
      <point x="129.11049723756906" y="-19.734806629834253"/>
      <point x="36.97790055248619" y="-109.99447513812154"/>
      <point x="36.97790055248619" y="-227.31767955801104" type="curve" smooth="yes"/>
      <point x="36.97790055248619" y="-416.42541436464086"/>
      <point x="232.96132596685084" y="-505.69060773480663"/>
    </contour>
    <contour>
      <point x="515.4640883977901" y="-421.5966850828729" type="curve"/>
      <point x="343.4171270718232" y="-421.45580110497235"/>
      <point x="226.29005524861878" y="-342.5193370165746"/>
      <point x="226.29005524861878" y="-191.09668508287294" type="curve" smooth="yes"/>
      <point x="226.29005524861878" y="-101.52209944751381"/>
      <point x="261.6685082872928" y="-45.06629834254143"/>
      <point x="304.7292817679558" y="-8.229281767955797" type="curve"/>
      <point x="348.5524861878453" y="-16.370165745856347"/>
      <point x="421.3204419889503" y="-20.63812154696132"/>
      <point x="484.6574585635359" y="-20.63812154696132" type="curve"/>
      <point x="676.9640883977901" y="-20.63812154696132" type="line" smooth="yes"/>
      <point x="840.9751381215469" y="-20.63812154696132"/>
      <point x="881.7513812154696" y="-82.24861878453038"/>
      <point x="881.7513812154696" y="-172.4254143646409" type="curve" smooth="yes"/>
      <point x="881.7513812154696" y="-325.2486187845304"/>
      <point x="723.0718232044198" y="-421.878453038674"/>
    </contour>
    <contour>
      <point x="522.756906077348" y="443.6491712707182" type="curve" smooth="yes"/>
      <point x="375.6491712707182" y="443.6491712707182"/>
      <point x="307.5745856353591" y="564.267955801105"/>
      <point x="307.5745856353591" y="731.7044198895028" type="curve" smooth="yes"/>
      <point x="307.5745856353591" y="925.0055248618785"/>
      <point x="395.5635359116022" y="1009.0193370165746"/>
      <point x="531.0524861878453" y="1009.0193370165746" type="curve"/>
      <point x="664.9779005524862" y="1009.0193370165746"/>
      <point x="741.9530386740331" y="908.3149171270718"/>
      <point x="741.9530386740331" y="729.0911602209944" type="curve" smooth="yes"/>
      <point x="741.9530386740331" y="544.0"/>
      <point x="669.3646408839779" y="443.6491712707182"/>
    </contour>
  </outline>
</glyph>
<glyph name="h" format="2">
  <advance width="1201.3729281767955"/>
  <unicode hex="0068"/>
  <anchor x="612.2790055248619" y="0.0" name="bottom"/>
  <anchor x="622.7486187845304" y="556.0" name="center"/>
  <anchor x="234.32872928176795" y="1600.3093922651933" name="top"/>
  <outline>
    <contour>
      <point x="169.13812154696134" y="91.24861878453038" type="line"/>
      <point x="46.63259668508287" y="67.76243093922652" type="line"/>
      <point x="46.63259668508287" y="0.0" type="line"/>
      <point x="497.5662983425414" y="0.0" type="line"/>
      <point x="497.5662983425414" y="67.76243093922652" type="line"/>
      <point x="371.7651933701657" y="92.10773480662984" type="line"/>
      <point x="371.7651933701657" y="841.1685082872929" type="line"/>
      <point x="449.0359116022099" y="902.1795580110497"/>
      <point x="546.2513812154696" y="951.1850828729282"/>
      <point x="656.0718232044198" y="951.1850828729282" type="curve" smooth="yes"/>
      <point x="815.2348066298342" y="951.1850828729282"/>
      <point x="841.0801104972376" y="845.414364640884"/>
      <point x="841.0801104972376" y="652.4254143646409" type="curve" smooth="yes"/>
      <point x="841.0801104972376" y="91.74861878453038" type="line"/>
      <point x="722.7237569060774" y="67.76243093922652" type="line"/>
      <point x="722.7237569060774" y="0.0" type="line"/>
      <point x="1171.2265193370165" y="0.0" type="line"/>
      <point x="1171.2265193370165" y="67.76243093922652" type="line"/>
      <point x="1044.220994475138" y="91.74861878453038" type="line"/>
      <point x="1044.220994475138" y="654.3618784530387" type="line" smooth="yes"/>
      <point x="1044.220994475138" y="935.8204419889503"/>
      <point x="980.1629834254144" y="1081.6132596685084"/>
      <point x="741.8756906077348" y="1081.6132596685084" type="curve" smooth="yes"/>
      <point x="581.3397790055249" y="1081.6132596685084"/>
      <point x="436.524861878453" y="984.4447513812155"/>
      <point x="364.58839779005524" y="905.5082872928176" type="curve"/>
      <point x="370.6381215469613" y="1072.4723756906078" type="line"/>
      <point x="370.49723756906076" y="1611.4558011049724" type="line"/>
      <point x="334.05801104972375" y="1637.5773480662983" type="line"/>
      <point x="311.621546961326" y="1637.5773480662983" type="line"/>
      <point x="20.591160220994475" y="1591.0524861878453" type="line"/>
      <point x="20.591160220994475" y="1532.2403314917128" type="line"/>
      <point x="169.13812154696134" y="1508.5276243093922" type="line"/>
    </contour>
  </outline>
</glyph>
<glyph name="k" format="2">
  <advance width="1127.8563535911603"/>
  <unicode hex="006B"/>
  <anchor x="639.3066298342542" y="0.0" name="bottom"/>
  <anchor x="623.7872928176796" y="-166.0" name="mark0"/>
  <anchor x="608.4502762430939" y="1584.0" name="top"/>
  <outline>
    <contour>
      <point x="163.1878453038674" y="91.96685082872928" type="line"/>
      <point x="40.914364640883974" y="67.62154696132596" type="line"/>
      <point x="40.914364640883974" y="0.0" type="line"/>
      <point x="496.01657458563534" y="0.0" type="line"/>
      <point x="496.01657458563534" y="67.48066298342542" type="line"/>
      <point x="363.82872928176795" y="91.96685082872928" type="line"/>
      <point x="363.82872928176795" y="259.09944751381215" type="line"/>
      <point x="356.8922651933701" y="356.38121546961327" type="line"/>
      <point x="542.5773480662983" y="551.939226519337" type="line"/>
      <point x="811.8232044198895" y="91.96685082872928" type="line"/>
      <point x="693.4309392265193" y="67.76243093922652" type="line"/>
      <point x="694.4171270718232" y="0.0" type="line"/>
      <point x="1163.364640883978" y="0.0" type="line"/>
      <point x="1163.364640883978" y="68.48066298342542" type="line"/>
      <point x="1046.3453038674033" y="91.10773480662984" type="line"/>
      <point x="678.939226519337" y="680.8508287292817" type="line"/>
      <point x="944.5801104972376" y="962.3011049723757" type="line"/>
      <point x="1080.0607734806629" y="991.5193370165746" type="line"/>
      <point x="1080.0607734806629" y="1057.5" type="line"/>
      <point x="650.9779005524862" y="1057.5" type="line"/>
      <point x="650.9779005524862" y="991.5193370165746" type="line"/>
      <point x="798.7955801104972" y="962.3646408839779" type="line"/>
      <point x="357.8922651933701" y="473.5524861878453" type="line"/>
      <point x="363.9696132596685" y="618.3425414364641" type="line"/>
      <point x="363.9696132596685" y="1611.3149171270718" type="line"/>
      <point x="328.5303867403315" y="1637.5773480662983" type="line"/>
      <point x="306.8121546961326" y="1637.5773480662983" type="line"/>
      <point x="20.732044198895025" y="1591.0524861878453" type="line"/>
      <point x="20.732044198895025" y="1532.2403314917128" type="line"/>
      <point x="163.1878453038674" y="1508.5276243093922" type="line"/>
    </contour>
  </outline>
</glyph>
<glyph name="m" format="2">
  <advance width="1844.4447513812154"/>
  <unicode hex="006D"/>
  <anchor x="932.5883977900553" y="0.0" name="bottom"/>
  <anchor x="929.2790055248619" y="1110.2817679558011" name="top"/>
  <outline>
    <contour>
      <point x="56.10497237569061" y="0.0" type="line"/>
      <point x="502.22928176795574" y="0.0" type="line"/>
      <point x="502.22928176795574" y="67.76243093922652" type="line"/>
      <point x="379.0055248618784" y="92.10773480662984" type="line"/>
      <point x="379.0055248618784" y="841.1685082872929" type="line"/>
      <point x="455.27624309392263" y="902.4751381215469"/>
      <point x="551.1325966850828" y="951.1850828729282"/>
      <point x="660.7348066298342" y="951.1850828729282" type="curve" smooth="yes"/>
      <point x="817.4751381215469" y="951.1850828729282"/>
      <point x="840.6519337016575" y="845.682320441989"/>
      <point x="840.6519337016575" y="652.4254143646409" type="curve" smooth="yes"/>
      <point x="840.6519337016575" y="92.10773480662984" type="line"/>
      <point x="719.8314917127072" y="67.76243093922652" type="line"/>
      <point x="719.8314917127072" y="0.0" type="line"/>
      <point x="1171.0939226519338" y="0.0" type="line"/>
      <point x="1171.0939226519338" y="67.76243093922652" type="line"/>
      <point x="1044.4198895027623" y="92.10773480662984" type="line"/>
      <point x="1044.7790055248618" y="659.292817679558" type="line" smooth="yes"/>
      <point x="1044.7790055248618" y="731.6988950276243"/>
      <point x="1041.5745856353592" y="805.8093922651934"/>
      <point x="1030.624309392265" y="853.0055248618785" type="curve"/>
      <point x="1098.9944751381215" y="907.9116022099447"/>
      <point x="1189.6049723756905" y="951.9033149171271"/>
      <point x="1295.7845303867402" y="951.9033149171271" type="curve" smooth="yes"/>
      <point x="1456.975138121547" y="951.9033149171271"/>
      <point x="1485.8839779005525" y="843.2458563535912"/>
      <point x="1485.8839779005525" y="650.0027624309392" type="curve" smooth="yes"/>
      <point x="1485.8839779005525" y="91.96685082872928" type="line"/>
      <point x="1369.0635359116022" y="67.76243093922652" type="line"/>
      <point x="1369.0635359116022" y="0.0" type="line"/>
      <point x="1816.8121546961327" y="0.0" type="line"/>
      <point x="1816.8121546961327" y="67.76243093922652" type="line"/>
      <point x="1689.011049723757" y="91.96685082872928" type="line"/>
      <point x="1689.011049723757" y="655.939226519337" type="line" smooth="yes"/>
      <point x="1689.011049723757" y="936.5110497237569"/>
      <point x="1621.867403314917" y="1081.6132596685084"/>
      <point x="1384.4613259668508" y="1081.6132596685084" type="curve" smooth="yes"/>
      <point x="1232.243093922652" y="1081.6132596685084"/>
      <point x="1085.5193370165746" y="990.9806629834254"/>
      <point x="1012.9198895027624" y="912.4861878453039" type="curve"/>
      <point x="970.9834254143647" y="1026.4088397790056"/>
      <point x="889.8425414364641" y="1081.6132596685084"/>
      <point x="745.0883977900553" y="1081.6132596685084" type="curve" smooth="yes"/>
      <point x="596.5828729281768" y="1081.6132596685084"/>
      <point x="445.378453038674" y="987.121546961326"/>
      <point x="366.4696132596685" y="902.8812154696133" type="curve"/>
      <point x="367.32872928176795" y="1013.3259668508288" type="line"/>
      <point x="348.1353591160221" y="1064.5939226519338" type="line"/>
      <point x="305.03867403314916" y="1076.085635359116" type="line"/>
      <point x="42.34530386740332" y="1023.6602209944751" type="line"/>
      <point x="42.34530386740332" y="954.0303867403316" type="line"/>
      <point x="175.16022099447514" y="917.4171270718232" type="line"/>
      <point x="175.16022099447514" y="92.10773480662984" type="line"/>
      <point x="56.10497237569061" y="67.76243093922652" type="line"/>
    </contour>
  </outline>
</glyph>
<glyph name="n" format="2">
  <advance width="1207.0718232044198"/>
  <unicode hex="006E"/>
  <anchor x="627.389502762431" y="0.0" name="bottom"/>
  <anchor x="639.5" y="-166.0" name="mark0"/>
  <anchor x="597.3618784530387" y="1110.2817679558011" name="top"/>
  <outline>
    <contour>
      <point x="172.646408839779" y="92.10773480662984" type="line"/>
      <point x="50.73204419889503" y="67.76243093922652" type="line"/>
      <point x="50.73204419889503" y="0.0" type="line"/>
      <point x="501.29281767955797" y="0.0" type="line"/>
      <point x="501.29281767955797" y="67.76243093922652" type="line"/>
      <point x="376.4917127071823" y="92.10773480662984" type="line"/>
      <point x="376.4917127071823" y="840.3093922651934" type="line"/>
      <point x="452.621546961326" y="901.0524861878453"/>
      <point x="546.7375690607735" y="952.621546961326"/>
      <point x="660.7983425414365" y="952.621546961326" type="curve" smooth="yes"/>
      <point x="817.5386740331492" y="952.621546961326"/>
      <point x="847.4834254143647" y="847.1187845303867"/>
      <point x="847.4834254143647" y="653.8618784530387" type="curve" smooth="yes"/>
      <point x="847.4834254143647" y="91.24861878453038" type="line"/>
      <point x="730.3950276243094" y="67.76243093922652" type="line"/>
      <point x="730.3950276243094" y="0.0" type="line"/>
      <point x="1177.207182320442" y="0.0" type="line"/>
      <point x="1177.207182320442" y="67.90331491712706" type="line"/>
      <point x="1051.610497237569" y="91.24861878453038" type="line"/>
      <point x="1051.610497237569" y="656.9254143646409" type="line" smooth="yes"/>
      <point x="1051.610497237569" y="937.6243093922652"/>
      <point x="984.4944751381215" y="1083.0497237569061"/>
      <point x="746.7292817679557" y="1083.0497237569061" type="curve" smooth="yes"/>
      <point x="588.0248618784531" y="1083.0497237569061"/>
      <point x="442.0193370165746" y="985.7127071823204"/>
      <point x="363.95580110497235" y="902.8812154696133" type="curve"/>
      <point x="365.5193370165746" y="966.767955801105" type="line"/>
      <point x="365.5193370165746" y="1048.1685082872928" type="line"/>
      <point x="330.9116022099447" y="1076.085635359116" type="line"/>
      <point x="302.524861878453" y="1076.085635359116" type="line"/>
      <point x="39.83149171270718" y="1023.6602209944751" type="line"/>
      <point x="39.83149171270718" y="954.0303867403316" type="line"/>
      <point x="172.646408839779" y="917.4171270718232" type="line"/>
    </contour>
  </outline>
</glyph>
<glyph name="p" format="2">
  <advance width="1153.013812154696"/>
  <unicode hex="0070"/>
  <anchor x="608.7817679558011" y="-166.0" name="mark0"/>
  <anchor x="609.3232044198895" y="1110.5635359116022" name="top"/>
  <outline>
    <contour>
      <point x="1102.254143646409" y="563.3867403314918" type="curve" smooth="yes"/>
      <point x="1102.254143646409" y="919.1270718232045"/>
      <point x="928.8259668508288" y="1089.8453038674033"/>
      <point x="690.5994475138122" y="1089.8453038674033" type="curve" smooth="yes"/>
      <point x="528.9613259668508" y="1089.8453038674033"/>
      <point x="411.6022099447514" y="990.4944751381215"/>
      <point x="364.32872928176795" y="927.2127071823204" type="curve"/>
      <point x="365.0331491712707" y="1047.8093922651933" type="line"/>
      <point x="330.64364640883974" y="1076.085635359116" type="line"/>
      <point x="306.12983425414365" y="1076.085635359116" type="line"/>
      <point x="42.34530386740332" y="1023.5193370165746" type="line"/>
      <point x="42.34530386740332" y="954.0303867403316" type="line"/>
      <point x="176.51933701657458" y="917.5580110497237" type="line"/>
      <point x="176.66022099447514" y="-372.2596685082873" type="line"/>
      <point x="45.65469613259668" y="-399.02762430939225" type="line"/>
      <point x="45.65469613259668" y="-466.38121546961327" type="line"/>
      <point x="554.585635359116" y="-466.38121546961327" type="line"/>
      <point x="554.585635359116" y="-399.02762430939225" type="line"/>
      <point x="375.8922651933701" y="-372.61878453038673" type="line"/>
      <point x="375.8922651933701" y="-161.48618784530387" type="line"/>
      <point x="372.17403314917124" y="9.491712707182323" type="line"/>
      <point x="411.46132596685084" y="-6.972375690607733"/>
      <point x="494.2900552486188" y="-22.0"/>
      <point x="573.1187845303867" y="-22.0" type="curve" smooth="yes"/>
      <point x="883.6906077348066" y="-22.0"/>
      <point x="1102.254143646409" y="231.7596685082873"/>
    </contour>
    <contour>
      <point x="615.9171270718232" y="976.6712707182321" type="curve" smooth="yes"/>
      <point x="762.792817679558" y="976.6712707182321"/>
      <point x="880.1906077348067" y="850.3149171270718"/>
      <point x="880.1906077348067" y="539.7790055248619" type="curve"/>
      <point x="880.1906077348067" y="214.15469613259668"/>
      <point x="757.3646408839779" y="56.62154696132596"/>
      <point x="568.0828729281768" y="56.62154696132596" type="curve" smooth="yes"/>
      <point x="472.5027624309392" y="56.62154696132596"/>
      <point x="398.9060773480663" y="95.42265193370166"/>
      <point x="375.8922651933701" y="129.26795580110496" type="curve"/>
      <point x="375.8922651933701" y="864.4502762430939" type="line"/>
      <point x="414.4889502762431" y="907.828729281768"/>
      <point x="500.78729281767954" y="976.6712707182321"/>
    </contour>
  </outline>
</glyph>
<glyph name="r" format="2">
  <advance width="785.7209944751381"/>
  <unicode hex="0072"/>
  <anchor x="280.90055248618785" y="0.0" name="bottom"/>
  <anchor x="429.5966850828729" y="1110.1408839779006" name="top"/>
  <outline>
    <contour>
      <point x="42.42265193370166" y="0.0" type="line"/>
      <point x="575.1519337016574" y="0.0" type="line"/>
      <point x="575.1519337016574" y="66.18508287292818" type="line"/>
      <point x="378.2237569060773" y="90.67127071823204" type="line"/>
      <point x="378.08287292817676" y="766.4116022099447" type="line"/>
      <point x="434.16574585635357" y="837.9640883977901"/>
      <point x="533.8314917127071" y="889.1795580110497"/>
      <point x="659.1657458563536" y="889.1795580110497" type="curve" smooth="yes"/>
      <point x="702.2044198895028" y="889.1795580110497"/>
      <point x="733.9806629834254" y="877.8756906077348"/>
      <point x="747.7071823204419" y="868.2900552486188" type="curve"/>
      <point x="747.7071823204419" y="1064.1132596685084" type="line"/>
      <point x="734.7845303867404" y="1068.9585635359117"/>
      <point x="716.5939226519337" y="1073.1629834254143"/>
      <point x="688.621546961326" y="1073.1629834254143" type="curve" smooth="yes"/>
      <point x="513.8756906077348" y="1073.1629834254143"/>
      <point x="382.16574585635357" y="897.2237569060774"/>
      <point x="362.4337016574585" y="828.0690607734807" type="curve"/>
      <point x="357.9475138121547" y="820.8867403314918" type="line"/>
      <point x="362.87016574585635" y="993.9861878453039" type="line"/>
      <point x="363.2292817679558" y="1048.4502762430939" type="line"/>
      <point x="328.1353591160221" y="1076.085635359116" type="line"/>
      <point x="299.0303867403315" y="1076.085635359116" type="line"/>
      <point x="42.549723756906076" y="1023.6602209944751" type="line"/>
      <point x="42.549723756906076" y="953.889502762431" type="line"/>
      <point x="175.3646408839779" y="917.4171270718232" type="line"/>
      <point x="175.3646408839779" y="89.67127071823204" type="line"/>
      <point x="42.42265193370166" y="66.90331491712706" type="line"/>
    </contour>
  </outline>
</glyph>
<glyph name="s" format="2">
  <advance width="890.3397790055249"/>
  <unicode hex="0073"/>
  <anchor x="435.5745856353591" y="-2.5359116022099437" name="bottom"/>
  <anchor x="447.4337016574586" y="-168.81767955801104" name="mark0"/>
  <anchor x="452.6160220994475" y="1110.2817679558011" name="top"/>
  <outline>
    <contour>
      <point x="186.54972375690608" y="305.22651933701655" type="line"/>
      <point x="70.5635359116022" y="305.22651933701655" type="line"/>
      <point x="69.29558011049724" y="55.96408839779006" type="line"/>
      <point x="133.62707182320443" y="39.7817679558011"/>
      <point x="279.47237569060775" y="-21.704419889502763"/>
      <point x="426.53314917127074" y="-21.704419889502763" type="curve" smooth="yes"/>
      <point x="682.2651933701658" y="-21.704419889502763"/>
      <point x="825.5662983425415" y="103.3121546961326"/>
      <point x="825.5662983425415" y="299.83977900552486" type="curve" smooth="yes"/>
      <point x="825.5662983425415" y="481.55801104972375"/>
      <point x="663.6933701657458" y="556.1298342541436"/>
      <point x="493.65193370165747" y="629.4889502762431" type="curve" smooth="yes"/>
      <point x="365.7430939226519" y="686.256906077348"/>
      <point x="250.2209944751381" y="734.2983425414365"/>
      <point x="250.2209944751381" y="856.5082872928177" type="curve" smooth="yes"/>
      <point x="250.2209944751381" y="959.8011049723757"/>
      <point x="342.0828729281768" y="1012.8011049723757"/>
      <point x="450.3149171270718" y="1012.4419889502763" type="curve" smooth="yes"/>
      <point x="541.6160220994475" y="1012.0828729281768"/>
      <point x="602.6657458563536" y="973.4558011049724"/>
      <point x="619.3977900552486" y="934.243093922652" type="curve"/>
      <point x="661.8480662983426" y="786.792817679558" type="line"/>
      <point x="765.3618784530387" y="786.792817679558" type="line"/>
      <point x="766.9116022099447" y="1026.8453038674033" type="line"/>
      <point x="717.4309392265193" y="1038.1546961325967"/>
      <point x="628.1408839779006" y="1086.9226519337017"/>
      <point x="458.5745856353591" y="1086.9226519337017" type="curve" smooth="yes"/>
      <point x="245.15193370165747" y="1086.9226519337017"/>
      <point x="82.66022099447514" y="976.1243093922652"/>
      <point x="82.66022099447514" y="795.2513812154696" type="curve" smooth="yes"/>
      <point x="82.66022099447514" y="630.4806629834254"/>
      <point x="184.72651933701658" y="531.6353591160221"/>
      <point x="370.1740331491713" y="456.6077348066298" type="curve" smooth="yes"/>
      <point x="556.1657458563536" y="378.9033149171271"/>
      <point x="657.3646408839779" y="323.6160220994475"/>
      <point x="657.3646408839779" y="219.48342541436466" type="curve" smooth="yes"/>
      <point x="657.3646408839779" y="116.49447513812154"/>
      <point x="583.7265193370166" y="54.9171270718232"/>
      <point x="436.2292817679558" y="54.9171270718232" type="curve" smooth="yes"/>
      <point x="343.1325966850829" y="54.9171270718232"/>
      <point x="242.7817679558011" y="109.11325966850829"/>
      <point x="225.2817679558011" y="155.14364640883977" type="curve"/>
    </contour>
  </outline>
</glyph>
<glyph name="t" format="2">
  <advance width="706.5552486187845"/>
  <unicode hex="0074"/>
  <anchor x="394.4585635359116" y="0.0" name="bottom"/>
  <anchor x="362.6077348066298" y="556.0" name="center"/>
  <anchor x="420.4640883977901" y="-166.0" name="mark0"/>
  <anchor x="319.232044198895" y="1322.9613259668508" name="top"/>
  <anchor x="600.7237569060774" y="1110.2817679558011" name="topright"/>
  <outline>
    <contour>
      <point x="375.46685082872926" y="-19.12707182320442" type="curve"/>
      <point x="498.7955801104972" y="-19.12707182320442"/>
      <point x="635.3646408839779" y="32.549723756906076"/>
      <point x="691.6685082872929" y="78.85359116022099" type="curve"/>
      <point x="665.8011049723757" y="146.49723756906076" type="line"/>
      <point x="626.9419889502763" y="125.76519337016575"/>
      <point x="535.8756906077348" y="103.31491712707182"/>
      <point x="472.87016574585635" y="103.31491712707182" type="curve" smooth="yes"/>
      <point x="399.51104972375686" y="103.31491712707182"/>
      <point x="378.3563535911602" y="121.4696132596685"/>
      <point x="378.3563535911602" y="280.73204419889504" type="curve" smooth="yes"/>
      <point x="378.3563535911602" y="956.3563535911602" type="line"/>
      <point x="649.4364640883978" y="956.3563535911602" type="line"/>
      <point x="649.4364640883978" y="1057.6408839779006" type="line"/>
      <point x="377.8701657458563" y="1057.6408839779006" type="line"/>
      <point x="376.3204419889503" y="1357.5580110497237" type="line"/>
      <point x="273.46132596685084" y="1357.5580110497237" type="line"/>
      <point x="257.9254143646409" y="1294.4668508287293"/>
      <point x="224.8342541436464" y="1181.6602209944751"/>
      <point x="206.64364640883977" y="1135.864640883978" type="curve" smooth="yes"/>
      <point x="191.04419889502762" y="1098.4834254143645"/>
      <point x="177.44475138121547" y="1073.5441988950276"/>
      <point x="149.90883977900552" y="1057.1629834254143" type="curve" smooth="yes"/>
      <point x="128.46408839779005" y="1044.2182320441989"/>
      <point x="68.7182320441989" y="1031.2182320441989"/>
      <point x="36.66022099447514" y="1021.4779005524862" type="curve"/>
      <point x="36.66022099447514" y="956.3563535911602" type="line"/>
      <point x="174.24309392265195" y="956.3563535911602" type="line"/>
      <point x="174.24309392265195" y="193.52486187845304" type="line" smooth="yes"/>
      <point x="174.24309392265195" y="33.86187845303867"/>
      <point x="248.6657458563536" y="-19.12707182320442"/>
    </contour>
  </outline>
</glyph>
<glyph name="u" format="2">
  <advance width="1152.513812154696"/>
  <unicode hex="0075"/>
  <anchor x="587.8342541436464" y="0.0" name="bottom"/>
  <anchor x="612.9060773480663" y="-166.0" name="mark0"/>
  <anchor x="928.0718232044198" y="20.0" name="ogonek"/>
  <anchor x="560.9613259668508" y="1110.5635359116022" name="top"/>
  <anchor x="1021.4198895027624" y="1074.6519337016575" name="topright"/>
  <outline>
    <contour>
      <point x="912.6491712707182" y="-17.704419889502763" type="curve" smooth="yes"/>
      <point x="991.610497237569" y="-17.704419889502763"/>
      <point x="1052.4585635359117" y="0.0"/>
      <point x="1097.4309392265193" y="12.154696132596685" type="curve"/>
      <point x="1098.1491712707182" y="74.68508287292818" type="line"/>
      <point x="989.4751381215469" y="77.50276243093923" type="line"/>
      <point x="989.4751381215469" y="1052.8729281767955" type="line"/>
      <point x="952.1353591160221" y="1075.8038674033148" type="line"/>
      <point x="931.9309392265193" y="1075.8038674033148" type="line"/>
      <point x="656.878453038674" y="1028.0690607734807" type="line"/>
      <point x="656.878453038674" y="968.5524861878453" type="line"/>
      <point x="788.756906077348" y="932.9254143646409" type="line"/>
      <point x="788.756906077348" y="213.7403314917127" type="line"/>
      <point x="733.132596685083" y="162.8977900552486"/>
      <point x="635.6022099447514" y="104.13259668508286"/>
      <point x="520.0138121546961" y="104.13259668508286" type="curve" smooth="yes"/>
      <point x="380.9696132596685" y="104.13259668508286"/>
      <point x="347.1878453038674" y="185.22099447513813"/>
      <point x="347.1878453038674" y="364.0" type="curve" smooth="yes"/>
      <point x="347.1878453038674" y="1052.8729281767955" type="line"/>
      <point x="314.707182320442" y="1075.8038674033148" type="line"/>
      <point x="294.7707182320442" y="1075.8038674033148" type="line"/>
      <point x="32.15469613259668" y="1028.0690607734807" type="line"/>
      <point x="32.15469613259668" y="967.9889502762431" type="line"/>
      <point x="145.9060773480663" y="932.9254143646409" type="line"/>
      <point x="146.26519337016575" y="355.4806629834254" type="line" smooth="yes"/>
      <point x="146.26519337016575" y="97.24585635359117"/>
      <point x="226.46408839779005" y="-21.0"/>
      <point x="454.9640883977901" y="-21.0" type="curve" smooth="yes"/>
      <point x="609.7016574585635" y="-21.0"/>
      <point x="734.5331491712707" y="72.92817679558011"/>
      <point x="802.7651933701658" y="153.9585635359116" type="curve"/>
      <point x="802.7651933701658" y="71.77624309392264" type="line" smooth="yes"/>
      <point x="802.7651933701658" y="3.8453038674033158"/>
      <point x="842.2872928176796" y="-17.704419889502763"/>
    </contour>
  </outline>
</glyph>
<glyph name="w" format="2">
  <advance width="1598.124309392265"/>
  <unicode hex="0077"/>
  <anchor x="830.4696132596686" y="0.0" name="bottom"/>
  <anchor x="817.4254143646409" y="-166.0" name="mark0"/>
  <anchor x="857.7955801104972" y="1110.2817679558011" name="top"/>
  <outline>
    <contour>
      <point x="-21.157458563535908" y="992.378453038674" type="line"/>
      <point x="70.29281767955801" y="964.6243093922652" type="line"/>
      <point x="373.939226519337" y="-8.0" type="line"/>
      <point x="553.0414364640884" y="-8.0" type="line"/>
      <point x="742.6298342541436" y="663.1767955801105" type="line"/>
      <point x="790.3397790055249" y="907.7154696132596" type="line"/>
      <point x="845.1906077348066" y="663.317679558011" type="line"/>
      <point x="1039.842541436464" y="-8.0" type="line"/>
      <point x="1222.4944751381215" y="-8.0" type="line"/>
      <point x="1525.6132596685084" y="963.7651933701658" type="line"/>
      <point x="1627.7265193370165" y="992.378453038674" type="line"/>
      <point x="1627.7265193370165" y="1057.5" type="line"/>
      <point x="1272.792817679558" y="1057.5" type="line"/>
      <point x="1272.792817679558" y="992.5193370165746" type="line"/>
      <point x="1402.0469613259668" y="963.3425414364641" type="line"/>
      <point x="1229.5580110497237" y="328.5718232044199" type="line"/>
      <point x="1181.7624309392265" y="112.64364640883977" type="line"/>
      <point x="1136.3259668508288" y="317.939226519337" type="line"/>
      <point x="939.378453038674" y="1057.5" type="line"/>
      <point x="741.585635359116" y="1057.5" type="line"/>
      <point x="552.1602209944751" y="329.2900552486188" type="line"/>
      <point x="507.9281767955801" y="113.36187845303866" type="line"/>
      <point x="462.0552486187845" y="317.08011049723757" type="line"/>
      <point x="286.3977900552486" y="964.3425414364641" type="line"/>
      <point x="410.09392265193367" y="992.5193370165746" type="line"/>
      <point x="410.09392265193367" y="1057.5" type="line"/>
      <point x="-21.157458563535908" y="1057.5" type="line"/>
    </contour>
  </outline>
</glyph>
<glyph name="x" format="2">
  <advance width="1099.3232044198894"/>
  <unicode hex="0078"/>
  <anchor x="577.9944751381215" y="-166.0" name="mark0"/>
  <outline>
    <contour>
      <point x="128.11049723756906" y="93.40331491712706" type="line"/>
      <point x="16.779005524861887" y="67.12154696132596" type="line"/>
      <point x="16.779005524861887" y="0.0" type="line"/>
      <point x="408.45303867403317" y="0.0" type="line"/>
      <point x="408.45303867403317" y="67.12154696132596" type="line"/>
      <point x="265.05801104972375" y="93.40331491712706" type="line"/>
      <point x="435.2458563535912" y="349.77348066298345" type="line"/>
      <point x="497.95580110497235" y="456.52486187845307" type="line"/>
      <point x="570.5248618784531" y="342.646408839779" type="line"/>
      <point x="730.7265193370166" y="93.40331491712706" type="line"/>
      <point x="605.8480662983426" y="67.12154696132596" type="line"/>
      <point x="605.8480662983426" y="0.0" type="line"/>
      <point x="1086.135359116022" y="0.0" type="line"/>
      <point x="1086.135359116022" y="67.12154696132596" type="line"/>
      <point x="978.7983425414365" y="92.54419889502762" type="line"/>
      <point x="648.0386740331492" y="558.9309392265193" type="line"/>
      <point x="952.0801104972376" y="963.8011049723757" type="line"/>
      <point x="1057.988950276243" y="992.2375690607735" type="line"/>
      <point x="1057.988950276243" y="1057.6408839779006" type="line"/>
      <point x="692.7237569060774" y="1057.6408839779006" type="line"/>
      <point x="692.7237569060774" y="992.2375690607735" type="line"/>
      <point x="822.7734806629834" y="963.6602209944751" type="line"/>
      <point x="647.8895027624309" y="707.0939226519337" type="line"/>
      <point x="594.5939226519337" y="611.8342541436464" type="line"/>
      <point x="532.3480662983425" y="713.5165745856353" type="line"/>
      <point x="369.7734806629834" y="963.8011049723757" type="line"/>
      <point x="499.8563535911602" y="992.2375690607735" type="line"/>
      <point x="499.8563535911602" y="1057.6408839779006" type="line"/>
      <point x="25.483425414364646" y="1057.6408839779006" type="line"/>
      <point x="25.483425414364646" y="992.2375690607735" type="line"/>
      <point x="125.49723756906079" y="963.8011049723757" type="line"/>
      <point x="446.53867403314916" y="515.0331491712707" type="line"/>
    </contour>
  </outline>
</glyph>
<glyph name="y" format="2">
  <advance width="1049.3149171270718"/>
  <unicode hex="0079"/>
  <anchor x="869.5220994475138" y="0.0" name="bottom"/>
  <anchor x="569.9696132596684" y="-166.0" name="mark0"/>
  <anchor x="548.7154696132596" y="1110.2817679558011" name="top"/>
  <outline>
    <contour>
      <point x="218.74585635359117" y="-493.0552486187845" type="curve" smooth="yes"/>
      <point x="421.7403314917127" y="-493.0552486187845"/>
      <point x="508.05248618784526" y="-349.8011049723757"/>
      <point x="632.4668508287293" y="-31.823204419889503" type="curve"/>
      <point x="661.7541436464088" y="38.21546961325967"/>
      <point x="801.4558011049724" y="460.6519337016574"/>
      <point x="972.5" y="964.3425414364641" type="curve"/>
      <point x="1069.3950276243095" y="992.378453038674" type="line"/>
      <point x="1069.3950276243095" y="1057.6408839779006" type="line"/>
      <point x="721.4171270718232" y="1057.6408839779006" type="line"/>
      <point x="721.4171270718232" y="992.2375690607735" type="line"/>
      <point x="839.6574585635359" y="964.3425414364641" type="line"/>
      <point x="646.267955801105" y="313.85911602209944" type="line"/>
      <point x="583.6491712707182" y="91.83977900552485" type="line"/>
      <point x="516.6850828729282" y="316.5359116022099" type="line"/>
      <point x="304.70441988950273" y="964.2016574585635" type="line"/>
      <point x="431.232044198895" y="992.0193370165746" type="line"/>
      <point x="431.232044198895" y="1057.6408839779006" type="line"/>
      <point x="-12.04419889502762" y="1057.7817679558011" type="line"/>
      <point x="-12.04419889502762" y="992.5193370165746" type="line"/>
      <point x="78.17403314917128" y="963.4834254143647" type="line"/>
      <point x="431.6022099447514" y="0.0" type="line"/>
      <point x="537.1878453038674" y="0.0" type="line"/>
      <point x="465.9281767955801" y="-204.39779005524866"/>
      <point x="348.38121546961327" y="-336.560773480663"/>
      <point x="216.09116022099448" y="-336.560773480663" type="curve" smooth="yes"/>
      <point x="175.27348066298342" y="-336.560773480663"/>
      <point x="128.54696132596683" y="-330.87016574585635"/>
      <point x="110.71546961325967" y="-321.8839779005525" type="curve"/>
      <point x="110.71546961325967" y="-477.646408839779" type="line"/>
      <point x="128.54696132596683" y="-486.914364640884"/>
      <point x="171.41436464088397" y="-493.0552486187845"/>
    </contour>
  </outline>
</glyph>
<glyph name="z" format="2">
  <advance width="1026.256906077348"/>
  <unicode hex="007A"/>
  <anchor x="518.1160220994475" y="0.0" name="bottom"/>
  <anchor x="507.49723756906076" y="-168.81767955801104" name="mark0"/>
  <anchor x="537.0718232044198" y="1110.2817679558011" name="top"/>
  <outline>
    <contour>
      <point x="738.146408839779" y="980.3922651933701" type="line"/>
      <point x="613.7955801104972" y="846.4502762430939" type="line"/>
      <point x="51.63812154696133" y="71.48066298342542" type="line"/>
      <point x="90.06906077348067" y="0.0" type="line"/>
      <point x="925.1961325966851" y="0.0" type="line"/>
      <point x="963.182320441989" y="335.1381215469613" type="line"/>
      <point x="859.1629834254144" y="350.0966850828729" type="line"/>
      <point x="763.9917127071823" y="102.40331491712706" type="line"/>
      <point x="272.19060773480663" y="76.32596685082873" type="line"/>
      <point x="409.7237569060773" y="222.81767955801104" type="line"/>
      <point x="956.767955801105" y="987.4419889502763" type="line"/>
      <point x="920.6187845303867" y="1057.6408839779006" type="line"/>
      <point x="117.82872928176796" y="1057.2182320441989" type="line"/>
      <point x="115.43370165745857" y="738.5386740331492" type="line"/>
      <point x="224.4889502762431" y="738.9613259668508" type="line"/>
      <point x="271.23756906077347" y="958.0828729281768" type="line"/>
    </contour>
  </outline>
</glyph>
<glyph name="bar" format="2">
  <advance width="797.2790055248619"/>
  <unicode hex="007C"/>
  <outline>
    <contour>
      <point x="463.26795580110496" y="1738.0" type="line"/>
      <point x="334.0110497237569" y="1738.0" type="line"/>
      <point x="334.0110497237569" y="-182.0" type="line"/>
      <point x="463.26795580110496" y="-182.0" type="line"/>
    </contour>
  </outline>
</glyph>
<glyph name="braceright" format="2">
  <advance width="967.9640883977901"/>
  <unicode hex="007D"/>
  <outline>
    <contour>
      <point x="360.95580110497235" y="-274.81767955801104" type="curve" smooth="yes"/>
      <point x="579.121546961326" y="-274.81767955801104"/>
      <point x="685.621546961326" y="-183.15469613259668"/>
      <point x="685.621546961326" y="-21.0414364640884" type="curve" smooth="yes"/>
      <point x="685.621546961326" y="165.40883977900552"/>
      <point x="584.6187845303867" y="299.5497237569061"/>
      <point x="584.6187845303867" y="452.25414364640886" type="curve" smooth="yes"/>
      <point x="584.6187845303867" y="558.0552486187845"/>
      <point x="638.6657458563536" y="624.914364640884"/>
      <point x="863.7983425414365" y="623.4779005524862" type="curve"/>
      <point x="863.7983425414365" y="726.732044198895" type="line"/>
      <point x="638.6657458563536" y="725.2955801104972"/>
      <point x="584.6187845303867" y="780.6767955801105"/>
      <point x="584.6187845303867" y="885.182320441989" type="curve" smooth="yes"/>
      <point x="584.6187845303867" y="1037.745856353591"/>
      <point x="685.621546961326" y="1172.5911602209944"/>
      <point x="685.621546961326" y="1357.6049723756905" type="curve" smooth="yes"/>
      <point x="685.621546961326" y="1521.1546961325967"/>
      <point x="581.121546961326" y="1611.3812154696132"/>
      <point x="357.9281767955801" y="1611.3812154696132" type="curve" smooth="yes"/>
      <point x="277.2209944751381" y="1611.3812154696132"/>
      <point x="213.51381215469613" y="1596.4226519337017"/>
      <point x="137.9281767955801" y="1576.0" type="curve"/>
      <point x="137.9281767955801" y="1508.146408839779" type="line"/>
      <point x="159.53591160220995" y="1511.3011049723757"/>
      <point x="243.30662983425415" y="1512.878453038674"/>
      <point x="264.6325966850829" y="1512.878453038674" type="curve" smooth="yes"/>
      <point x="375.7154696132597" y="1512.878453038674"/>
      <point x="491.3314917127072" y="1478.3922651933701"/>
      <point x="491.3314917127072" y="1332.2817679558011" type="curve" smooth="yes"/>
      <point x="491.3314917127072" y="1207.7762430939226"/>
      <point x="426.80939226519337" y="1029.6077348066299"/>
      <point x="426.80939226519337" y="888.4254143646409" type="curve" smooth="yes"/>
      <point x="426.80939226519337" y="752.6685082872929"/>
      <point x="551.8977900552486" y="691.8591160220994"/>
      <point x="696.9640883977901" y="671.1546961325967" type="curve"/>
      <point x="551.8977900552486" y="651.8867403314918"/>
      <point x="426.80939226519337" y="582.4585635359116"/>
      <point x="426.80939226519337" y="448.1381215469613" type="curve" smooth="yes"/>
      <point x="426.80939226519337" y="306.95580110497235"/>
      <point x="491.3314917127072" y="130.22375690607734"/>
      <point x="491.3314917127072" y="5.718232044198896" type="curve" smooth="yes"/>
      <point x="491.3314917127072" y="-143.26519337016575"/>
      <point x="378.1381215469613" y="-176.31491712707182"/>
      <point x="265.61878453038673" y="-176.31491712707182" type="curve" smooth="yes"/>
      <point x="240.99723756906076" y="-176.31491712707182"/>
      <point x="159.53591160220995" y="-173.16022099447514"/>
      <point x="137.9281767955801" y="-170.00552486187846" type="curve"/>
      <point x="137.9281767955801" y="-238.0" type="line"/>
      <point x="212.04972375690608" y="-258.8453038674033"/>
      <point x="281.68508287292815" y="-274.81767955801104"/>
    </contour>
  </outline>
</glyph>
<glyph name="asciitilde" format="2">
  <advance width="1250.889502762431"/>
  <unicode hex="007E"/>
  <outline>
    <contour>
      <point x="167.0" y="596.8591160220994" type="curve"/>
      <point x="222.94475138121547" y="525.146408839779" type="line"/>
      <point x="269.93093922651934" y="588.3646408839779"/>
      <point x="342.1491712707182" y="643.0966850828729"/>
      <point x="430.30386740331494" y="643.0966850828729" type="curve" smooth="yes"/>
      <point x="576.4585635359116" y="643.0966850828729"/>
      <point x="617.9447513812155" y="467.4060773480663"/>
      <point x="798.9309392265193" y="467.4060773480663" type="curve" smooth="yes"/>
      <point x="924.621546961326" y="467.4060773480663"/>
      <point x="1032.671270718232" y="547.7872928176796"/>
      <point x="1083.889502762431" y="636.9640883977901" type="curve"/>
      <point x="1024.3038674033148" y="711.5994475138122" type="line"/>
      <point x="977.8812154696133" y="647.6767955801105"/>
      <point x="904.7762430939226" y="590.4447513812155"/>
      <point x="815.2127071823204" y="590.4447513812155" type="curve" smooth="yes"/>
      <point x="675.389502762431" y="590.4447513812155"/>
      <point x="625.9309392265193" y="765.7127071823204"/>
      <point x="450.0359116022099" y="765.7127071823204" type="curve" smooth="yes"/>
      <point x="324.26795580110496" y="765.7127071823204"/>
      <point x="214.23204419889504" y="680.767955801105"/>
    </contour>
  </outline>
</glyph>
<glyph name="exclamdown" format="2">
  <advance width="638.5939226519337"/>
  <unicode hex="00A1"/>
  <outline>
    <contour>
      <point x="129.69060773480663" y="-489.85911602209944" type="line"/>
      <point x="359.76243093922653" y="-489.85911602209944" type="line"/>
      <point x="289.1160220994475" y="847.2265193370166" type="line"/>
      <point x="194.30939226519337" y="847.2265193370166" type="line"/>
    </contour>
    <contour>
      <point x="314.4337016574585" y="1235.842541436464" type="curve" smooth="yes"/>
      <point x="279.9033149171271" y="1274.0690607734807"/>
      <point x="220.29558011049724" y="1274.3370165745857"/>
      <point x="187.35082872928177" y="1236.9198895027625" type="curve" smooth="yes"/>
      <point x="145.1657458563536" y="1209.0524861878453"/>
      <point x="127.15193370165747" y="1154.9944751381215"/>
      <point x="163.28729281767954" y="1110.7817679558011" type="curve" smooth="yes"/>
      <point x="196.76795580110496" y="1077.9779005524863"/>
      <point x="247.58011049723754" y="1073.8508287292818"/>
      <point x="292.08839779005524" y="1109.5635359116022" type="curve" smooth="yes"/>
      <point x="330.56906077348066" y="1141.853591160221"/>
      <point x="343.3011049723757" y="1194.0524861878453"/>
    </contour>
  </outline>
</glyph>
<glyph name="cent" format="2">
  <advance width="1127.6602209944751"/>
  <unicode hex="00A2"/>
  <outline>
    <contour>
      <point x="143.02486187845304" y="517.6408839779006" type="curve" smooth="yes"/>
      <point x="144.02486187845304" y="231.04972375690608"/>
      <point x="281.939226519337" y="17.317679558011047"/>
      <point x="542.1657458563536" y="-16.795580110497237" type="curve"/>
      <point x="529.6795580110497" y="-238.0" type="line"/>
      <point x="636.5414364640884" y="-238.0" type="line"/>
      <point x="648.7458563535912" y="-21.359116022099446" type="line"/>
      <point x="783.8618784530387" y="-12.37292817679558"/>
      <point x="913.9337016574585" y="52.43922651933701"/>
      <point x="973.8618784530387" y="115.05801104972376" type="curve"/>
      <point x="943.6988950276243" y="176.20165745856352" type="line"/>
      <point x="887.2762430939226" y="134.98342541436463"/>
      <point x="781.5524861878453" y="91.91436464088397"/>
      <point x="673.5828729281768" y="91.91436464088397" type="curve" smooth="yes"/>
      <point x="487.9530386740331" y="91.91436464088397"/>
      <point x="364.12430939226516" y="253.95303867403314"/>
      <point x="365.12430939226516" y="565.1491712707183" type="curve" smooth="yes"/>
      <point x="365.9834254143646" y="857.6298342541436"/>
      <point x="489.7099447513812" y="1008.7651933701658"/>
      <point x="646.4861878453039" y="1008.7651933701658" type="curve" smooth="yes"/>
      <point x="737.3756906077348" y="1008.7651933701658"/>
      <point x="787.7403314917127" y="975.328729281768"/>
      <point x="796.2900552486187" y="936.1160220994475" type="curve" smooth="yes"/>
      <point x="838.9806629834254" y="740.2486187845304" type="line"/>
      <point x="955.5801104972376" y="740.2486187845304" type="line"/>
      <point x="965.6298342541436" y="1028.3729281767955" type="line"/>
      <point x="921.853591160221" y="1039.5414364640883"/>
      <point x="837.9254143646409" y="1077.7817679558011"/>
      <point x="729.1187845303867" y="1087.9226519337017" type="curve"/>
      <point x="750.4005524861878" y="1365.6906077348067" type="line"/>
      <point x="645.6657458563536" y="1365.6906077348067" type="line"/>
      <point x="625.5386740331492" y="1087.8591160220994" type="line"/>
      <point x="323.6878453038674" y="1063.732044198895"/>
      <point x="142.4475138121547" y="819.7209944751381"/>
    </contour>
  </outline>
</glyph>
<glyph name="sterling" format="2">
  <advance width="1451.1491712707182"/>
  <unicode hex="00A3"/>
  <outline>
    <contour>
      <point x="938.9613259668508" y="-14.0" type="curve" smooth="yes"/>
      <point x="1175.9088397790056" y="-14.0"/>
      <point x="1344.2016574585634" y="152.6961325966851"/>
      <point x="1344.2016574585634" y="347.3259668508287" type="curve" smooth="yes"/>
      <point x="1344.2016574585634" y="424.88950276243094"/>
      <point x="1321.8066298342542" y="481.50276243093924"/>
      <point x="1301.2707182320441" y="506.42541436464086" type="curve"/>
      <point x="1085.0469613259668" y="506.42541436464086" type="line"/>
      <point x="1114.2237569060774" y="473.45303867403317"/>
      <point x="1134.46408839779" y="387.4889502762431"/>
      <point x="1134.46408839779" y="311.6160220994475" type="curve" smooth="yes"/>
      <point x="1134.46408839779" y="161.72099447513813"/>
      <point x="1079.6961325966852" y="92.52209944751381"/>
      <point x="927.2734806629834" y="92.52209944751381" type="curve" smooth="yes"/>
      <point x="765.9723756906078" y="92.52209944751381"/>
      <point x="620.8867403314916" y="164.4364640883978"/>
      <point x="461.8259668508287" y="185.12154696132598" type="curve"/>
      <point x="522.0469613259668" y="252.5027624309392"/>
      <point x="579.8839779005525" y="365.8674033149171"/>
      <point x="579.8839779005525" y="553.439226519337" type="curve" smooth="yes"/>
      <point x="579.8839779005525" y="762.6878453038674" type="line"/>
      <point x="881.853591160221" y="762.6878453038674" type="line"/>
      <point x="881.853591160221" y="853.2817679558011" type="line"/>
      <point x="579.8839779005525" y="853.2817679558011" type="line"/>
      <point x="579.8839779005525" y="1058.5414364640883" type="line" smooth="yes"/>
      <point x="579.8839779005525" y="1351.596685082873"/>
      <point x="697.0552486187845" y="1415.6740331491712"/>
      <point x="805.0331491712707" y="1415.6740331491712" type="curve" smooth="yes"/>
      <point x="938.9475138121546" y="1415.6740331491712"/>
      <point x="1048.196132596685" y="1318.9668508287293"/>
      <point x="1082.013812154696" y="1255.4917127071824" type="curve"/>
      <point x="1195.439226519337" y="1392.646408839779" type="line"/>
      <point x="1124.9723756906078" y="1452.013812154696"/>
      <point x="1004.8287292817679" y="1502.8453038674033"/>
      <point x="856.4530386740331" y="1502.8453038674033" type="curve" smooth="yes"/>
      <point x="586.5552486187845" y="1502.8453038674033"/>
      <point x="363.1657458563536" y="1304.0"/>
      <point x="363.1657458563536" y="998.2817679558011" type="curve" smooth="yes"/>
      <point x="363.1657458563536" y="853.2817679558011" type="line"/>
      <point x="167.8646408839779" y="853.2817679558011" type="line"/>
      <point x="167.8646408839779" y="762.6878453038674" type="line"/>
      <point x="363.1657458563536" y="762.6878453038674" type="line"/>
      <point x="363.1657458563536" y="490.8922651933702" type="line" smooth="yes"/>
      <point x="363.1657458563536" y="383.4861878453039"/>
      <point x="343.90607734806633" y="251.2624309392265"/>
      <point x="321.44198895027625" y="206.93370165745856" type="curve"/>
      <point x="200.38121546961327" y="208.8977900552486"/>
      <point x="90.81491712707182" y="147.87016574585635"/>
      <point x="90.81491712707182" y="77.04419889502762" type="curve" smooth="yes"/>
      <point x="90.81491712707182" y="25.09944751381215"/>
      <point x="140.0828729281768" y="0.0"/>
      <point x="192.19060773480663" y="0.0" type="curve" smooth="yes"/>
      <point x="268.00828729281767" y="0.0"/>
      <point x="330.6491712707182" y="47.146408839779006"/>
      <point x="386.5662983425414" y="110.33701657458563" type="curve"/>
      <point x="555.7237569060774" y="108.33701657458563"/>
      <point x="709.8867403314918" y="-14.0"/>
    </contour>
  </outline>
</glyph>
<glyph name="currency" format="2">
  <advance width="1445.889502762431"/>
  <unicode hex="00A4"/>
  <outline>
    <contour>
      <point x="387.2955801104972" y="475.01381215469615" type="curve"/>
      <point x="181.22375690607734" y="269.22375690607737" type="line"/>
      <point x="260.80939226519337" y="186.91988950276243" type="line"/>
      <point x="469.80386740331494" y="396.8370165745856" type="line"/>
      <point x="541.3038674033149" y="346.1325966850829"/>
      <point x="627.8674033149172" y="317.77348066298345"/>
      <point x="720.2265193370166" y="317.77348066298345" type="curve" smooth="yes"/>
      <point x="810.4585635359116" y="317.77348066298345"/>
      <point x="894.8812154696133" y="346.3508287292818"/>
      <point x="966.2403314917127" y="396.6325966850829" type="curve"/>
      <point x="1175.4392265193371" y="185.43370165745856" type="line"/>
      <point x="1267.6657458563536" y="278.94198895027625" type="line"/>
      <point x="1059.389502762431" y="486.3729281767956" type="line"/>
      <point x="1119.2983425414366" y="562.767955801105"/>
      <point x="1155.2983425414366" y="658.2541436464088"/>
      <point x="1155.2983425414366" y="762.4861878453039" type="curve" smooth="yes"/>
      <point x="1155.2983425414366" y="865.9364640883978"/>
      <point x="1120.0801104972375" y="959.5773480662983"/>
      <point x="1059.9530386740332" y="1033.6270718232045" type="curve"/>
      <point x="1266.5883977900553" y="1239.4171270718232" type="line"/>
      <point x="1184.7845303867402" y="1321.9392265193371" type="line"/>
      <point x="974.3038674033149" y="1112.585635359116" type="line"/>
      <point x="902.7541436464088" y="1162.9309392265193"/>
      <point x="814.5359116022099" y="1192.2265193370165"/>
      <point x="720.2265193370166" y="1192.2265193370165" type="curve" smooth="yes"/>
      <point x="629.7900552486187" y="1192.2265193370165"/>
      <point x="546.2900552486187" y="1164.2900552486187"/>
      <point x="477.2900552486188" y="1113.5718232044198" type="curve"/>
      <point x="266.4502762430939" y="1326.207182320442" type="line"/>
      <point x="176.22375690607734" y="1233.4171270718232" type="line"/>
      <point x="385.2182320441989" y="1022.9861878453039" type="line"/>
      <point x="328.24585635359114" y="946.9364640883978"/>
      <point x="295.4640883977901" y="848.6546961325967"/>
      <point x="295.4640883977901" y="745.3591160220994" type="curve" smooth="yes"/>
      <point x="295.4640883977901" y="641.6906077348066"/>
      <point x="328.4640883977901" y="548.4861878453039"/>
    </contour>
    <contour>
      <point x="725.8314917127071" y="446.7348066298342" type="curve" smooth="yes"/>
      <point x="572.0193370165746" y="446.7348066298342"/>
      <point x="443.26243093922653" y="586.8287292817679"/>
      <point x="443.26243093922653" y="754.0276243093923" type="curve" smooth="yes"/>
      <point x="443.26243093922653" y="914.3259668508288"/>
      <point x="546.5828729281768" y="1061.110497237569"/>
      <point x="713.5718232044198" y="1061.110497237569" type="curve" smooth="yes"/>
      <point x="869.6933701657458" y="1061.110497237569"/>
      <point x="1003.732044198895" y="913.3701657458564"/>
      <point x="1003.732044198895" y="745.2541436464088" type="curve" smooth="yes"/>
      <point x="1003.732044198895" y="583.4419889502763"/>
      <point x="896.8701657458564" y="446.7348066298342"/>
    </contour>
  </outline>
</glyph>
<glyph name="section" format="2">
  <advance width="1327.6408839779006"/>
  <unicode hex="00A7"/>
  <outline>
    <contour>
      <point x="330.6629834254144" y="234.0828729281768" type="line"/>
      <point x="206.70441988950276" y="234.0828729281768" type="line"/>
      <point x="187.70441988950276" y="-106.0" type="line"/>
      <point x="250.69060773480663" y="-112.0"/>
      <point x="401.560773480663" y="-198.0"/>
      <point x="640.110497237569" y="-198.0" type="curve" smooth="yes"/>
      <point x="984.0276243093922" y="-198.0"/>
      <point x="1130.0276243093922" y="-33.069060773480665"/>
      <point x="1130.0276243093922" y="137.77624309392266" type="curve" smooth="yes"/>
      <point x="1130.0276243093922" y="232.21270718232043"/>
      <point x="1083.0635359116022" y="310.0220994475138"/>
      <point x="1007.867403314917" y="370.085635359116" type="curve"/>
      <point x="1100.3453038674033" y="441.1767955801105"/>
      <point x="1159.9447513812154" y="537.2016574585635"/>
      <point x="1159.9447513812154" y="660.9226519337017" type="curve" smooth="yes"/>
      <point x="1159.9447513812154" y="892.2375690607735"/>
      <point x="927.6408839779006" y="994.1933701657458"/>
      <point x="753.5082872928176" y="1069.4116022099447" type="curve" smooth="yes"/>
      <point x="572.560773480663" y="1150.1988950276243"/>
      <point x="407.03867403314916" y="1201.1491712707182"/>
      <point x="407.03867403314916" y="1368.5801104972375" type="curve" smooth="yes"/>
      <point x="407.03867403314916" y="1493.6823204419888"/>
      <point x="512.267955801105" y="1561.596685082873"/>
      <point x="678.5524861878453" y="1561.596685082873" type="curve" smooth="yes"/>
      <point x="791.2265193370166" y="1561.596685082873"/>
      <point x="878.6408839779006" y="1525.3011049723757"/>
      <point x="898.5552486187845" y="1502.9558011049724" type="curve"/>
      <point x="946.9226519337017" y="1258.2265193370165" type="line"/>
      <point x="1060.513812154696" y="1258.2265193370165" type="line"/>
      <point x="1075.745856353591" y="1572.0" type="line"/>
      <point x="1021.0055248618785" y="1578.4088397790056"/>
      <point x="876.243093922652" y="1644.2817679558011"/>
      <point x="686.4116022099447" y="1644.2817679558011" type="curve" smooth="yes"/>
      <point x="409.6077348066298" y="1644.2817679558011"/>
      <point x="219.28176795580112" y="1514.5773480662983"/>
      <point x="219.28176795580112" y="1317.245856353591" type="curve" smooth="yes"/>
      <point x="219.28176795580112" y="1217.5414364640883"/>
      <point x="264.4226519337017" y="1138.4005524861877"/>
      <point x="330.8729281767956" y="1078.0414364640883" type="curve"/>
      <point x="239.6325966850829" y="1014.0828729281768"/>
      <point x="176.59116022099448" y="927.2209944751381"/>
      <point x="176.59116022099448" y="802.5027624309392" type="curve" smooth="yes"/>
      <point x="176.59116022099448" y="567.6933701657458"/>
      <point x="373.9806629834254" y="455.2209944751381"/>
      <point x="570.4309392265193" y="374.6961325966851" type="curve" smooth="yes"/>
      <point x="764.9779005524862" y="293.4502762430939"/>
      <point x="938.8839779005525" y="232.90883977900555"/>
      <point x="938.8839779005525" y="80.43370165745857" type="curve" smooth="yes"/>
      <point x="938.8839779005525" y="-36.267955801104975"/>
      <point x="838.0828729281768" y="-117.16022099447514"/>
      <point x="645.0883977900553" y="-117.16022099447514" type="curve" smooth="yes"/>
      <point x="516.9005524861878" y="-117.16022099447514"/>
      <point x="408.85911602209944" y="-73.28729281767956"/>
      <point x="371.93093922651934" y="-32.850828729281766" type="curve"/>
    </contour>
    <contour>
      <point x="648.5883977900552" y="557.7762430939226" type="curve" smooth="yes"/>
      <point x="452.4944751381215" y="647.0027624309392"/>
      <point x="337.9337016574585" y="736.2348066298342"/>
      <point x="337.9337016574585" y="867.939226519337" type="curve" smooth="yes"/>
      <point x="337.9337016574585" y="935.5773480662983"/>
      <point x="360.34806629834253" y="983.8508287292817"/>
      <point x="401.43093922651934" y="1023.828729281768" type="curve"/>
      <point x="479.7265193370166" y="973.1878453038674"/>
      <point x="558.7348066298342" y="939.4337016574585"/>
      <point x="651.8038674033149" y="900.4198895027624" type="curve" smooth="yes"/>
      <point x="854.2624309392265" y="814.5662983425415"/>
      <point x="985.3977900552486" y="734.8066298342542"/>
      <point x="985.3977900552486" y="583.9696132596686" type="curve" smooth="yes"/>
      <point x="985.3977900552486" y="526.232044198895"/>
      <point x="967.792817679558" y="468.54419889502765"/>
      <point x="925.7596685082873" y="426.7707182320442" type="curve"/>
      <point x="838.5220994475138" y="475.1574585635359"/>
      <point x="738.7237569060774" y="516.0994475138122"/>
    </contour>
  </outline>
</glyph>
<glyph name="micro" format="2">
  <advance width="1263.9088397790056"/>
  <unicode hex="00B5"/>
  <outline>
    <contour>
      <point x="219.88397790055248" y="-363.7182320441989" type="line"/>
      <point x="400.96132596685084" y="-363.7182320441989" type="line"/>
      <point x="400.96132596685084" y="64.5828729281768" type="line"/>
      <point x="455.67127071823205" y="8.091160220994476"/>
      <point x="527.8812154696133" y="-19.718232044198896"/>
      <point x="606.3232044198895" y="-19.718232044198896" type="curve" smooth="yes"/>
      <point x="740.6077348066299" y="-19.718232044198896"/>
      <point x="839.5082872928177" y="66.22375690607736"/>
      <point x="886.3729281767955" y="158.11325966850828" type="curve"/>
      <point x="886.3729281767955" y="64.18508287292818" type="line" smooth="yes"/>
      <point x="886.3729281767955" y="21.831491712707184"/>
      <point x="902.3729281767955" y="-21.56353591160221"/>
      <point x="992.0524861878453" y="-21.56353591160221" type="curve" smooth="yes"/>
      <point x="1060.3232044198894" y="-21.56353591160221"/>
      <point x="1137.6850828729282" y="-3.5911602209944764"/>
      <point x="1176.4171270718232" y="10.577348066298342" type="curve"/>
      <point x="1176.4171270718232" y="73.96685082872928" type="line"/>
      <point x="1067.8839779005525" y="76.78453038674033" type="line"/>
      <point x="1067.8839779005525" y="1052.1546961325967" type="line"/>
      <point x="1038.9944751381215" y="1073.9447513812154" type="line"/>
      <point x="738.3011049723757" y="1027.2099447513813" type="line"/>
      <point x="738.5828729281768" y="972.8480662983426" type="line"/>
      <point x="867.4613259668508" y="933.0801104972376" type="line"/>
      <point x="867.4613259668508" y="228.59944751381215" type="line"/>
      <point x="829.2651933701658" y="177.74861878453038"/>
      <point x="743.0718232044198" y="109.00552486187844"/>
      <point x="627.3370165745856" y="109.00552486187844" type="curve" smooth="yes"/>
      <point x="465.11878453038673" y="109.00552486187844"/>
      <point x="418.96132596685084" y="248.91436464088397"/>
      <point x="418.96132596685084" y="324.93093922651934" type="curve" smooth="yes"/>
      <point x="418.96132596685084" y="1052.1546961325967" type="line"/>
      <point x="386.76243093922653" y="1073.9447513812154" type="line"/>
      <point x="100.3646408839779" y="1026.3508287292818" type="line"/>
      <point x="100.3646408839779" y="973.4254143646409" type="line"/>
      <point x="219.38397790055248" y="933.0801104972376" type="line"/>
    </contour>
  </outline>
</glyph>
<glyph name="paragraph" format="2">
  <advance width="1440.5911602209944"/>
  <unicode hex="00B6"/>
  <outline>
    <contour>
      <point x="517.5966850828729" y="88.32596685082873" type="line"/>
      <point x="326.2651933701657" y="65.48066298342542" type="line"/>
      <point x="326.2651933701657" y="0.0" type="line"/>
      <point x="697.7955801104972" y="0.0" type="line"/>
      <point x="697.7955801104972" y="1575.7016574585634" type="line"/>
      <point x="708.4640883977901" y="1575.9834254143645"/>
      <point x="730.6270718232045" y="1577.9834254143645"/>
      <point x="750.5082872928176" y="1577.9834254143645" type="curve" smooth="yes"/>
      <point x="835.8729281767955" y="1577.9834254143645"/>
      <point x="920.256906077348" y="1569.6740331491712"/>
      <point x="967.0662983425415" y="1565.3922651933701" type="curve"/>
      <point x="967.0662983425415" y="0.0" type="line"/>
      <point x="1288.8839779005525" y="0.0" type="line"/>
      <point x="1288.8839779005525" y="65.48066298342542" type="line"/>
      <point x="1146.7016574585634" y="88.32596685082873" type="line"/>
      <point x="1146.7016574585634" y="1560.6878453038673" type="line"/>
      <point x="1311.8839779005525" y="1582.378453038674" type="line"/>
      <point x="1311.8839779005525" y="1652.0" type="line"/>
      <point x="1098.6740331491712" y="1652.0" type="line" smooth="yes"/>
      <point x="903.3922651933701" y="1652.0"/>
      <point x="840.2817679558011" y="1670.0"/>
      <point x="632.5193370165746" y="1670.0" type="curve" smooth="yes"/>
      <point x="281.646408839779" y="1670.0"/>
      <point x="97.4696132596685" y="1485.46408839779"/>
      <point x="97.4696132596685" y="1237.4917127071824" type="curve" smooth="yes"/>
      <point x="104.65193370165746" y="956.646408839779"/>
      <point x="241.08839779005524" y="793.2651933701658"/>
      <point x="517.5966850828729" y="793.2651933701658" type="curve"/>
    </contour>
  </outline>
</glyph>
<glyph name="periodcentered" format="2">
  <advance width="603.6022099447514"/>
  <unicode hex="00B7"/>
  <outline>
    <contour>
      <point x="291.2651933701657" y="599.4613259668508" type="curve" smooth="yes"/>
      <point x="366.4033149171271" y="599.4613259668508"/>
      <point x="429.16574585635357" y="652.2651933701658"/>
      <point x="429.16574585635357" y="733.8950276243094" type="curve" smooth="yes"/>
      <point x="429.16574585635357" y="794.707182320442"/>
      <point x="391.5718232044199" y="852.0193370165746"/>
      <point x="312.36464088397787" y="852.0193370165746" type="curve" smooth="yes"/>
      <point x="239.68508287292818" y="852.0193370165746"/>
      <point x="174.4364640883978" y="795.5248618784531"/>
      <point x="174.4364640883978" y="717.1629834254144" type="curve" smooth="yes"/>
      <point x="174.4364640883978" y="646.7872928176796"/>
      <point x="228.45303867403314" y="599.4613259668508"/>
    </contour>
  </outline>
</glyph>
<glyph name="guillemetright" format="2">
  <advance width="1231.1491712707182"/>
  <unicode hex="00BB"/>
  <outline>
    <contour>
      <point x="704.8922651933701" y="1022.560773480663" type="line"/>
      <point x="634.3342541436464" y="979.2375690607735" type="line"/>
      <point x="921.6685082872929" y="560.6408839779006" type="line"/>
      <point x="634.3342541436464" y="154.68508287292818" type="line"/>
      <point x="704.8922651933701" y="106.56629834254144" type="line"/>
      <point x="1127.8259668508288" y="511.3729281767956" type="line"/>
      <point x="1127.8259668508288" y="607.317679558011" type="line"/>
    </contour>
    <contour>
      <point x="195.1353591160221" y="1022.560773480663" type="line"/>
      <point x="124.29558011049724" y="979.2375690607735" type="line"/>
      <point x="438.1933701657459" y="560.6408839779006" type="line"/>
      <point x="124.29558011049724" y="154.68508287292818" type="line"/>
      <point x="195.1353591160221" y="106.56629834254144" type="line"/>
      <point x="644.2099447513812" y="511.3729281767956" type="line"/>
      <point x="644.2099447513812" y="607.317679558011" type="line"/>
    </contour>
  </outline>
</glyph>
<glyph name="Eth" format="2">
  <advance width="1427.4005524861877"/>
  <unicode hex="00D0"/>
  <anchor x="725.2624309392265" y="0.0" name="bottom"/>
  <anchor x="725.2624309392265" y="744.0" name="center"/>
  <anchor x="756.1077348066299" y="-166.0" name="mark0"/>
  <anchor x="725.2624309392265" y="1486.0" name="top"/>
  <outline>
    <contour>
      <point x="73.20994475138122" y="722.9558011049724" type="line"/>
      <point x="775.0303867403316" y="722.9558011049724" type="line"/>
      <point x="775.0303867403316" y="825.6629834254144" type="line"/>
      <point x="73.20994475138122" y="825.6629834254144" type="line"/>
    </contour>
    <component base="D"/>
  </outline>
</glyph>
<glyph name="Thorn" format="2">
  <advance width="1206.1270718232045"/>
  <unicode hex="00DE"/>
  <outline>
    <contour>
      <point x="207.32872928176795" y="93.24861878453038" type="line"/>
      <point x="60.53314917127072" y="66.98066298342542" type="line"/>
      <point x="60.53314917127072" y="0.0" type="line"/>
      <point x="599.0276243093922" y="0.0" type="line"/>
      <point x="599.0276243093922" y="67.12154696132596" type="line"/>
      <point x="421.6685082872928" y="92.96685082872928" type="line"/>
      <point x="421.6685082872928" y="337.5497237569061" type="line"/>
      <point x="468.08287292817676" y="331.0359116022099"/>
      <point x="553.8756906077348" y="326.1132596685083"/>
      <point x="642.7099447513812" y="326.1132596685083" type="curve" smooth="yes"/>
      <point x="956.9447513812155" y="326.1132596685083"/>
      <point x="1150.817679558011" y="488.19060773480663"/>
      <point x="1150.817679558011" y="776.732044198895" type="curve" smooth="yes"/>
      <point x="1150.817679558011" y="1035.6767955801106"/>
      <point x="987.5635359116022" y="1175.414364640884"/>
      <point x="689.414364640884" y="1175.414364640884" type="curve" smooth="yes"/>
      <point x="591.2265193370165" y="1175.414364640884"/>
      <point x="494.41436464088395" y="1162.5552486187846"/>
      <point x="421.6685082872928" y="1157.9917127071824" type="curve"/>
      <point x="421.6685082872928" y="1390.279005524862" type="line"/>
      <point x="580.3867403314916" y="1418.5331491712707" type="line"/>
      <point x="580.2458563535912" y="1487.0" type="line"/>
      <point x="62.328729281767956" y="1487.0" type="line"/>
      <point x="62.328729281767956" y="1418.5331491712707" type="line"/>
      <point x="207.32872928176795" y="1390.279005524862" type="line"/>
    </contour>
    <contour>
      <point x="616.4723756906077" y="401.8618784530387" type="curve" smooth="yes"/>
      <point x="554.1077348066299" y="401.8618784530387"/>
      <point x="480.4475138121547" y="406.67127071823205"/>
      <point x="421.6685082872928" y="417.88950276243094" type="curve"/>
      <point x="421.6685082872928" y="1070.9060773480662" type="line"/>
      <point x="469.4696132596685" y="1082.792817679558"/>
      <point x="546.5220994475138" y="1093.3839779005525"/>
      <point x="617.4779005524862" y="1094.1022099447514" type="curve" smooth="yes"/>
      <point x="835.0994475138122" y="1096.5386740331492"/>
      <point x="918.0690607734807" y="972.1436464088398"/>
      <point x="918.0690607734807" y="769.6187845303867" type="curve" smooth="yes"/>
      <point x="918.0690607734807" y="527.243093922652"/>
      <point x="796.5303867403314" y="401.8618784530387"/>
    </contour>
  </outline>
</glyph>
<glyph name="germandbls" format="2">
  <advance width="1183.121546961326"/>
  <unicode hex="00DF"/>
  <outline>
    <contour>
      <point x="163.87016574585635" y="94.26243093922652" type="line"/>
      <point x="30.73204419889503" y="68.48066298342542" type="line"/>
      <point x="30.73204419889503" y="0.0" type="line"/>
      <point x="365.66574585635357" y="0.0" type="line"/>
      <point x="365.66574585635357" y="957.4254143646409" type="line" smooth="yes"/>
      <point x="365.66574585635357" y="1278.121546961326"/>
      <point x="465.2182320441989" y="1477.0690607734807"/>
      <point x="656.5801104972376" y="1477.0690607734807" type="curve" smooth="yes"/>
      <point x="772.914364640884" y="1477.0690607734807"/>
      <point x="838.4337016574585" y="1403.9088397790056"/>
      <point x="838.7154696132596" y="1266.3618784530386" type="curve" smooth="yes"/>
      <point x="839.8425414364641" y="1011.1629834254144"/>
      <point x="635.5911602209944" y="942.3618784530387"/>
      <point x="635.5911602209944" y="804.8093922651934" type="curve" smooth="yes"/>
      <point x="635.5911602209944" y="598.3066298342542"/>
      <point x="922.1353591160221" y="540.9558011049724"/>
      <point x="922.1353591160221" y="298.69060773480663" type="curve" smooth="yes"/>
      <point x="922.1353591160221" y="178.88397790055248"/>
      <point x="876.3977900552486" y="72.48066298342542"/>
      <point x="710.2044198895028" y="72.48066298342542" type="curve" smooth="yes"/>
      <point x="628.7209944751381" y="72.48066298342542"/>
      <point x="567.6878453038673" y="95.02209944751381"/>
      <point x="521.682320441989" y="115.69060773480663" type="curve"/>
      <point x="521.682320441989" y="0.0" type="line"/>
      <point x="557.8508287292817" y="-10.140883977900552"/>
      <point x="631.1740331491712" y="-22.0"/>
      <point x="685.4558011049724" y="-22.0" type="curve" smooth="yes"/>
      <point x="953.6878453038673" y="-22.0"/>
      <point x="1139.671270718232" y="99.8342541436464"/>
      <point x="1139.671270718232" y="329.04419889502765" type="curve" smooth="yes"/>
      <point x="1139.671270718232" y="633.9668508287293"/>
      <point x="774.792817679558" y="685.4419889502763"/>
      <point x="774.792817679558" y="851.3121546961326" type="curve" smooth="yes"/>
      <point x="774.792817679558" y="976.3038674033149"/>
      <point x="1033.4171270718232" y="1045.0276243093922"/>
      <point x="1033.4171270718232" y="1289.9944751381215" type="curve" smooth="yes"/>
      <point x="1033.4171270718232" y="1472.3370165745857"/>
      <point x="890.6436464088398" y="1558.4088397790056"/>
      <point x="688.207182320442" y="1558.4088397790056" type="curve" smooth="yes"/>
      <point x="391.6436464088398" y="1558.4088397790056"/>
      <point x="163.87016574585635" y="1311.8011049723757"/>
      <point x="163.87016574585635" y="916.6850828729282" type="curve" smooth="yes"/>
    </contour>
  </outline>
</glyph>
<glyph name="ae" format="2">
  <advance width="1574.4060773480662"/>
  <unicode hex="00E6"/>
  <anchor x="807.5027624309392" y="0.0" name="bottom"/>
  <anchor x="847.5027624309392" y="1110.2817679558011" name="top"/>
  <outline>
    <contour>
      <point x="337.18232044198896" y="-19.26795580110497" type="curve" smooth="yes"/>
      <point x="508.9696132596685" y="-19.26795580110497"/>
      <point x="644.0828729281768" y="87.79834254143647"/>
      <point x="714.8646408839779" y="209.16022099447514" type="curve"/>
      <point x="791.7099447513813" y="73.35082872928177"/>
      <point x="924.2817679558011" y="-24.43646408839779"/>
      <point x="1131.3038674033148" y="-23.0" type="curve" smooth="yes"/>
      <point x="1275.7513812154696" y="-22.281767955801104"/>
      <point x="1427.5497237569061" y="47.016574585635354"/>
      <point x="1496.9005524861877" y="118.05801104972376" type="curve"/>
      <point x="1466.7375690607735" y="183.65193370165744" type="line"/>
      <point x="1407.378453038674" y="135.39226519337015"/>
      <point x="1287.7872928176796" y="90.75966850828728"/>
      <point x="1180.3314917127072" y="90.75966850828728" type="curve" smooth="yes"/>
      <point x="965.2375690607735" y="90.75966850828728"/>
      <point x="865.4917127071823" y="286.1243093922652"/>
      <point x="861.9696132596684" y="535.4696132596686" type="curve"/>
      <point x="1514.8922651933701" y="535.4696132596686" type="line"/>
      <point x="1523.4558011049724" y="573.828729281768"/>
      <point x="1527.1602209944751" y="624.2734806629834"/>
      <point x="1527.1602209944751" y="705.5773480662983" type="curve"/>
      <point x="1522.4419889502763" y="953.8729281767955"/>
      <point x="1378.1878453038673" y="1089.9226519337017"/>
      <point x="1136.853591160221" y="1089.9226519337017" type="curve" smooth="yes"/>
      <point x="984.5883977900553" y="1089.9226519337017"/>
      <point x="856.1049723756906" y="1013.9475138121547"/>
      <point x="799.8425414364641" y="929.2872928176796" type="curve"/>
      <point x="751.6160220994475" y="1038.0441988950276"/>
      <point x="646.5110497237569" y="1085.3453038674033"/>
      <point x="504.4060773480663" y="1085.3453038674033" type="curve" smooth="yes"/>
      <point x="316.88121546961327" y="1085.3453038674033"/>
      <point x="132.48618784530387" y="989.6546961325967"/>
      <point x="76.15469613259668" y="944.3232044198895" type="curve"/>
      <point x="115.58563535911603" y="865.9889502762431" type="line"/>
      <point x="188.3314917127072" y="905.2762430939226"/>
      <point x="308.06906077348066" y="956.6132596685082"/>
      <point x="447.8011049723757" y="956.6132596685082" type="curve" smooth="yes"/>
      <point x="603.3839779005525" y="956.6132596685082"/>
      <point x="646.378453038674" y="882.8618784530387"/>
      <point x="648.5193370165746" y="719.7955801104972" type="curve"/>
      <point x="648.878453038674" y="630.2127071823204" type="line"/>
      <point x="365.26243093922653" y="627.6353591160221"/>
      <point x="32.82320441988951" y="535.7817679558011"/>
      <point x="32.82320441988951" y="272.22651933701655" type="curve" smooth="yes"/>
      <point x="32.82320441988951" y="74.77624309392264"/>
      <point x="175.70165745856355" y="-19.26795580110497"/>
    </contour>
    <contour>
      <point x="862.4834254143647" y="611.3729281767955" type="line"/>
      <point x="865.610497237569" y="861.0414364640884"/>
      <point x="962.2900552486187" y="1007.8646408839779"/>
      <point x="1116.9585635359115" y="1007.8646408839779" type="curve" smooth="yes"/>
      <point x="1261.5939226519338" y="1007.8646408839779"/>
      <point x="1316.914364640884" y="891.2044198895028"/>
      <point x="1316.914364640884" y="700.3397790055249" type="curve" smooth="yes"/>
      <point x="1316.914364640884" y="677.1988950276243"/>
      <point x="1315.5552486187846" y="645.182320441989"/>
      <point x="1313.1187845303868" y="619.6685082872928" type="curve"/>
    </contour>
    <contour>
      <point x="420.0359116022099" y="101.87845303867402" type="curve" smooth="yes"/>
      <point x="322.9889502762431" y="101.87845303867402"/>
      <point x="245.85082872928174" y="170.70994475138122"/>
      <point x="245.85082872928174" y="299.1160220994475" type="curve" smooth="yes"/>
      <point x="245.85082872928174" y="451.01381215469615"/>
      <point x="427.6077348066298" y="554.0276243093923"/>
      <point x="648.0331491712707" y="555.6685082872929" type="curve"/>
      <point x="648.0331491712707" y="437.93646408839777"/>
      <point x="657.1243093922652" y="351.40055248618785"/>
      <point x="688.328729281768" y="265.68232044198896" type="curve"/>
      <point x="636.0276243093923" y="179.74861878453038"/>
      <point x="534.7154696132596" y="101.87845303867402"/>
    </contour>
  </outline>
</glyph>
<glyph name="eth" format="2">
  <advance width="1131.5082872928176"/>
  <unicode hex="00F0"/>
  <outline>
    <contour>
      <point x="561.0883977900553" y="-22.0" type="curve" smooth="yes"/>
      <point x="932.8121546961326" y="-22.0"/>
      <point x="1056.707182320442" y="364.9281767955801"/>
      <point x="1056.707182320442" y="650.5082872928177" type="curve" smooth="yes"/>
      <point x="1056.707182320442" y="1100.342541436464"/>
      <point x="860.3038674033149" y="1398.9723756906078"/>
      <point x="529.8839779005525" y="1603.6740331491712" type="curve"/>
      <point x="523.2265193370166" y="1507.0883977900553" type="line"/>
      <point x="710.5082872928176" y="1710.4806629834254" type="line"/>
      <point x="628.110497237569" y="1774.8508287292818" type="line"/>
      <point x="435.37016574585635" y="1561.9226519337017" type="line"/>
      <point x="550.4806629834254" y="1592.121546961326" type="line"/>
      <point x="425.0110497237569" y="1665.646408839779"/>
      <point x="331.64088397790056" y="1693.8508287292818"/>
      <point x="212.12154696132598" y="1729.624309392265" type="curve"/>
      <point x="178.02762430939225" y="1641.1049723756905" type="line"/>
      <point x="249.18232044198896" y="1621.9502762430939"/>
      <point x="386.4088397790055" y="1563.5193370165746"/>
      <point x="459.96132596685084" y="1502.220994475138" type="curve"/>
      <point x="471.6022099447514" y="1604.2375690607735" type="line"/>
      <point x="267.7292817679558" y="1385.3314917127072" type="line"/>
      <point x="358.1270718232044" y="1324.756906077348" type="line"/>
      <point x="554.6408839779006" y="1544.2762430939226" type="line"/>
      <point x="437.6740331491713" y="1513.1823204419888" type="line"/>
      <point x="634.3756906077348" y="1384.7845303867402"/>
      <point x="743.8839779005525" y="1217.0"/>
      <point x="790.011049723757" y="1036.53591160221" type="curve"/>
      <point x="742.9834254143647" y="1075.364640883978"/>
      <point x="662.8232044198895" y="1103.7292817679559"/>
      <point x="569.7403314917127" y="1103.7292817679559" type="curve" smooth="yes"/>
      <point x="307.55801104972375" y="1103.7292817679559"/>
      <point x="78.64640883977901" y="888.9502762430939"/>
      <point x="78.64640883977901" y="515.171270718232" type="curve" smooth="yes"/>
      <point x="78.64640883977901" y="230.51933701657458"/>
      <point x="224.14364640883977" y="-22.0"/>
    </contour>
    <contour>
      <point x="572.7790055248619" y="70.44198895027624" type="curve" smooth="yes"/>
      <point x="366.21546961325964" y="70.44198895027624"/>
      <point x="301.13259668508283" y="331.2486187845304"/>
      <point x="301.13259668508283" y="535.1657458563536" type="curve" smooth="yes"/>
      <point x="301.13259668508283" y="816.4364640883978"/>
      <point x="397.3977900552486" y="1014.6187845303867"/>
      <point x="577.0110497237569" y="1014.6187845303867" type="curve" smooth="yes"/>
      <point x="696.5635359116022" y="1014.6187845303867"/>
      <point x="774.9281767955802" y="963.2541436464088"/>
      <point x="812.0386740331492" y="905.9558011049724" type="curve"/>
      <point x="825.6022099447514" y="855.9558011049724"/>
      <point x="838.9613259668508" y="724.060773480663"/>
      <point x="838.9613259668508" y="590.5027624309392" type="curve" smooth="yes"/>
      <point x="838.9613259668508" y="291.54696132596683"/>
      <point x="760.2651933701658" y="70.44198895027624"/>
    </contour>
  </outline>
</glyph>
<glyph name="oslash" format="2">
  <advance width="1079.353591160221"/>
  <unicode hex="00F8"/>
  <anchor x="541.4337016574585" y="0.0" name="bottom"/>
  <anchor x="541.4337016574585" y="530.5773480662983" name="center"/>
  <anchor x="628.1657458563535" y="32.886740331491715" name="ogonek"/>
  <anchor x="542.560773480663" y="1110.1408839779006" name="top"/>
  <anchor x="917.6519337016575" y="1057.6408839779006" name="topright"/>
  <outline>
    <contour>
      <point x="185.9917127071823" y="-140.51933701657458" type="line"/>
      <point x="278.6878453038674" y="-177.3867403314917" type="line"/>
      <point x="370.6381215469613" y="19.370165745856358" type="line"/>
      <point x="395.5662983425414" y="93.28729281767957" type="line"/>
      <point x="744.7182320441989" y="915.4116022099447" type="line"/>
      <point x="807.4972375690608" y="1006.4309392265193" type="line"/>
      <point x="895.7154696132596" y="1201.1961325966852" type="line"/>
      <point x="801.9696132596686" y="1237.5" type="line"/>
      <point x="715.1602209944751" y="1047.439226519337" type="line"/>
      <point x="692.5690607734807" y="980.6408839779006" type="line"/>
      <point x="338.77624309392263" y="147.88950276243094" type="line"/>
      <point x="277.2513812154696" y="57.751381215469614" type="line"/>
    </contour>
    <component base="o"/>
  </outline>
</glyph>
<glyph name="thorn" format="2">
  <advance width="1111.767955801105"/>
  <unicode hex="00FE"/>
  <outline>
    <contour>
      <point x="3.5635359116022123" y="-466.38121546961327" type="line"/>
      <point x="514.0939226519337" y="-466.38121546961327" type="line"/>
      <point x="514.0939226519337" y="-402.90055248618785" type="line"/>
      <point x="334.86464088397787" y="-375.914364640884" type="line"/>
      <point x="334.0055248618784" y="-146.98618784530387" type="line"/>
      <point x="328.9917127071823" y="10.533149171270722" type="line"/>
      <point x="373.41988950276243" y="-4.726519337016573"/>
      <point x="450.0303867403315" y="-22.0"/>
      <point x="531.8093922651933" y="-22.0" type="curve" smooth="yes"/>
      <point x="841.7955801104972" y="-22.0"/>
      <point x="1061.0082872928176" y="226.3646408839779"/>
      <point x="1061.0082872928176" y="563.0276243093923" type="curve" smooth="yes"/>
      <point x="1061.0082872928176" y="923.7955801104972"/>
      <point x="881.8204419889503" y="1089.8453038674033"/>
      <point x="644.171270718232" y="1089.8453038674033" type="curve" smooth="yes"/>
      <point x="492.82872928176795" y="1089.8453038674033"/>
      <point x="382.2651933701657" y="1007.317679558011"/>
      <point x="334.7237569060773" y="948.1767955801105" type="curve"/>
      <point x="335.4281767955801" y="1611.864640883978" type="line"/>
      <point x="299.84806629834253" y="1638.2817679558011" type="line"/>
      <point x="277.4889502762431" y="1638.2817679558011" type="line"/>
      <point x="-10.400552486187847" y="1591.756906077348" type="line"/>
      <point x="-10.400552486187847" y="1533.7900552486187" type="line"/>
      <point x="135.49171270718233" y="1510.0773480662983" type="line"/>
      <point x="135.6325966850829" y="-375.5552486187845" type="line"/>
      <point x="3.5635359116022123" y="-402.90055248618785" type="line"/>
    </contour>
    <contour>
      <point x="524.8232044198895" y="58.36740331491713" type="curve" smooth="yes"/>
      <point x="432.41160220994476" y="58.36740331491713"/>
      <point x="357.2513812154696" y="92.2182320441989"/>
      <point x="334.7237569060773" y="135.96408839779005" type="curve"/>
      <point x="334.7237569060773" y="858.0276243093923" type="line"/>
      <point x="373.1022099447514" y="901.4060773480663"/>
      <point x="445.7541436464088" y="975.6988950276243"/>
      <point x="565.4116022099447" y="975.6988950276243" type="curve" smooth="yes"/>
      <point x="726.9337016574585" y="975.6988950276243"/>
      <point x="841.7403314917127" y="839.8370165745856"/>
      <point x="839.8812154696133" y="535.828729281768" type="curve" smooth="yes"/>
      <point x="837.3038674033149" y="221.12707182320443"/>
      <point x="715.5911602209944" y="58.36740331491713"/>
    </contour>
  </outline>
</glyph>
<glyph name="dcroat" format="2">
  <advance width="1120.3812154696132"/>
  <unicode hex="0111"/>
  <anchor x="565.8066298342542" y="3.552713678800501e-15" name="bottom"/>
  <anchor x="555.9944751381215" y="566.0" name="center"/>
  <anchor x="333.0" y="1158.0" name="top"/>
  <anchor x="1150.7403314917126" y="1110.2817679558011" name="topright"/>
  <outline>
    <contour>
      <point x="1133.6022099447514" y="1372.3370165745857" type="line"/>
      <point x="519.3646408839779" y="1372.3370165745857" type="line"/>
      <point x="519.3646408839779" y="1270.6298342541436" type="line"/>
      <point x="1133.6022099447514" y="1270.6298342541436" type="line"/>
    </contour>
    <component base="d"/>
  </outline>
</glyph>
<glyph name="eogonek" format="2">
  <advance width="1019.0552486187845"/>
  <unicode hex="0119"/>
  <anchor x="658.3121546961326" y="20.0" name="_ogonek"/>
  <anchor x="508.84806629834253" y="0.0" name="bottom"/>
  <anchor x="547.914364640884" y="-166.0" name="mark0"/>
  <anchor x="658.3121546961326" y="20.0" name="ogonek"/>
  <anchor x="562.4226519337017" y="1110.2817679558011" name="top"/>
  <outline>
    <contour>
      <point x="550.7375690607735" y="-485.1546961325967" type="curve" smooth="yes"/>
      <point x="695.8314917127071" y="-485.1546961325967"/>
      <point x="779.7209944751381" y="-433.0718232044199"/>
      <point x="836.2016574585635" y="-393.1546961325967" type="curve"/>
      <point x="834.2016574585635" y="-294.1381215469613" type="line"/>
      <point x="797.6657458563536" y="-313.292817679558"/>
      <point x="720.6546961325967" y="-360.8674033149171"/>
      <point x="638.2348066298342" y="-360.8674033149171" type="curve" smooth="yes"/>
      <point x="547.0524861878453" y="-360.8674033149171"/>
      <point x="497.3066298342541" y="-326.6132596685083"/>
      <point x="497.3066298342541" y="-239.06629834254144" type="curve" smooth="yes"/>
      <point x="497.3066298342541" y="-153.91160220994476"/>
      <point x="631.2458563535912" y="-34.61878453038674"/>
      <point x="748.7099447513812" y="12.254143646408838" type="curve"/>
      <point x="835.2182320441989" y="40.50828729281768"/>
      <point x="909.1906077348066" y="84.45303867403314"/>
      <point x="950.6546961325967" y="125.9171270718232" type="curve"/>
      <point x="911.8922651933701" y="213.16022099447514" type="line"/>
      <point x="850.4558011049724" y="163.6685082872928"/>
      <point x="721.8370165745856" y="116.51381215469613"/>
      <point x="610.0911602209944" y="116.51381215469613" type="curve" smooth="yes"/>
      <point x="388.99723756906076" y="116.51381215469613"/>
      <point x="272.8867403314917" y="299.1270718232044"/>
      <point x="268.94198895027625" y="556.7292817679559" type="curve"/>
      <point x="956.9917127071823" y="556.7292817679559" type="line"/>
      <point x="967.2734806629834" y="602.7016574585635"/>
      <point x="970.4005524861878" y="660.9558011049724"/>
      <point x="970.4005524861878" y="741.182320441989" type="curve"/>
      <point x="961.8093922651933" y="998.3370165745856"/>
      <point x="821.2734806629834" y="1140.0"/>
      <point x="572.0303867403314" y="1140.0" type="curve" smooth="yes"/>
      <point x="267.60497237569064" y="1140.0"/>
      <point x="49.88674033149171" y="910.1988950276243"/>
      <point x="49.88674033149171" y="558.8729281767955" type="curve" smooth="yes"/>
      <point x="49.88674033149171" y="221.38121546961327"/>
      <point x="209.4060773480663" y="-16.646408839779006"/>
      <point x="534.4226519337017" y="-21.718232044198896" type="curve"/>
      <point x="413.3232044198895" y="-91.7182320441989"/>
      <point x="316.0303867403315" y="-183.69060773480663"/>
      <point x="316.0303867403315" y="-295.49171270718233" type="curve" smooth="yes"/>
      <point x="316.0303867403315" y="-426.8729281767956"/>
      <point x="435.91988950276243" y="-485.1546961325967"/>
    </contour>
    <contour>
      <point x="269.8149171270718" y="661.7182320441989" type="line"/>
      <point x="284.4337016574585" y="940.0"/>
      <point x="391.19060773480663" y="1027.5745856353592"/>
      <point x="534.8480662983426" y="1027.5745856353592" type="curve" smooth="yes"/>
      <point x="694.5331491712707" y="1027.5745856353592"/>
      <point x="754.9530386740331" y="910.3370165745856"/>
      <point x="756.6712707182321" y="748.3093922651934" type="curve" smooth="yes"/>
      <point x="756.6712707182321" y="720.3093922651934"/>
      <point x="754.6712707182321" y="689.7182320441989"/>
      <point x="751.5165745856353" y="661.7182320441989" type="curve"/>
    </contour>
  </outline>
</glyph>
<glyph name="Hbar" format="2">
  <advance width="1629.5193370165746"/>
  <unicode hex="0126"/>
  <anchor x="768.4972375690608" y="0.0" name="bottom"/>
  <anchor x="755.5745856353591" y="743.0" name="center"/>
  <anchor x="781.1160220994475" y="1486.0" name="top"/>
  <anchor x="2.353591160220992" y="1486.0" name="topleft"/>
  <outline>
    <contour>
      <point x="1505.2044198895028" y="1074.2817679558011" type="line"/>
      <point x="29.662983425414364" y="1074.2817679558011" type="line"/>
      <point x="29.09944751381215" y="994.3646408839779" type="line"/>
      <point x="1505.2044198895028" y="994.3646408839779" type="line"/>
    </contour>
    <component base="H"/>
  </outline>
</glyph>
<glyph name="hbar" format="2">
  <advance width="1201.3729281767955"/>
  <unicode hex="0127"/>
  <anchor x="612.2790055248619" y="0.0" name="bottom"/>
  <anchor x="622.7486187845304" y="556.0" name="center"/>
  <anchor x="234.32872928176795" y="1600.3093922651933" name="top"/>
  <outline>
    <contour>
      <point x="327.70441988950273" y="1324.732044198895" type="line"/>
      <point x="29.204419889502763" y="1271.5193370165746" type="line"/>
      <point x="367.1629834254144" y="1238.5193370165746" type="line"/>
      <point x="665.6629834254144" y="1291.732044198895" type="line"/>
    </contour>
    <component base="h"/>
  </outline>
</glyph>
<glyph name="Iogonek" format="2">
  <advance width="643.7458563535912"/>
  <unicode hex="012E"/>
  <anchor x="322.30939226519337" y="0.0" name="bottom"/>
  <anchor x="324.30939226519337" y="-166.0" name="mark0"/>
  <anchor x="587.6795580110497" y="20.0" name="ogonek"/>
  <anchor x="322.30939226519337" y="1486.0" name="top"/>
  <anchor x="13.65745856353591" y="1486.0" name="topleft"/>
  <outline>
    <contour>
      <point x="417.1933701657458" y="42.690607734806626" type="line"/>
      <point x="334.3674033149171" y="0.0" type="line"/>
      <point x="194.1961325966851" y="-61.12707182320442"/>
      <point x="87.12430939226519" y="-192.97790055248618"/>
      <point x="87.12430939226519" y="-303.51381215469615" type="curve" smooth="yes"/>
      <point x="87.12430939226519" y="-441.0055248618785"/>
      <point x="210.74309392265195" y="-498.8453038674033"/>
      <point x="326.33977900552486" y="-498.8453038674033" type="curve" smooth="yes"/>
      <point x="408.33977900552486" y="-498.8453038674033"/>
      <point x="495.91988950276243" y="-473.69060773480663"/>
      <point x="551.9198895027624" y="-431.69060773480663" type="curve"/>
      <point x="551.9198895027624" y="-331.91160220994476" type="line"/>
      <point x="506.20165745856355" y="-354.50276243093924"/>
      <point x="456.93646408839777" y="-367.96685082872926"/>
      <point x="406.3453038674033" y="-367.96685082872926" type="curve" smooth="yes"/>
      <point x="319.24585635359114" y="-367.96685082872926"/>
      <point x="271.11878453038673" y="-332.55801104972375"/>
      <point x="271.11878453038673" y="-245.88397790055248" type="curve" smooth="yes"/>
      <point x="271.11878453038673" y="-166.39226519337018"/>
      <point x="352.96408839779" y="-53.46408839779006"/>
      <point x="477.24585635359114" y="0.0" type="curve"/>
    </contour>
    <component base="I"/>
  </outline>
</glyph>
<glyph name="iogonek" format="2">
  <advance width="577.6408839779006"/>
  <unicode hex="012F"/>
  <anchor x="333.47513812154693" y="0.0" name="bottom"/>
  <anchor x="327.75690607734805" y="-166.0" name="mark0"/>
  <anchor x="413.75690607734805" y="20.0" name="ogonek"/>
  <anchor x="286.0331491712707" y="1510.9337016574586" name="top"/>
  <outline>
    <contour>
      <point x="274.36464088397787" y="-481.56353591160223" type="curve" smooth="yes"/>
      <point x="397.91160220994476" y="-481.56353591160223"/>
      <point x="462.9226519337017" y="-437.1491712707182"/>
      <point x="505.71270718232046" y="-403.69060773480663" type="curve"/>
      <point x="505.9944751381216" y="-309.58011049723757" type="line"/>
      <point x="472.3314917127072" y="-328.3756906077348"/>
      <point x="421.01657458563534" y="-364.4585635359116"/>
      <point x="347.21546961325964" y="-364.4585635359116" type="curve" smooth="yes"/>
      <point x="278.1933701657458" y="-364.4585635359116"/>
      <point x="228.16574585635357" y="-336.4640883977901"/>
      <point x="228.16574585635357" y="-248.04419889502765" type="curve" smooth="yes"/>
      <point x="228.16574585635357" y="-168.1657458563536"/>
      <point x="290.0220994475138" y="-52.28176795580111"/>
      <point x="394.27624309392263" y="0.35911602209944754" type="curve"/>
      <point x="321.9337016574585" y="52.3756906077348" type="line"/>
      <point x="268.6353591160221" y="0.35911602209944754" type="line"/>
      <point x="149.4696132596685" y="-65.40883977900552"/>
      <point x="70.59116022099448" y="-188.59116022099448"/>
      <point x="70.59116022099448" y="-291.90055248618785" type="curve" smooth="yes"/>
      <point x="70.59116022099448" y="-417.97237569060775"/>
      <point x="173.24309392265192" y="-481.56353591160223"/>
    </contour>
    <component base="i"/>
  </outline>
</glyph>
<glyph name="idotless" format="2">
  <advance width="577.6408839779006"/>
  <unicode hex="0131"/>
  <anchor x="333.47513812154693" y="0.0" name="bottom"/>
  <anchor x="327.75690607734805" y="-166.0" name="mark0"/>
  <anchor x="413.75690607734805" y="20.0" name="ogonek"/>
  <anchor x="286.03314917127074" y="1111.0" name="top"/>
  <outline>
    <contour>
      <point x="194.43370165745858" y="92.10773480662984" type="line"/>
      <point x="55.18232044198895" y="67.76243093922652" type="line"/>
      <point x="55.18232044198895" y="0.0" type="line"/>
      <point x="536.0939226519337" y="0.0" type="line"/>
      <point x="536.0939226519337" y="67.76243093922652" type="line"/>
      <point x="397.71546961325964" y="91.24861878453038" type="line"/>
      <point x="397.5745856353591" y="1048.0276243093922" type="line"/>
      <point x="363.0303867403315" y="1076.085635359116" type="line"/>
      <point x="334.3618784530387" y="1076.085635359116" type="line"/>
      <point x="58.3646408839779" y="1022.9558011049724" type="line"/>
      <point x="58.3646408839779" y="954.3121546961326" type="line"/>
      <point x="194.43370165745858" y="917.4171270718232" type="line"/>
    </contour>
  </outline>
</glyph>
<glyph name="kgreenlandic" format="2">
  <advance width="1146.146408839779"/>
  <unicode hex="0138"/>
  <outline>
    <contour>
      <point x="177.8011049723757" y="90.38950276243094" type="line"/>
      <point x="42.7817679558011" y="66.76243093922652" type="line"/>
      <point x="42.7817679558011" y="0.0" type="line"/>
      <point x="507.9475138121547" y="0.0" type="line"/>
      <point x="507.9475138121547" y="65.76243093922652" type="line"/>
      <point x="381.146408839779" y="90.38950276243094" type="line"/>
      <point x="381.146408839779" y="238.21270718232043" type="line"/>
      <point x="376.2237569060773" y="341.2044198895028" type="line"/>
      <point x="550.7127071823204" y="520.792817679558" type="line"/>
      <point x="820.267955801105" y="90.10773480662984" type="line"/>
      <point x="707.5165745856353" y="66.18508287292818" type="line"/>
      <point x="707.5165745856353" y="0.0" type="line"/>
      <point x="1171.0773480662983" y="0.0" type="line"/>
      <point x="1171.0773480662983" y="67.62154696132596" type="line"/>
      <point x="1051.9806629834254" y="90.5303867403315" type="line"/>
      <point x="683.9060773480662" y="647.867403314917" type="line"/>
      <point x="972.5027624309392" y="965.0193370165746" type="line"/>
      <point x="1104.7154696132598" y="989.8011049723757" type="line"/>
      <point x="1104.7154696132598" y="1056.6408839779006" type="line"/>
      <point x="677.146408839779" y="1056.6408839779006" type="line"/>
      <point x="677.146408839779" y="989.8011049723757" type="line"/>
      <point x="825.9861878453039" y="961.3646408839779" type="line"/>
      <point x="376.44198895027625" y="452.17127071823205" type="line"/>
      <point x="380.7237569060773" y="631.1298342541436" type="line"/>
      <point x="380.44198895027625" y="1048.1685082872928" type="line"/>
      <point x="342.8756906077348" y="1076.085635359116" type="line"/>
      <point x="314.84806629834253" y="1076.085635359116" type="line"/>
      <point x="43.12707182320442" y="1023.6602209944751" type="line"/>
      <point x="43.12707182320442" y="954.0303867403316" type="line"/>
      <point x="178.0828729281768" y="917.4171270718232" type="line"/>
    </contour>
  </outline>
</glyph>
<glyph name="Ldot" format="2">
  <advance width="1307.1823204419888"/>
  <unicode hex="013F"/>
  <anchor x="680.817679558011" y="-166.0" name="mark0"/>
  <anchor x="642.4254143646409" y="0.0" name="bottom"/>
  <anchor x="634.2541436464089" y="744.0" name="center"/>
  <anchor x="374.6795580110497" y="1486.0" name="top"/>
  <anchor x="930.5414364640884" y="1110.2817679558011" name="topright"/>
  <outline>
    <contour>
      <point x="1080.3701657458564" y="677.1988950276243" type="curve" smooth="yes"/>
      <point x="1161.867403314917" y="677.1988950276243"/>
      <point x="1230.3480662983425" y="734.5801104972376"/>
      <point x="1230.3480662983425" y="823.0055248618785" type="curve" smooth="yes"/>
      <point x="1230.3480662983425" y="888.8950276243094"/>
      <point x="1189.3314917127072" y="950.7845303867404"/>
      <point x="1103.4696132596684" y="950.7845303867404" type="curve" smooth="yes"/>
      <point x="1024.7900552486187" y="950.7845303867404"/>
      <point x="953.4640883977901" y="889.7127071823204"/>
      <point x="953.4640883977901" y="804.6961325966851" type="curve" smooth="yes"/>
      <point x="953.4640883977901" y="728.243093922652"/>
      <point x="1012.4806629834254" y="677.1988950276243"/>
    </contour>
    <component base="L"/>
  </outline>
</glyph>
<glyph name="Lslash" format="2">
  <advance width="1268.8176795580112"/>
  <unicode hex="0141"/>
  <anchor x="642.4254143646409" y="0.0" name="bottom"/>
  <anchor x="634.2541436464089" y="744.0" name="center"/>
  <anchor x="680.5359116022099" y="-166.0" name="mark0"/>
  <anchor x="374.6795580110497" y="1486.0" name="top"/>
  <anchor x="930.5414364640884" y="1110.2817679558011" name="topright"/>
  <outline>
    <contour>
      <point x="288.59944751381215" y="819.8453038674033" type="line"/>
      <point x="34.15469613259668" y="711.9861878453039" type="line"/>
      <point x="34.15469613259668" y="611.0414364640884" type="line"/>
      <point x="288.59944751381215" y="717.0414364640884" type="line"/>
      <point x="324.121546961326" y="730.1685082872929" type="line"/>
      <point x="866.4806629834254" y="964.6325966850828" type="line"/>
      <point x="866.4806629834254" y="1072.1408839779006" type="line"/>
      <point x="326.121546961326" y="835.2541436464088" type="line"/>
    </contour>
    <component base="L"/>
  </outline>
</glyph>
<glyph name="Eng" format="2">
  <advance width="1575.889502762431"/>
  <unicode hex="014A"/>
  <outline>
    <contour>
      <point x="208.72375690607734" y="108.88397790055248" type="line"/>
      <point x="43.469613259668506" y="66.48066298342542" type="line"/>
      <point x="43.469613259668506" y="0.0" type="line"/>
      <point x="481.7707182320442" y="0.0" type="line"/>
      <point x="481.7707182320442" y="66.48066298342542" type="line"/>
      <point x="307.76243093922653" y="108.88397790055248" type="line"/>
      <point x="308.1850828729282" y="1278.8038674033148" type="line"/>
      <point x="435.19613259668506" y="1059.5469613259668" type="line"/>
      <point x="1100.1408839779006" y="35.892265193370164" type="line"/>
      <point x="1088.414364640884" y="-30.002762430939224"/>
      <point x="1065.5690607734807" y="-71.8342541436464"/>
      <point x="1028.8922651933701" y="-117.70718232044197" type="curve" smooth="yes"/>
      <point x="969.4060773480663" y="-198.51657458563534"/>
      <point x="890.4640883977901" y="-251.81215469613258"/>
      <point x="774.4364640883978" y="-292.91160220994476" type="curve"/>
      <point x="815.8950276243094" y="-357.8922651933702" type="line"/>
      <point x="957.5773480662983" y="-331.878453038674"/>
      <point x="1078.6878453038673" y="-268.48618784530385"/>
      <point x="1171.1381215469614" y="-139.73480662983425" type="curve" smooth="yes"/>
      <point x="1240.5303867403316" y="-46.86187845303868"/>
      <point x="1285.8066298342542" y="85.92265193370164"/>
      <point x="1285.8066298342542" y="332.9088397790055" type="curve" smooth="yes"/>
      <point x="1285.8066298342542" y="1374.9254143646408" type="line"/>
      <point x="1448.2016574585637" y="1418.1740331491712" type="line"/>
      <point x="1448.2016574585637" y="1486.0" type="line"/>
      <point x="1019.4640883977901" y="1486.0" type="line"/>
      <point x="1019.4640883977901" y="1418.1740331491712" type="line"/>
      <point x="1187.1270718232045" y="1373.8480662983425" type="line"/>
      <point x="1187.267955801105" y="238.29281767955797" type="line"/>
      <point x="1046.7348066298343" y="487.7624309392265" type="line"/>
      <point x="397.82320441988946" y="1486.0" type="line"/>
      <point x="50.71546961325967" y="1486.0" type="line"/>
      <point x="50.71546961325967" y="1418.8922651933701" type="line"/>
      <point x="106.26519337016575" y="1410.1602209944751"/>
      <point x="179.37845303867402" y="1375.0580110497237"/>
      <point x="208.72375690607734" y="1352.7817679558011" type="curve"/>
    </contour>
  </outline>
</glyph>
